<svg width="18" height="20" viewBox="0 0 18 20" fill="none" xmlns="http://www.w3.org/2000/svg">
<path d="M7.31352 3.38965C6.64195 3.38965 5.98545 3.58879 5.42706 3.9619C4.86866 4.33501 4.43344 4.86533 4.17644 5.48578C3.91944 6.10624 3.8522 6.78897 3.98321 7.44765C4.11423 8.10632 4.43763 8.71135 4.91251 9.18623C5.38738 9.6611 5.99241 9.9845 6.65108 10.1155C7.30976 10.2465 7.99249 10.1793 8.61295 9.92229C9.2334 9.66529 9.76372 9.23007 10.1368 8.67168C10.5099 8.11328 10.7091 7.45678 10.7091 6.78521C10.7091 5.88465 10.3513 5.02097 9.71454 4.38418C9.07775 3.74739 8.21408 3.38965 7.31352 3.38965ZM7.31352 8.99558C6.87636 8.99558 6.449 8.86594 6.08551 8.62306C5.72202 8.38018 5.43871 8.03497 5.27141 7.63108C5.10411 7.22719 5.06034 6.78275 5.14563 6.35398C5.23091 5.92521 5.44143 5.53136 5.75056 5.22224C6.05968 4.91311 6.45353 4.70259 6.8823 4.61731C7.31107 4.53202 7.75551 4.57579 8.1594 4.74309C8.56329 4.91039 8.9085 5.19369 9.15138 5.55719C9.39426 5.92068 9.52389 6.34803 9.52389 6.78521C9.52233 7.3704 9.28876 7.9311 8.8744 8.34434C8.46005 8.75759 7.89873 8.98965 7.31352 8.98965V8.99558Z" fill="#ED303C"/>
<path d="M14.2877 7.40185C13.8856 7.39067 13.4869 7.32488 13.1025 7.20629V7.54407C13.1025 9.95 11.6684 12.0893 10.6195 13.6537L10.4062 13.9678C9.38694 15.4967 8.03582 17.2093 7.30694 18.0567C6.60768 17.2093 5.22694 15.4967 4.20768 13.9678L4.00619 13.63C2.95731 12.0656 1.51731 9.92629 1.51731 7.52037C1.5209 6.52393 1.78161 5.54528 2.27421 4.67911C2.76681 3.81294 3.47463 3.08857 4.32918 2.57607C5.18373 2.06358 6.15609 1.78032 7.15218 1.75369C8.14827 1.72706 9.13437 1.95797 10.0151 2.42407C10.0622 2.01661 10.166 1.61771 10.3232 1.23888C9.25907 0.724921 8.0816 0.490266 6.90171 0.557015C5.72182 0.623765 4.57833 0.989723 3.57892 1.62043C2.57952 2.25113 1.75708 3.12583 1.18907 4.16215C0.621051 5.19847 0.326145 6.36231 0.33212 7.54407C0.33212 10.3115 1.88471 12.6285 3.02249 14.3174L3.2299 14.6256C4.36192 16.2662 5.57631 17.8485 6.86842 19.3663L7.31879 19.8937L7.76916 19.3663C9.0611 17.8484 10.2755 16.2661 11.4077 14.6256L11.6151 14.3115C12.7469 12.6226 14.2995 10.3115 14.2995 7.54407C14.2936 7.49666 14.2877 7.44925 14.2877 7.40185Z" fill="#ED303C"/>
<path d="M14.4239 5.92593C16.0603 5.92593 17.3869 4.59936 17.3869 2.96296C17.3869 1.32656 16.0603 0 14.4239 0C12.7875 0 11.4609 1.32656 11.4609 2.96296C11.4609 4.59936 12.7875 5.92593 14.4239 5.92593Z" fill="#ED303C"/>
</svg>
