<?xml version="1.0" encoding="UTF-8"?>
<svg version="1.1" xmlns="http://www.w3.org/2000/svg" width="512" height="512">
<path d="M0 0 C1.03253906 0.73863281 2.06507813 1.47726563 3.12890625 2.23828125 C18.50088115 13.52175174 33.83560274 26.26184385 46 41 C46.81597656 41.928125 47.63195312 42.85625 48.47265625 43.8125 C92.72744731 94.31586482 112.43783833 161.19995241 108.7265625 227.66015625 C104.28546675 290.81666912 74.84797068 354.48055323 27 396.6875 C25.66871264 397.79413262 24.33514002 398.89801863 23 400 C22.071875 400.81597656 21.14375 401.63195312 20.1875 402.47265625 C11.92694797 409.70840295 3.18729679 415.99519988 -6 422 C-7.06863281 422.69867188 -8.13726562 423.39734375 -9.23828125 424.1171875 C-67.08477548 460.72144942 -136.3538988 471.19157308 -202.89599609 456.70751953 C-218.16312736 453.22756465 -232.64917104 448.23710217 -247 442 C-248.16281494 441.49992432 -248.16281494 441.49992432 -249.34912109 440.98974609 C-268.19422375 432.78742409 -286.20085434 422.17661541 -302 409 C-303.05851249 408.13271332 -304.11710856 407.26552862 -305.17578125 406.3984375 C-316.11001236 397.35982294 -326.95383206 387.96016784 -336 377 C-336.81597656 376.071875 -337.63195312 375.14375 -338.47265625 374.1875 C-382.72744731 323.68413518 -402.43783833 256.80004759 -398.7265625 190.33984375 C-394.28546675 127.18333088 -364.84797068 63.51944677 -317 21.3125 C-315.66871264 20.20586738 -314.33514002 19.10198137 -313 18 C-312.071875 17.18402344 -311.14375 16.36804687 -310.1875 15.52734375 C-238.29672059 -47.468685 -132.21897978 -62.10474765 0 0 Z " fill="#69C3A3" transform="translate(401,47)"/>
<path d="M0 0 C4.05766065 0.82988457 7.73644844 2.29054655 11.52392578 3.94091797 C12.34538086 4.29581299 13.16683594 4.65070801 14.01318359 5.01635742 C42.47263749 17.70009127 63.43304811 39.20067096 75.20751953 68.01123047 C79.00828327 78.59653508 81.05576329 90.26773237 79.46142578 101.50341797 C77.30850912 104.89963257 76.294803 106.22562556 72.46142578 107.50341797 C71.10740878 107.59643057 69.74930876 107.63603051 68.39210796 107.64043236 C67.14512631 107.64804417 67.14512631 107.64804417 65.87295312 107.65580976 C64.95973867 107.65630752 64.04652421 107.65680527 63.1056366 107.65731812 C61.65031358 107.6638915 61.65031358 107.6638915 60.16559011 107.67059767 C56.89986088 107.68400052 53.63415864 107.69016784 50.3684082 107.69628906 C48.03290179 107.70418874 45.6973966 107.7124576 43.3618927 107.72106934 C35.68023852 107.74730088 27.99857886 107.76259623 20.31689453 107.77685547 C17.6749655 107.78221433 15.03303651 107.78759183 12.39110756 107.79298782 C1.40469822 107.81461652 -9.58170982 107.8335061 -20.56813526 107.84461021 C-23.41871457 107.8475399 -26.26929383 107.85050157 -29.11987305 107.85351562 C-29.828369 107.85426168 -30.53686494 107.85500773 -31.26683047 107.85577638 C-42.74721304 107.86843342 -54.22744086 107.90166208 -65.70775107 107.94331746 C-77.4939054 107.98573218 -89.27998047 108.00930458 -101.06621093 108.01453078 C-107.68398839 108.01794513 -114.30155113 108.03026986 -120.91926003 108.06263351 C-127.14338343 108.0926363 -133.3670845 108.09905355 -139.59126472 108.08724976 C-141.87698183 108.08702838 -144.16271809 108.09538574 -146.44836807 108.11290359 C-149.56670228 108.13550462 -152.68349322 108.12734152 -155.80183411 108.11141968 C-157.16161754 108.13224281 -157.16161754 108.13224281 -158.54887134 108.15348661 C-162.81355577 108.09975808 -165.67245612 107.84837725 -169.08462048 105.15291786 C-172.90252596 101.03077816 -172.76767634 97.63191546 -172.68310547 92.28857422 C-171.31924022 66.00652235 -155.92757264 43.32018952 -137.17285156 25.94238281 C-125.01865446 15.24073392 -105.00632407 0.68438884 -88.34326172 0.22216797 C-84.15009038 0.53213546 -81.86694211 1.04144371 -79.02148438 4.1730957 C-78.30677979 5.16998413 -78.30677979 5.16998413 -77.57763672 6.18701172 C-76.75682617 7.31755981 -76.75682617 7.31755981 -75.91943359 8.47094727 C-75.0502832 9.69358276 -75.0502832 9.69358276 -74.16357422 10.94091797 C-72.91640181 12.66503794 -71.66899914 14.38899137 -70.42138672 16.11279297 C-69.78233398 17.00160156 -69.14328125 17.89041016 -68.48486328 18.80615234 C-65.3684952 23.12497253 -62.2024453 27.40684705 -59.03857422 31.69091797 C-58.47605957 32.45525146 -57.91354492 33.21958496 -57.33398438 34.00708008 C-56.79306152 34.74192627 -56.25213867 35.47677246 -55.69482422 36.23388672 C-55.17533203 36.94077637 -54.65583984 37.64766602 -54.12060547 38.37597656 C-53.02675457 39.84693594 -51.91901249 41.30762998 -50.80029297 42.75976562 C-49.97464844 43.83363525 -49.97464844 43.83363525 -49.13232422 44.92919922 C-48.63410156 45.56897705 -48.13587891 46.20875488 -47.62255859 46.86791992 C-46.53857422 48.50341797 -46.53857422 48.50341797 -46.53857422 50.50341797 C-45.87857422 50.50341797 -45.21857422 50.50341797 -44.53857422 50.50341797 C-44.2565918 49.91439697 -43.97460938 49.32537598 -43.68408203 48.71850586 C-42.64008313 46.69970748 -41.52028816 44.9149993 -40.21044922 43.06201172 C-39.74727295 42.40523438 -39.28409668 41.74845703 -38.80688477 41.07177734 C-38.30584229 40.36859375 -37.8047998 39.66541016 -37.28857422 38.94091797 C-36.76497314 38.20292969 -36.24137207 37.46494141 -35.7019043 36.70458984 C-31.59270113 30.93465678 -27.42350684 25.20940924 -23.22607422 19.50341797 C-22.66436523 18.73956787 -22.10265625 17.97571777 -21.52392578 17.1887207 C-19.87168493 14.95295034 -18.20875837 12.72581311 -16.53857422 10.50341797 C-15.92191895 9.68099609 -15.30526367 8.85857422 -14.66992188 8.01123047 C-14.05552246 7.20427734 -13.44112305 6.39732422 -12.80810547 5.56591797 C-11.97629761 4.46957031 -11.97629761 4.46957031 -11.12768555 3.35107422 C-7.50389969 -0.86229363 -5.07124233 -0.70573338 0 0 Z " fill="#FEFEFE" transform="translate(301.53857421875,275.49658203125)"/>
<path d="M0 0 C3.57536813 2.7880851 6.81298077 5.77907631 10 9 C10.62390625 9.59039062 11.2478125 10.18078125 11.890625 10.7890625 C15.99821766 14.98916851 18.66126824 19.74725476 21.3125 24.9375 C21.65039551 25.59371338 21.98829102 26.24992676 22.33642578 26.92602539 C26.4975486 35.45369356 27.32793803 43.59547789 27.25 53 C27.25773438 53.93328125 27.26546875 54.8665625 27.2734375 55.828125 C27.22725569 72.36121412 20.6363599 88.24716301 9.1875 100.25 C1.33266266 107.62239051 -6.96390091 112.20984659 -17 116 C-18.19689453 116.53173828 -18.19689453 116.53173828 -19.41796875 117.07421875 C-32.58839636 121.79644469 -51.58346484 120.18141772 -64.07421875 114.35327148 C-70.97826867 110.95309071 -77.26183323 107.17630461 -83 102 C-83.598125 101.49339844 -84.19625 100.98679687 -84.8125 100.46484375 C-96.20746518 90.11272136 -102.53763265 75.1112844 -103.4765625 59.94921875 C-104.17906972 39.88148544 -99.94385129 25.31527526 -86.75 9.8125 C-63.90858102 -14.53367462 -27.78064421 -18.35184299 0 0 Z " fill="#FEFEFE" transform="translate(294,141)"/>
</svg>
