<svg width="338" height="218" viewBox="0 0 338 218" fill="none" xmlns="http://www.w3.org/2000/svg">
<path d="M186.678 159.799H150.145V159.037H165.506V159.481H166.197V159.037H186.678V159.799ZM149.455 159.799H68.68V159.037H149.455V159.799ZM67.9894 159.799H27.0221V159.037H67.9894V159.799ZM9.18722 159.799H5.10742V159.037H9.18722V159.799Z" fill="#2C1E21"/>
<path d="M150.143 174.539H149.453V158.91H150.143V159.037V159.799V174.539Z" fill="#2C1E21"/>
<path d="M166.196 159.481H165.506V143.852H166.196V159.037V159.481Z" fill="#2C1E21"/>
<path d="M201.061 137.754H201.751V122.442H201.061V137.754Z" fill="#2C1E21"/>
<path d="M235.062 121.467H234.371L234.371 109.706H235.062V121.467Z" fill="#2C1E21"/>
<path d="M203.305 36.5786H203.995V21.0131H203.305V36.5786Z" fill="#251C1D"/>
<path d="M116.316 36.5786H115.625L115.625 21.0133H116.316V36.5786Z" fill="#2C1E21"/>
<path d="M277.951 36.5786H278.642V21.0131H277.951V36.5786Z" fill="#251C1D"/>
<path d="M236.788 80.7014H236.098L236.098 65.5173H236.788V80.7014Z" fill="#2C1E21"/>
<path d="M308.761 80.7014H308.07V73.1543H308.761V80.7014ZM308.761 66.4595H308.07V65.5173H308.761V66.4595Z" fill="#251C1D"/>
<path d="M195.996 96.3314H196.687V81.4646H195.996V96.3314Z" fill="#2C1E21"/>
<path d="M154.4 52.7798H155.091V37.3411H154.4V52.7798Z" fill="#2C1E21"/>
<path d="M252.264 52.7798H252.954V37.3411H252.264V52.7798Z" fill="#251C1D"/>
<path d="M49.8086 48.2493V37.3406H50.4988V48.2482H49.8948C49.8661 48.2482 49.8373 48.2485 49.8086 48.2493Z" fill="#2C1E21"/>
<path d="M286.265 96.3314H285.574V83.3962C285.802 83.5605 286.038 83.7302 286.265 83.8952V96.3314Z" fill="#2C1E21"/>
<path d="M286.265 83.894C286.038 83.729 285.802 83.5593 285.574 83.395V81.4635H286.265V83.894Z" fill="#251C1D"/>
<path d="M86.1094 121.68H86.7996V106.496H86.1094V121.68Z" fill="#2C1E21"/>
<path d="M68.6788 174.539H67.9883V158.91H68.6788V159.037V159.799V174.539Z" fill="#2C1E21"/>
<path d="M194.886 37.3413H91.1514V36.579H192.598C192.679 36.6058 192.76 36.6326 192.841 36.6595C193.524 36.8851 194.205 37.1121 194.886 37.3413ZM84.6895 37.3413H50.4984H49.8082H40.9584V36.579H84.6895V37.3413ZM34.4961 37.3413H10.6289V36.579H34.4961V37.3413Z" fill="#2C1E21"/>
<path d="M294.808 37.3413H264.038V36.579H294.808V37.3413ZM257.576 37.3413H252.953H252.263H227.922V36.579H257.576V37.3413ZM210.087 37.3413H194.886C194.205 37.1121 193.524 36.8851 192.841 36.6595C192.76 36.6326 192.679 36.6058 192.598 36.579H203.303H203.993H210.087V37.3413Z" fill="#251C1D"/>
<path d="M282.863 81.4641H257.837V80.7018H281.774C282.139 80.956 282.5 81.2088 282.863 81.4641ZM240.002 81.4641H196.689H195.999H181.328V80.7018H195.999H196.689H236.098H236.789H240.002V81.4641Z" fill="#2C1E21"/>
<path d="M319.402 81.4641H308.027V80.7018H319.402V81.4641ZM290.192 81.4641H286.264H285.573H282.86C282.497 81.2088 282.136 80.956 281.771 80.7018H285.573H286.264H290.192V81.4641Z" fill="#251C1D"/>
<path d="M283.472 122.443H251.113V121.681H283.472V122.443ZM233.279 122.443H201.749H201.058H78.2266V121.681H86.1097H86.7999H233.279V122.443Z" fill="#2C1E21"/>
<path d="M308.028 85.4584H290.193V81.4636H308.028V85.4584ZM308.028 80.7013H290.193V78.7636H308.028V80.7013Z" fill="#3F252A"/>
<path d="M290.193 81.4641H308.028V80.7018H290.193V81.4641Z" fill="#2A1C1E"/>
<path d="M308.07 73.1545H308.761V66.4598H308.07V73.1545Z" fill="#2A1C1E"/>
<path d="M287.867 22.8511H301.05V16.1562H287.867V22.8511Z" fill="#3F252A"/>
<path d="M311.132 104.096H308.287V101.535C309.245 102.385 310.193 103.239 311.132 104.096Z" fill="#4B2C30"/>
<path d="M280.371 109.706H294.07V103.011H280.371V109.706Z" fill="#4B2C30"/>
<path d="M301.307 128.163H283.473V122.443H284.711V121.68H283.473V121.467H301.307V128.163Z" fill="#4B2C30"/>
<path d="M283.473 122.443H284.711V121.681H283.473V122.443Z" fill="#312022"/>
<path d="M257.835 85.4584H240V81.4636H257.835V85.4584ZM257.835 80.7013H240V78.7636H257.835V80.7013Z" fill="#4B2C30"/>
<path d="M240 81.4641H257.835V80.7018H240V81.4641Z" fill="#312022"/>
<path d="M227.924 39.0989H210.09V37.341H227.924V39.0989ZM227.924 36.5787H210.09V32.4041H227.924V36.5787Z" fill="#3F252A"/>
<path d="M210.09 37.3413H227.924V36.579H210.09V37.3413Z" fill="#2A1C1E"/>
<path d="M264.04 38.9563H257.578V37.3417H264.04V38.9563ZM264.04 36.5794H257.578V32.2615H264.04V36.5794Z" fill="#3F252A"/>
<path d="M257.578 37.3413H264.04V36.579H257.578V37.3413Z" fill="#2A1C1E"/>
<path d="M270.431 73.1545H257.578V66.4597H259.408C263.159 68.6383 266.832 70.8694 270.431 73.1545Z" fill="#4B2C30"/>
<path d="M270.759 73.1545H270.43C266.83 70.8694 263.157 68.6383 259.406 66.4597H270.759V73.1545Z" fill="#3F252A"/>
<path d="M254.732 144.628H272.568V137.934H254.732V144.628Z" fill="#4B2C30"/>
<path d="M258.094 104.096H271.793V97.4013H258.094V104.096Z" fill="#4B2C30"/>
<path d="M243.879 109.706H235.062V106.496H234.372V109.706H230.18V103.011H243.879V109.706Z" fill="#4B2C30"/>
<path d="M234.371 109.706H235.061V106.496H234.371V109.706Z" fill="#312022"/>
<path d="M241.552 57.0505H230.438V51.4455C234.199 53.1758 237.904 54.9601 241.552 56.7963V57.0505Z" fill="#4B2C30"/>
<path d="M241.552 56.796C237.904 54.9598 234.199 53.1755 230.438 51.4452V50.3551H241.552V56.796Z" fill="#3F252A"/>
<path d="M251.114 128.163H233.279V122.443H251.114V128.163ZM251.114 121.68H235.06V121.467H251.114V121.68ZM234.37 121.68H233.279V121.467H234.37V121.68Z" fill="#4B2C30"/>
<path d="M234.371 121.68H235.062V121.48H234.371V121.68Z" fill="#312022"/>
<path d="M251.114 122.443H233.279V121.681H251.114V122.443Z" fill="#312022"/>
<path d="M210.613 89.0052H228.448V82.3104H210.613V89.0052Z" fill="#4B2C30"/>
<path d="M259.129 194.027H276.964V187.332H259.129V194.027Z" fill="#4B2C30"/>
<path d="M67.1133 85.4584H84.9482V78.7636H67.1133V85.4584Z" fill="#4B2C30"/>
<path d="M91.1494 38.9563H84.6875V37.3417H91.1494V38.9563ZM91.1494 36.5794H84.6875V32.2615H91.1494V36.5794Z" fill="#4B2C30"/>
<path d="M84.6875 37.3413H91.1494V36.579H84.6875V37.3413Z" fill="#312022"/>
<path d="M84.6875 73.1545H97.8695V71.3082H84.6875V73.1545Z" fill="#4B2C30"/>
<path d="M77.9714 22.8511H64.7891V20.7966C69.1121 20.3516 73.5054 20.0187 77.9714 19.7985V22.8511Z" fill="#4B2C30"/>
<path d="M64.7891 20.7969V16.1566H77.9714V19.7988C73.5054 20.019 69.1121 20.3519 64.7891 20.7969Z" fill="#3F252A"/>
<path d="M81.8457 144.628H99.6803V137.934H81.8457V144.628Z" fill="#4B2C30"/>
<path d="M85.207 104.096H98.9066V97.4013H85.207V104.096Z" fill="#4B2C30"/>
<path d="M57.2891 109.706H70.9882V103.011H57.2891V109.706Z" fill="#4B2C30"/>
<path d="M91.1523 10.9095H102.267V4.21454H91.1523V10.9095Z" fill="#3F252A"/>
<path d="M78.2275 128.163H70.0736C69.5138 126.037 67.2516 125.48 67.8921 124.446C68.2619 123.848 69.5835 123.848 71.0561 123.848C71.0565 123.848 71.0572 123.848 71.0575 123.848C71.0724 123.848 71.0866 123.848 71.1014 123.848C73.0493 123.848 75.246 123.837 75.8466 122.443H78.2275V128.163ZM69.2783 128.163H60.3926V121.467H75.2054C75.2122 121.543 75.2125 121.614 75.2061 121.68H61.0267V122.443H67.3611C66.6104 122.609 66.0142 122.942 65.7086 123.553C64.5331 125.9 67.8059 125.959 69.2783 128.163ZM73.3346 122.548C72.785 122.548 72.1523 122.498 71.4898 122.443H74.4179C74.1198 122.519 73.751 122.548 73.3346 122.548ZM78.2275 121.68H76.0045C76.0068 121.608 76.0075 121.537 76.0072 121.467H78.2275V121.68Z" fill="#4B2C30"/>
<path d="M78.2282 122.443H75.8473C75.9409 122.226 75.996 121.975 76.0051 121.685C76.0051 121.684 76.0051 121.682 76.0051 121.681H78.2282V122.443ZM74.4186 122.443H71.4905C71.4083 122.436 71.3259 122.429 71.2427 122.422C70.4907 122.36 69.7089 122.297 68.973 122.297C68.3957 122.297 67.8465 122.335 67.3618 122.443H61.0273V121.681H75.2068C75.1679 122.095 74.8769 122.325 74.4186 122.443Z" fill="#312022"/>
<path d="M86.2422 194.027H104.077V187.332H86.2422V194.027Z" fill="#4B2C30"/>
<path d="M40.9583 38.9563H34.4961V37.3417H40.9583V38.9563ZM40.9583 36.5794H34.4961V32.2615H40.9583V36.5794Z" fill="#4B2C30"/>
<path d="M34.4961 37.3413H40.9582V36.579H34.4961V37.3413Z" fill="#312022"/>
<path d="M47.6788 73.1545H34.4961V66.4597H46.8561V68.0478C46.8561 68.9106 47.1684 69.6954 47.6788 70.2786V73.1545Z" fill="#4B2C30"/>
<path d="M31.6523 144.628H49.4872V137.934H31.6523V144.628Z" fill="#4B2C30"/>
<path d="M35.0137 104.096H48.7133V97.4013H35.0137V104.096Z" fill="#4B2C30"/>
<path d="M27.0205 162.619H9.18555V159.799H27.0205V162.619ZM27.0205 159.037H9.18555V155.924H27.0205V159.037Z" fill="#4B2C30"/>
<path d="M9.18555 159.799H27.0205V159.037H9.18555V159.799Z" fill="#312022"/>
<path d="M36.0469 194.027H53.8818V187.332H36.0469V194.027Z" fill="#4B2C30"/>
<path d="M113.768 123.51H120.37L118.462 139.889H111.859L113.768 123.51Z" fill="#E7DFB2"/>
<path d="M119.34 132.355L120.371 123.511H113.769L112.611 133.444L119.34 132.355Z" fill="#D4CA94"/>
<path d="M221.159 123.51H210.785L213.784 139.889H224.158L221.159 123.51Z" fill="#E7DFB2"/>
<path d="M222.976 133.433L221.159 123.51H210.785L212.314 131.861L222.976 133.433Z" fill="#D4CA94"/>
<path d="M217.405 136.918H208.219V139.817H217.405V136.918Z" fill="#F3EFCC"/>
<path d="M234.782 83.5064H194.444C193.149 83.5064 192.1 84.6329 192.1 86.0226V125.922C192.1 127.312 193.149 128.438 194.444 128.438H234.782C236.077 128.438 237.127 127.312 237.127 125.922V86.0226C237.127 84.6329 236.077 83.5064 234.782 83.5064Z" fill="#E2DBAE"/>
<path d="M234.795 83.507H210.517L209.955 84.8481L237.127 97.9607V86.0094C237.127 84.6273 236.082 83.507 234.795 83.507Z" fill="#D4CC9C"/>
<path d="M230.537 83.5064H195.043C193.417 83.5064 192.1 84.9205 192.1 86.6649V125.28C192.1 127.024 193.417 128.438 195.043 128.438H230.537C232.162 128.438 233.48 127.024 233.48 125.28V86.6649C233.48 84.9205 232.162 83.5064 230.537 83.5064Z" fill="#F3EFCC"/>
<path d="M231.468 83.5073H194.111C193 83.5073 192.1 84.4738 192.1 85.6656V120.612H233.48V85.6656C233.48 84.4738 232.58 83.5073 231.468 83.5073Z" fill="#674A4E"/>
<path d="M186.39 55.4002H143.776C142.438 55.4002 141.354 56.5637 141.354 57.9991V125.706C141.354 127.142 142.438 128.305 143.776 128.305H186.39C187.728 128.305 188.812 127.142 188.812 125.706V57.9991C188.812 56.5637 187.728 55.4002 186.39 55.4002Z" fill="#F3EFCC"/>
<path d="M186.017 59.4633H144.145V123.287H186.017V59.4633Z" fill="#64BDD3"/>
<path d="M179.692 64.0519H147.154V118.701H179.692V64.0519Z" fill="#544042"/>
<path d="M152.262 67.9632H151.301V69.1926H152.262V67.9632Z" fill="#FBF3D4"/>
<path d="M152.262 106.903H151.301V108.128H152.262V106.903Z" fill="#FBF3D4"/>
<path d="M155.144 106.903H152.77V108.128H155.144V106.903Z" fill="#FBF3D4"/>
<path d="M158.089 67.9632H152.654V69.1926H158.089V67.9632Z" fill="#FBF3D4"/>
<path d="M162.56 67.9632H159.008V69.1926H162.56V67.9632Z" fill="#FBF3D4"/>
<path d="M152.036 109.413H151.667L151.301 110.64H151.667L152.036 109.413Z" fill="#FBF3D4"/>
<path d="M155.851 70.1461H152.201V71.373H155.851V70.1461Z" fill="#FBF3D4"/>
<path d="M153.732 104.683H152.201V105.912H153.732V104.683Z" fill="#FBF3D4"/>
<path d="M156.438 104.683H154.262V105.912H156.438V104.683Z" fill="#FBF3D4"/>
<path d="M165.111 104.683H157.008V105.912H165.111V104.683Z" fill="#FBF3D4"/>
<path d="M159.492 72.6022H156.172V73.8317H159.492V72.6022Z" fill="#FBF3D4"/>
<path d="M163.476 72.6022H160.156V73.8317H163.476V72.6022Z" fill="#FBF3D4"/>
<path d="M164.641 72.6022H164.041V73.8317H164.641V72.6022Z" fill="#FBF3D4"/>
<path d="M166.072 72.6022H165.109V73.8317H166.072V72.6022Z" fill="#FBF3D4"/>
<path d="M166.602 70.1461H161.578V71.373H166.602V70.1461Z" fill="#FBF3D4"/>
<path d="M160.719 70.1461H156.52V71.373H160.719V70.1461Z" fill="#FBF3D4"/>
<path d="M158.362 74.7408H153.338V75.9673H158.362V74.7408Z" fill="#FBF3D4"/>
<path d="M154.789 76.9827H153.338V78.2114H154.789V76.9827Z" fill="#FBF3D4"/>
<path d="M157.968 76.9827H155.418V78.2114H157.968V76.9827Z" fill="#FBF3D4"/>
<path d="M160.953 76.9827H159.029V78.2114H160.953V76.9827Z" fill="#FBF3D4"/>
<path d="M163.348 76.9827H161.426V78.2114H163.348V76.9827Z" fill="#FBF3D4"/>
<path d="M157.538 79.3071H155.025V80.5361H157.538V79.3071Z" fill="#FBF3D4"/>
<path d="M165.936 79.3071H157.852V80.5361H165.936V79.3071Z" fill="#FBF3D4"/>
<path d="M155.849 81.6299H153.338V82.8579H155.849V81.6299Z" fill="#FBF3D4"/>
<path d="M157.576 81.6299H156.32V82.8579H157.576V81.6299Z" fill="#FBF3D4"/>
<path d="M162.72 81.6299H158.246V82.8579H162.72V81.6299Z" fill="#FBF3D4"/>
<path d="M156.714 83.9561H155.34V85.1848H156.714V83.9561Z" fill="#FBF3D4"/>
<path d="M157.774 83.9561H157.186V85.1848H157.774V83.9561Z" fill="#FBF3D4"/>
<path d="M160.049 83.9561H158.52V85.1848H160.049V83.9561Z" fill="#FBF3D4"/>
<path d="M164.132 83.9561H160.482V85.1848H164.132V83.9561Z" fill="#FBF3D4"/>
<path d="M166.485 83.9561H164.641V85.1848H166.485V83.9561Z" fill="#FBF3D4"/>
<path d="M172.607 83.9572L166.957 83.9561V85.1848H172.607V83.9572Z" fill="#FBF3D4"/>
<path d="M157.852 86.28H155.34V87.509H157.852V86.28Z" fill="#FBF3D4"/>
<path d="M160.324 86.28H158.637V87.509H160.324V86.28Z" fill="#FBF3D4"/>
<path d="M162.679 86.28H160.992V87.509H162.679V86.28Z" fill="#FBF3D4"/>
<path d="M161.659 88.6057H155.34V89.8323H161.659V88.6057Z" fill="#FBF3D4"/>
<path d="M165.547 88.6057H162.211V89.8323H165.547V88.6057Z" fill="#FBF3D4"/>
<path d="M155.849 90.9304H153.338V92.1555H155.849V90.9304Z" fill="#FBF3D4"/>
<path d="M158.324 90.9304H156.52V92.1555H158.324V90.9304Z" fill="#FBF3D4"/>
<path d="M163.21 90.9304H158.873V92.1555H163.21V90.9304Z" fill="#FBF3D4"/>
<path d="M165.682 90.9304H163.523V92.1555H165.682V90.9304Z" fill="#FBF3D4"/>
<path d="M171.509 90.9304H166.055V92.1555H171.509V90.9304Z" fill="#FBF3D4"/>
<path d="M157.852 93.2548H155.34V94.4839H157.852V93.2548Z" fill="#FBF3D4"/>
<path d="M160.735 93.2548H158.695V94.4839H160.735V93.2548Z" fill="#FBF3D4"/>
<path d="M162.799 93.2548H161.484V94.4839H162.799V93.2548Z" fill="#FBF3D4"/>
<path d="M168.154 93.2548H163.543V94.4839H168.154V93.2548Z" fill="#FBF3D4"/>
<path d="M169.979 93.2548H168.664V94.4839H169.979V93.2548Z" fill="#FBF3D4"/>
<path d="M159.422 95.5791H155.34V96.8057H159.422V95.5791Z" fill="#FBF3D4"/>
<path d="M162.601 95.5791H160.09V96.8057H162.601V95.5791Z" fill="#FBF3D4"/>
<path d="M166.526 95.5791H163.191V96.8057H166.526V95.5791Z" fill="#FBF3D4"/>
<path d="M174.532 95.5791H167.037V96.8057H174.532V95.5791Z" fill="#FBF3D4"/>
<path d="M157.852 97.9033H155.34V99.1299H157.852V97.9033Z" fill="#FBF3D4"/>
<path d="M161.11 97.9033H158.598V99.1299H161.11V97.9033Z" fill="#FBF3D4"/>
<path d="M164.446 97.9033H161.816V99.1299H164.446V97.9033Z" fill="#FBF3D4"/>
<path d="M166.446 97.9033H164.955V99.1299H166.446V97.9033Z" fill="#FBF3D4"/>
<path d="M155.849 100.23H153.338V101.457H155.849V100.23Z" fill="#FBF3D4"/>
<path d="M159.855 100.23H156.205V101.457H159.855V100.23Z" fill="#FBF3D4"/>
<path d="M157.911 102.498H155.34V103.725H157.911V102.498Z" fill="#FBF3D4"/>
<path d="M160.56 102.498H158.686V103.725H160.56V102.498Z" fill="#FBF3D4"/>
<path d="M162.522 102.498H161.354V103.725H162.522V102.498Z" fill="#FBF3D4"/>
<path d="M162.169 100.23H160.402V101.457H162.169V100.23Z" fill="#FBF3D4"/>
<path d="M165.466 100.23H162.68V101.457H165.466V100.23Z" fill="#FBF3D4"/>
<path d="M160.717 74.7408H159.305V75.9673H160.717V74.7408Z" fill="#FBF3D4"/>
<path d="M125.095 137.28H116.359V139.744H125.095V137.28Z" fill="#F3EFCC"/>
<path d="M135.2 77.081H97.7958C96.7848 77.081 95.9648 77.9601 95.9648 79.0452V126.715C95.9648 127.8 96.7848 128.679 97.7958 128.679H135.2C136.211 128.679 137.03 127.8 137.03 126.715V79.0452C137.03 77.9601 136.211 77.081 135.2 77.081Z" fill="#E2DBAE"/>
<path d="M95.9648 78.9465V89.9237L124.709 83.9542L123.469 77.0806H97.7042C96.7436 77.0806 95.9648 77.9162 95.9648 78.9465Z" fill="#D4CC9C"/>
<path d="M135.197 77.081H100.405C99.3939 77.081 98.5742 77.9601 98.5742 79.0452V126.715C98.5742 127.8 99.3939 128.679 100.405 128.679H135.197C136.208 128.679 137.028 127.8 137.028 126.715V79.0452C137.028 77.9601 136.208 77.081 135.197 77.081Z" fill="#F3EFCC"/>
<path d="M135.486 77.0808H100.116C99.2644 77.0808 98.5742 77.8217 98.5742 78.7356V121.191H137.028V78.7353C137.028 77.8217 136.338 77.0808 135.486 77.0808Z" fill="#674A4E"/>
<path d="M135.198 79.0135H100.883V121.191H135.198V79.0135Z" fill="#64BDD3"/>
<path d="M129.779 79.0135H121.97L106.305 121.191H118.519L129.779 79.0135Z" fill="#85D3DF"/>
<path d="M238.752 140.131H92.5859V200.193H238.752V140.131Z" fill="#6E333F"/>
<path d="M92.0664 140.13V184.965H93.6526C93.6462 184.775 93.6378 184.586 93.6378 184.395C93.6378 164.817 126.079 150.179 166.098 150.179C206.116 150.179 238.557 164.817 238.557 184.395C238.557 184.586 238.549 184.775 238.542 184.965H240.128V140.13H92.0664Z" fill="#602736"/>
<path d="M240.934 140.711H237.717V200.086H240.934V140.711Z" fill="#7A414A"/>
<path d="M93.6201 140.711H90.4023V200.086H93.6201V140.711Z" fill="#7A414A"/>
<path d="M175.791 102.295C184.551 107.41 194.672 120.998 194.915 132.503C195.068 139.785 187.243 139.744 180.488 139.744C173.734 139.744 175.791 102.295 175.791 102.295Z" fill="#FAB64A"/>
<path d="M193.742 134.338C188.905 135.978 181.818 128.503 177.913 117.64C176.672 114.187 175.903 110.808 175.585 107.751C175.311 118.14 175.358 139.744 180.489 139.744C186.83 139.744 194.116 139.779 194.855 133.756C194.511 134.003 194.142 134.202 193.742 134.338Z" fill="#F7933F"/>
<path d="M145.601 102.861C136.828 107.899 126.674 121.282 126.404 132.613C126.233 139.785 136.941 139.744 143.695 139.744C150.449 139.744 145.601 102.861 145.601 102.861Z" fill="#FAB64A"/>
<path d="M146.432 110.472C145.941 113.537 144.949 116.931 143.459 120.349C139.149 130.234 132.313 136.57 128.191 134.501C127.462 134.135 126.869 133.526 126.406 132.724C126.351 139.781 136.976 139.744 143.694 139.744C148.475 139.744 147.444 121.271 146.432 110.472Z" fill="#F7933F"/>
<path d="M249.782 138.971H81.5527V141.677H249.782V138.971Z" fill="#994B5D"/>
<path d="M167.108 92.9211C167.859 91.8186 168.878 91.5295 169.383 92.2755C169.888 93.0212 169.688 94.5197 168.937 95.6222C168.186 96.7247 167.167 97.0138 166.662 96.2681C166.157 95.5221 166.356 94.0236 167.108 92.9211Z" fill="#F5B773"/>
<path d="M158.398 92.9204C157.646 91.8182 156.627 91.5296 156.122 92.2759C155.618 93.0219 155.818 94.5205 156.57 95.6226C157.322 96.7248 158.34 97.0134 158.845 96.2671C159.35 95.5211 159.15 94.0225 158.398 92.9204Z" fill="#F5B773"/>
<path d="M167.423 94.6675H158.058L157.652 101.286H167.829L167.423 94.6675Z" fill="#E36041"/>
<path d="M169.721 100.996C169.721 99.7957 166.536 98.8223 162.606 98.8223C158.677 98.8223 155.492 99.7957 155.492 100.996C155.492 102.197 158.677 103.171 162.606 103.171C166.536 103.171 169.721 102.197 169.721 100.996Z" fill="#E7DFB2"/>
<path d="M158.267 96.3724C156.155 91.7343 156.554 86.4248 156.891 85.2668C157.879 81.8647 166.3 81.0915 168.231 84.6739C169.08 86.2504 169.017 93.6912 167.072 96.5429C165.128 99.3941 159.293 98.6253 158.267 96.3724Z" fill="#CC1F29"/>
<path d="M182.553 144.527H145.27V164.819H182.553V144.527Z" fill="#43202B"/>
<path d="M184.748 196.235C190.471 180.857 197.2 157.726 185.118 147.438C178.126 141.484 172.289 146.622 169.121 150.819C167.431 153.06 167.172 156.301 168.478 159.245L184.748 196.235Z" fill="#562435"/>
<path d="M190.962 165.539C186.543 166.707 180.95 158.896 178.47 148.092C178.213 146.974 178.002 145.87 177.831 144.784C174.13 145.199 171.104 148.193 169.122 150.819C167.431 153.06 167.172 156.301 168.478 159.245L184.748 196.235C188.123 187.165 191.845 175.399 191.855 165.161C191.571 165.326 191.274 165.456 190.962 165.539Z" fill="#43202B"/>
<path d="M146.422 195.454C138.963 180.609 129.362 159.295 140.174 147.737C146.431 141.049 152.82 145.607 156.451 149.495C158.389 151.57 159.02 154.796 158.063 157.884L146.422 195.454Z" fill="#562435"/>
<path d="M156.451 149.495C153.498 146.334 148.722 142.73 143.676 145.089C144.276 148.049 144.262 151.797 143.493 155.739C142.217 162.281 139.236 167.433 136.156 169.001C137.98 178.034 142.496 187.64 146.422 195.454L158.063 157.884C159.02 154.796 158.388 151.57 156.451 149.495Z" fill="#43202B"/>
<path d="M149.609 196.232C148.836 196.446 148.373 197.422 148.574 198.411C148.776 199.401 149.565 200.03 150.338 199.816C151.11 199.602 151.574 198.626 151.372 197.636C151.171 196.647 150.381 196.017 149.609 196.232Z" fill="#F3EFCC"/>
<path d="M162.372 196.415C161.575 196.439 160.954 197.194 160.986 198.103C161.017 199.012 161.689 199.73 162.486 199.706C163.283 199.683 163.903 198.927 163.872 198.018C163.84 197.109 163.169 196.391 162.372 196.415Z" fill="#F3EFCC"/>
<path d="M176.007 196.415C175.352 196.439 174.842 197.194 174.868 198.103C174.894 199.012 175.446 199.73 176.1 199.706C176.755 199.683 177.265 198.927 177.239 198.018C177.213 197.109 176.662 196.391 176.007 196.415Z" fill="#F3EFCC"/>
<path d="M164.002 168.925H161.57L162.179 191.729H163.393L164.002 168.925Z" fill="#A5415B"/>
<path d="M174.63 167.573H150.943C150.571 167.573 150.27 167.896 150.27 168.295V170.33C150.27 170.728 150.571 171.052 150.943 171.052H174.63C175.001 171.052 175.302 170.728 175.302 170.33V168.295C175.302 167.896 175.001 167.573 174.63 167.573Z" fill="#A5415B"/>
<path d="M177.028 162.451H148.545C147.781 162.451 147.162 163.116 147.162 163.935V168.118C147.162 168.937 147.781 169.602 148.545 169.602H177.028C177.792 169.602 178.411 168.937 178.411 168.118V163.935C178.411 163.116 177.792 162.451 177.028 162.451Z" fill="#DC1352"/>
<path d="M176.444 162.451H149.13C148.81 162.451 148.551 162.729 148.551 163.072V164.822C148.551 165.165 148.81 165.443 149.13 165.443H176.444C176.764 165.443 177.023 165.165 177.023 164.822V163.072C177.023 162.729 176.764 162.451 176.444 162.451Z" fill="#EE1B64"/>
<path d="M162.425 157.427C150.716 158.006 144.42 149.373 144.054 145.252C143.687 141.132 143.622 104.172 145.6 102.875C151.191 99.2066 172.353 99.2066 176.053 102.324C179.753 105.442 182.307 135.931 181.476 145.238C180.932 151.34 175.41 156.786 162.425 157.427Z" fill="#FAB64A"/>
<path d="M162.896 128.15C154.967 128.15 148.017 123.431 144.122 116.349C142.768 127.859 143.826 142.72 144.051 145.253C144.418 149.373 150.714 158.006 162.423 157.427C175.408 156.786 180.929 151.34 181.474 145.238C181.931 140.125 182.077 128.947 180.15 118.773C176.103 124.486 169.88 128.15 162.896 128.15Z" fill="#F7933F"/>
<path d="M230.239 86.3336H194.172V120.612H230.239V86.3336Z" fill="#64BDD3"/>
<path d="M225.752 86.3336H211.179L198.652 120.612H216.003L225.752 86.3336Z" fill="#85D3DF"/>
<path d="M175.267 112.636C174.28 109.532 171.909 107.477 169.247 107.467L156.557 107.423C154.079 107.414 151.789 109.166 150.708 111.972C146.384 123.204 144.918 137.063 145.52 154.917C145.571 156.447 146.528 157.658 147.698 157.662L177.987 157.773C179.192 157.777 180.173 156.503 180.186 154.927C180.326 137.426 178.836 123.862 175.267 112.636Z" fill="#EE1B64"/>
<path d="M174.797 114.455C173.847 111.476 171.565 109.503 169.005 109.495L156.795 109.452C154.41 109.443 152.207 111.125 151.167 113.818C147.006 124.597 145.596 137.897 146.175 155.032C146.225 156.5 147.145 157.662 148.271 157.666L177.415 157.773C178.574 157.777 179.518 156.555 179.53 155.042C179.665 138.245 178.231 125.229 174.797 114.455Z" fill="#DC1352"/>
<path d="M164.048 155.301H161.539V163.707H164.048V155.301Z" fill="#D4CA94"/>
<path d="M159.215 153.223C159.215 155.345 160.818 157.064 162.795 157.064C164.772 157.064 166.374 155.345 166.374 153.223C166.374 151.103 164.772 149.382 162.795 149.382C160.818 149.382 159.215 151.103 159.215 153.223Z" fill="#F3EFCC"/>
<path d="M160.441 163.442C160.441 164.834 161.493 165.963 162.791 165.963C164.088 165.963 165.14 164.834 165.14 163.442C165.14 162.05 164.088 160.921 162.791 160.921C161.493 160.921 160.441 162.05 160.441 163.442Z" fill="#F3EFCC"/>
<path d="M160.545 153.223C160.545 154.555 161.551 155.635 162.793 155.635C164.035 155.635 165.041 154.555 165.041 153.223C165.041 151.891 164.035 150.811 162.793 150.811C161.551 150.811 160.545 151.891 160.545 153.223Z" fill="#DC1352"/>
<path d="M161.523 163.441C161.523 164.193 162.092 164.803 162.792 164.803C163.493 164.803 164.061 164.193 164.061 163.441C164.061 162.69 163.493 162.08 162.792 162.08C162.092 162.08 161.523 162.69 161.523 163.441Z" fill="#DC1352"/>
<path d="M188.261 199.858H184.58C184.58 199.858 182.877 195.442 184.571 194.894C186.265 194.347 186.195 198.398 186.195 198.398L188.261 199.858Z" fill="#D4CA94"/>
<path d="M143.074 199.858H146.755C146.755 199.858 148.459 195.442 146.764 194.894C145.07 194.347 145.141 198.398 145.141 198.398L143.074 199.858Z" fill="#D4CA94"/>
<path d="M174.945 191.585H150.633C149.737 191.585 149.012 194.296 149.012 195.257H176.566C176.566 194.296 175.84 191.585 174.945 191.585Z" fill="#A5415B"/>
<path d="M169.023 189.748H156.55C156.091 189.748 155.719 191.782 155.719 192.502H169.855C169.855 191.782 169.483 189.748 169.023 189.748Z" fill="#A5415B"/>
<path d="M214.375 124.154H206.384C206.297 124.154 206.227 124.23 206.227 124.324V124.8C206.227 124.894 206.297 124.969 206.384 124.969H214.375C214.462 124.969 214.533 124.894 214.533 124.8V124.324C214.533 124.23 214.462 124.154 214.375 124.154Z" fill="#D4CA94"/>
<path d="M123.66 124.154H115.67C115.582 124.154 115.512 124.23 115.512 124.324V124.8C115.512 124.894 115.582 124.969 115.67 124.969H123.66C123.747 124.969 123.818 124.894 123.818 124.8V124.324C123.818 124.23 123.747 124.154 123.66 124.154Z" fill="#D4CA94"/>
<path d="M126.223 82.6367H102.629V119.065H126.223V82.6367Z" fill="#544042"/>
<path d="M213.034 97.0342H196.645V119.065H213.034V97.0342Z" fill="#544042"/>
<path d="M228.166 87.9524H215.648V104.089H228.166V87.9524Z" fill="#544042"/>
<path d="M198.704 99.9237H198.148V100.598H198.704V99.9237Z" fill="#FBF3D4"/>
<path d="M202.073 99.9237H198.93V100.598H202.073V99.9237Z" fill="#FBF3D4"/>
<path d="M204.66 99.9237H202.605V100.598H204.66V99.9237Z" fill="#FBF3D4"/>
<path d="M200.779 101.123H198.668V101.797H200.779V101.123Z" fill="#FBF3D4"/>
<path d="M202.885 102.472H200.965V103.146H202.885V102.472Z" fill="#FBF3D4"/>
<path d="M205.189 102.472H203.27V103.146H205.189V102.472Z" fill="#FBF3D4"/>
<path d="M205.862 102.472H205.516V103.146H205.862V102.472Z" fill="#FBF3D4"/>
<path d="M206.691 102.472H206.135V103.146H206.691V102.472Z" fill="#FBF3D4"/>
<path d="M206.999 101.123H204.094V101.797H206.999V101.123Z" fill="#FBF3D4"/>
<path d="M203.597 101.123H201.168V101.797H203.597V101.123Z" fill="#FBF3D4"/>
<path d="M202.233 103.647H199.328V104.321H202.233V103.647Z" fill="#FBF3D4"/>
<path d="M200.167 104.879H199.328V105.553H200.167V104.879Z" fill="#FBF3D4"/>
<path d="M202.004 104.879H200.529V105.553H202.004V104.879Z" fill="#FBF3D4"/>
<path d="M203.732 104.879H202.619V105.553H203.732V104.879Z" fill="#FBF3D4"/>
<path d="M205.116 104.879H204.004V105.553H205.116V104.879Z" fill="#FBF3D4"/>
<path d="M201.755 106.156H200.303V106.83H201.755V106.156Z" fill="#FBF3D4"/>
<path d="M206.613 106.156H201.938V106.83H206.613V106.156Z" fill="#FBF3D4"/>
<path d="M200.779 107.431H199.328V108.107H200.779V107.431Z" fill="#FBF3D4"/>
<path d="M201.78 107.431H201.055V108.107H201.78V107.431Z" fill="#FBF3D4"/>
<path d="M204.755 107.431H202.168V108.107H204.755V107.431Z" fill="#FBF3D4"/>
<path d="M201.282 108.71H200.486V109.385H201.282V108.71Z" fill="#FBF3D4"/>
<path d="M201.89 108.71H201.551V109.385H201.89V108.71Z" fill="#FBF3D4"/>
<path d="M203.209 108.71H202.324V109.385H203.209V108.71Z" fill="#FBF3D4"/>
<path d="M205.572 108.71H203.461V109.385H205.572V108.71Z" fill="#FBF3D4"/>
<path d="M206.929 108.71H205.863V109.385H206.929V108.71Z" fill="#FBF3D4"/>
<path d="M210.471 108.711L207.203 108.71V109.385H210.471V108.711Z" fill="#FBF3D4"/>
<path d="M201.939 109.986H200.486V110.661H201.939V109.986Z" fill="#FBF3D4"/>
<path d="M203.369 109.986H202.393V110.661H203.369V109.986Z" fill="#FBF3D4"/>
<path d="M204.729 109.986H203.754V110.661H204.729V109.986Z" fill="#FBF3D4"/>
<path d="M204.141 111.264H200.486V111.937H204.141V111.264Z" fill="#FBF3D4"/>
<path d="M206.386 111.264H204.457V111.937H206.386V111.264Z" fill="#FBF3D4"/>
<path d="M200.779 112.54H199.328V113.215H200.779V112.54Z" fill="#FBF3D4"/>
<path d="M202.211 112.54H201.168V113.215H202.211V112.54Z" fill="#FBF3D4"/>
<path d="M205.036 112.54H202.527V113.215H205.036V112.54Z" fill="#FBF3D4"/>
<path d="M206.466 112.54H205.217V113.215H206.466V112.54Z" fill="#FBF3D4"/>
<path d="M209.837 112.54H206.682V113.215L209.837 113.214V112.54Z" fill="#FBF3D4"/>
<path d="M201.939 113.818H200.486V114.492H201.939V113.818Z" fill="#FBF3D4"/>
<path d="M203.607 113.818H202.428V114.492H203.607V113.818Z" fill="#FBF3D4"/>
<path d="M204.799 113.818H204.039V114.492H204.799V113.818Z" fill="#FBF3D4"/>
<path d="M207.894 113.818H205.227V114.492H207.894V113.818Z" fill="#FBF3D4"/>
<path d="M208.95 113.818H208.189V114.492H208.95V113.818Z" fill="#FBF3D4"/>
<path d="M202.847 115.094H200.486V115.768H202.847V115.094Z" fill="#FBF3D4"/>
<path d="M204.683 115.094H203.23V115.768H204.683V115.094Z" fill="#FBF3D4"/>
<path d="M206.954 115.094H205.025V115.768H206.954V115.094Z" fill="#FBF3D4"/>
<path d="M208.939 115.094H207.25V115.768H208.939V115.094Z" fill="#FBF3D4"/>
<path d="M210.118 115.094H209.391V115.768H210.118V115.094Z" fill="#FBF3D4"/>
<path d="M201.939 116.371H200.486V117.044H201.939V116.371Z" fill="#FBF3D4"/>
<path d="M203.822 116.371H202.369V117.044H203.822V116.371Z" fill="#FBF3D4"/>
<path d="M203.594 103.647H202.777V104.321H203.594V103.647Z" fill="#FBF3D4"/>
<path d="M216.933 89.7465H216.529V90.5135H216.933V89.7465Z" fill="#FBF3D4"/>
<path d="M219.375 89.7465H217.096V90.5135H219.375V89.7465Z" fill="#FBF3D4"/>
<path d="M221.251 89.7465H219.762V90.5135H221.251V89.7465Z" fill="#FBF3D4"/>
<path d="M218.437 91.1086H216.906V91.8752H218.437V91.1086Z" fill="#FBF3D4"/>
<path d="M219.966 92.6425H218.574V93.4088H219.966V92.6425Z" fill="#FBF3D4"/>
<path d="M221.634 92.6425H220.242V93.4088H221.634V92.6425Z" fill="#FBF3D4"/>
<path d="M222.125 92.6425H221.871V93.4088H222.125V92.6425Z" fill="#FBF3D4"/>
<path d="M222.722 92.6425H222.318V93.4088H222.722V92.6425Z" fill="#FBF3D4"/>
<path d="M222.946 91.1086H220.84V91.8752H222.946V91.1086Z" fill="#FBF3D4"/>
<path d="M220.477 91.1086H218.717V91.8752H220.477V91.1086Z" fill="#FBF3D4"/>
<path d="M219.489 93.9775H217.383V94.7434H219.489V93.9775Z" fill="#FBF3D4"/>
<path d="M217.991 95.3781H217.383V96.144H217.991V95.3781Z" fill="#FBF3D4"/>
<path d="M219.328 95.3781H218.258V96.144H219.328V95.3781Z" fill="#FBF3D4"/>
<path d="M220.576 95.3781H219.77V96.144H220.576V95.3781Z" fill="#FBF3D4"/>
<path d="M221.58 95.3781H220.773V96.144H221.58V95.3781Z" fill="#FBF3D4"/>
<path d="M219.143 96.8278H218.09V97.5948H219.143V96.8278Z" fill="#FBF3D4"/>
<path d="M222.667 96.8278H219.277V97.5948H222.667V96.8278Z" fill="#FBF3D4"/>
<path d="M218.435 98.2784H217.383V99.0461H218.435V98.2784Z" fill="#FBF3D4"/>
<path d="M219.163 98.2784H218.637V99.0461H219.163V98.2784Z" fill="#FBF3D4"/>
<path d="M221.317 98.2784H219.441V99.0461H221.317V98.2784Z" fill="#FBF3D4"/>
<path d="M218.799 99.7321H218.223V100.499H218.799V99.7321Z" fill="#FBF3D4"/>
<path d="M219.248 99.7321H219V100.499H219.248V99.7321Z" fill="#FBF3D4"/>
<path d="M220.199 99.7321H219.557V100.499H220.199V99.7321Z" fill="#FBF3D4"/>
<path d="M221.909 99.7321H220.379V100.499H221.909V99.7321Z" fill="#FBF3D4"/>
<path d="M222.898 99.7321H222.125V100.499H222.898V99.7321Z" fill="#FBF3D4"/>
<path d="M225.463 99.7328L223.094 99.7321V100.499H225.463V99.7328Z" fill="#FBF3D4"/>
<path d="M220.479 93.9775H219.887V94.7434H220.479V93.9775Z" fill="#FBF3D4"/>
<path d="M105.72 85.2865H104.949V86.3237H105.72V85.2865Z" fill="#FBF3D4"/>
<path d="M110.392 85.2865H106.035V86.3237H110.392V85.2865Z" fill="#FBF3D4"/>
<path d="M113.977 85.2865H111.129V86.3237H113.977V85.2865Z" fill="#FBF3D4"/>
<path d="M108.598 87.1289H105.672V88.1643H108.598V87.1289Z" fill="#FBF3D4"/>
<path d="M111.517 89.2012H108.855V90.2391H111.517V89.2012Z" fill="#FBF3D4"/>
<path d="M114.712 89.2012H112.051V90.2391H114.712V89.2012Z" fill="#FBF3D4"/>
<path d="M115.645 89.2012H115.164V90.2391H115.645V89.2012Z" fill="#FBF3D4"/>
<path d="M116.791 89.2012H116.02V90.2391H116.791V89.2012Z" fill="#FBF3D4"/>
<path d="M117.218 87.1289H113.191V88.1643H117.218V87.1289Z" fill="#FBF3D4"/>
<path d="M112.499 87.1289H109.133V88.1643H112.499V87.1289Z" fill="#FBF3D4"/>
<path d="M110.614 91.0071H106.586V92.0425H110.614V91.0071Z" fill="#FBF3D4"/>
<path d="M107.75 92.8997H106.586V93.9373H107.75V92.8997Z" fill="#FBF3D4"/>
<path d="M110.296 92.8997H108.252V93.9373H110.296V92.8997Z" fill="#FBF3D4"/>
<path d="M112.686 92.8997H111.145V93.9373H112.686V92.8997Z" fill="#FBF3D4"/>
<path d="M114.605 92.8997H113.064V93.9373H114.605V92.8997Z" fill="#FBF3D4"/>
<path d="M109.951 94.8615H107.938V95.899H109.951V94.8615Z" fill="#FBF3D4"/>
<path d="M116.684 94.8615H110.203V95.899H116.684V94.8615Z" fill="#FBF3D4"/>
<path d="M108.599 96.8235H106.586V97.86H108.599V96.8235Z" fill="#FBF3D4"/>
<path d="M109.982 96.8235H108.977V97.86H109.982V96.8235Z" fill="#FBF3D4"/>
<path d="M114.104 96.8235H110.518V97.86H114.104V96.8235Z" fill="#FBF3D4"/>
<path d="M109.289 98.7864H108.188V99.824H109.289V98.7864Z" fill="#FBF3D4"/>
<path d="M110.14 98.7864H109.668V99.824H110.14V98.7864Z" fill="#FBF3D4"/>
<path d="M111.965 98.7864H110.738V99.824H111.965V98.7864Z" fill="#FBF3D4"/>
<path d="M115.238 98.7864H112.312V99.824H115.238V98.7864Z" fill="#FBF3D4"/>
<path d="M117.125 98.7864H115.646V99.824H117.125V98.7864Z" fill="#FBF3D4"/>
<path d="M122.031 98.7878L117.502 98.7864V99.824H122.031V98.7878Z" fill="#FBF3D4"/>
<path d="M110.201 100.749H108.188V101.787H110.201V100.749Z" fill="#FBF3D4"/>
<path d="M112.184 100.749H110.832V101.787H112.184V100.749Z" fill="#FBF3D4"/>
<path d="M114.071 100.749H112.719V101.787H114.071V100.749Z" fill="#FBF3D4"/>
<path d="M113.253 102.713H108.188V103.748H113.253V102.713Z" fill="#FBF3D4"/>
<path d="M116.369 102.713H113.695V103.748H116.369V102.713Z" fill="#FBF3D4"/>
<path d="M108.599 104.675H106.586V105.71H108.599V104.675Z" fill="#FBF3D4"/>
<path d="M110.58 104.675H109.133V105.71H110.58V104.675Z" fill="#FBF3D4"/>
<path d="M114.498 104.675H111.021V105.71H114.498V104.675Z" fill="#FBF3D4"/>
<path d="M116.478 104.675H114.748V105.71H116.478V104.675Z" fill="#FBF3D4"/>
<path d="M121.15 104.675H116.777V105.71H121.15V104.675Z" fill="#FBF3D4"/>
<path d="M110.201 106.637H108.188V107.675H110.201V106.637Z" fill="#FBF3D4"/>
<path d="M112.514 106.637H110.879V107.675H112.514V106.637Z" fill="#FBF3D4"/>
<path d="M114.165 106.637H113.111V107.675H114.165V106.637Z" fill="#FBF3D4"/>
<path d="M118.46 106.637H114.764V107.675H118.46V106.637Z" fill="#FBF3D4"/>
<path d="M119.926 106.637H118.871V107.675H119.926V106.637Z" fill="#FBF3D4"/>
<path d="M111.46 108.599H108.188V109.634H111.46V108.599Z" fill="#FBF3D4"/>
<path d="M114.009 108.599H111.996V109.634H114.009V108.599Z" fill="#FBF3D4"/>
<path d="M117.153 108.599H114.48V109.634H117.153V108.599Z" fill="#FBF3D4"/>
<path d="M123.574 108.599H117.566V109.634H123.574V108.599Z" fill="#FBF3D4"/>
<path d="M110.201 110.56H108.188V111.596H110.201V110.56Z" fill="#FBF3D4"/>
<path d="M112.813 110.56H110.799V111.596H112.813V110.56Z" fill="#FBF3D4"/>
<path d="M115.487 110.56H113.379V111.596H115.487V110.56Z" fill="#FBF3D4"/>
<path d="M117.094 110.56H115.898V111.596H117.094V110.56Z" fill="#FBF3D4"/>
<path d="M108.599 112.525H106.586V113.56H108.599V112.525Z" fill="#FBF3D4"/>
<path d="M111.807 112.525H108.881V113.56H111.807V112.525Z" fill="#FBF3D4"/>
<path d="M113.663 112.525H112.246V113.56H113.663V112.525Z" fill="#FBF3D4"/>
<path d="M116.304 112.525H114.07V113.56H116.304V112.525Z" fill="#FBF3D4"/>
<path d="M112.499 91.0071H111.367V92.0425H112.499V91.0071Z" fill="#FBF3D4"/>
<path d="M118.42 56.9696H99.8242V34.8332H100.823V56.002H118.42V56.9696Z" fill="#F3EFCC"/>
<path d="M130.151 55.7594H129.152V38.7032H130.151V55.7594Z" fill="#F3EFCC"/>
<path d="M161.128 27.8164H134.203V26.8488H161.128V27.8164Z" fill="#F3EFCC"/>
<path d="M241.222 59.4199H214.297V58.4523H241.222V59.4199Z" fill="#F3EFCC"/>
<path d="M206.169 57.0967H205.171V34.8391H177.645V33.8715H206.169V57.0967Z" fill="#F3EFCC"/>
<path d="M219.136 48.1423H196.047V77.4153H219.136V48.1423Z" fill="#F3EFCC"/>
<path d="M218.597 50.6835H196.584V76.7341H218.597V50.6835Z" fill="#5C3540"/>
<path d="M199.623 52.9888H198.922V53.6398H199.623V52.9888Z" fill="#FBF3D4"/>
<path d="M199.623 73.6421H198.922V74.2927H199.623V73.6421Z" fill="#FBF3D4"/>
<path d="M201.728 73.6421H199.996V74.2927H201.728V73.6421Z" fill="#FBF3D4"/>
<path d="M203.874 52.9888H199.91V53.6398H203.874V52.9888Z" fill="#FBF3D4"/>
<path d="M207.134 52.9888H204.545V53.6398H207.134V52.9888Z" fill="#FBF3D4"/>
<path d="M199.458 74.9737H199.191L198.922 75.625H199.191L199.458 74.9737Z" fill="#FBF3D4"/>
<path d="M202.243 54.1469H199.582V54.7986H202.243V54.1469Z" fill="#FBF3D4"/>
<path d="M200.698 72.4662H199.582V73.1172H200.698V72.4662Z" fill="#FBF3D4"/>
<path d="M202.674 72.4662H201.086V73.1172H202.674V72.4662Z" fill="#FBF3D4"/>
<path d="M208.998 72.4662H203.09V73.1172H208.998V72.4662Z" fill="#FBF3D4"/>
<path d="M204.901 55.449H202.48V56.1011H204.901V55.449Z" fill="#FBF3D4"/>
<path d="M207.803 55.449H205.383V56.1011H207.803V55.449Z" fill="#FBF3D4"/>
<path d="M208.652 55.449H208.215V56.1011H208.652V55.449Z" fill="#FBF3D4"/>
<path d="M209.696 55.449H208.994V56.1011H209.696V55.449Z" fill="#FBF3D4"/>
<path d="M210.084 54.1469H206.422V54.7986H210.084V54.1469Z" fill="#FBF3D4"/>
<path d="M205.791 54.1469H202.73V54.7986H205.791V54.1469Z" fill="#FBF3D4"/>
<path d="M204.077 56.5838H200.414V57.2351H204.077V56.5838Z" fill="#FBF3D4"/>
<path d="M201.472 57.7736H200.414V58.4246H201.472V57.7736Z" fill="#FBF3D4"/>
<path d="M203.787 57.7736H201.926V58.4246H203.787V57.7736Z" fill="#FBF3D4"/>
<path d="M205.963 57.7736H204.561V58.4246H205.963V57.7736Z" fill="#FBF3D4"/>
<path d="M207.709 57.7736H206.307V58.4246H207.709V57.7736Z" fill="#FBF3D4"/>
<path d="M203.472 59.0055H201.641V59.6572H203.472V59.0055Z" fill="#FBF3D4"/>
<path d="M209.597 59.0055H203.703V59.6572H209.597V59.0055Z" fill="#FBF3D4"/>
<path d="M202.245 60.2375H200.414V60.8895H202.245V60.2375Z" fill="#FBF3D4"/>
<path d="M203.501 60.2375H202.586V60.8895H203.501V60.2375Z" fill="#FBF3D4"/>
<path d="M207.25 60.2375H203.988V60.8895H207.25V60.2375Z" fill="#FBF3D4"/>
<path d="M202.873 61.4725H201.871V62.1228H202.873V61.4725Z" fill="#FBF3D4"/>
<path d="M203.644 61.4725H203.215V62.1228H203.644V61.4725Z" fill="#FBF3D4"/>
<path d="M205.304 61.4725H204.188V62.1228H205.304V61.4725Z" fill="#FBF3D4"/>
<path d="M208.282 61.4725H205.621V62.1228H208.282V61.4725Z" fill="#FBF3D4"/>
<path d="M209.998 61.4725H208.654V62.1228H209.998V61.4725Z" fill="#FBF3D4"/>
<path d="M214.464 61.4725H210.344V62.1228H214.464V61.4725Z" fill="#FBF3D4"/>
<path d="M203.703 62.7045H201.871V63.3555H203.703V62.7045Z" fill="#FBF3D4"/>
<path d="M205.503 62.7045H204.273V63.3555H205.503V62.7045Z" fill="#FBF3D4"/>
<path d="M207.221 62.7045H205.992V63.3555H207.221V62.7045Z" fill="#FBF3D4"/>
<path d="M206.479 63.9378H201.871V64.5887H206.479V63.9378Z" fill="#FBF3D4"/>
<path d="M209.31 63.9378H206.879V64.5887H209.31V63.9378Z" fill="#FBF3D4"/>
<path d="M202.245 65.1707H200.414V65.8213H202.245V65.1707Z" fill="#FBF3D4"/>
<path d="M204.047 65.1707H202.73V65.8213H204.047V65.1707Z" fill="#FBF3D4"/>
<path d="M207.608 65.1707H204.445V65.8213H207.608V65.1707Z" fill="#FBF3D4"/>
<path d="M209.409 65.1707H207.836V65.8213H209.409V65.1707Z" fill="#FBF3D4"/>
<path d="M213.661 65.1707H209.684V65.8213H213.661V65.1707Z" fill="#FBF3D4"/>
<path d="M203.703 66.4033H201.871V67.0547H203.703V66.4033Z" fill="#FBF3D4"/>
<path d="M205.806 66.4033H204.318V67.0547H205.806V66.4033Z" fill="#FBF3D4"/>
<path d="M207.309 66.4033H206.35V67.0547H207.309V66.4033Z" fill="#FBF3D4"/>
<path d="M211.214 66.4033H207.852V67.0547H211.214V66.4033Z" fill="#FBF3D4"/>
<path d="M212.545 66.4033H211.586V67.0547H212.545V66.4033Z" fill="#FBF3D4"/>
<path d="M204.847 67.6366H201.871V68.2876H204.847V67.6366Z" fill="#FBF3D4"/>
<path d="M207.163 67.6366H205.332V68.2876H207.163V67.6366Z" fill="#FBF3D4"/>
<path d="M210.025 67.6366H207.594V68.2876H210.025V67.6366Z" fill="#FBF3D4"/>
<path d="M215.864 67.6366H210.398V68.2876H215.864V67.6366Z" fill="#FBF3D4"/>
<path d="M203.703 68.8694H201.871V69.52H203.703V68.8694Z" fill="#FBF3D4"/>
<path d="M206.077 68.8694H204.246V69.52H206.077V68.8694Z" fill="#FBF3D4"/>
<path d="M208.511 68.8694H206.594V69.52H208.511V68.8694Z" fill="#FBF3D4"/>
<path d="M209.969 68.8694H208.883V69.52H209.969V68.8694Z" fill="#FBF3D4"/>
<path d="M202.245 70.1037H200.414V70.7543H202.245V70.1037Z" fill="#FBF3D4"/>
<path d="M205.162 70.1037H202.5V70.7543H205.162V70.1037Z" fill="#FBF3D4"/>
<path d="M203.746 71.3057H201.871V71.957H203.746V71.3057Z" fill="#FBF3D4"/>
<path d="M205.678 71.3057H204.311V71.957H205.678V71.3057Z" fill="#FBF3D4"/>
<path d="M207.106 71.3057H206.254V71.957H207.106V71.3057Z" fill="#FBF3D4"/>
<path d="M206.85 70.1037H205.562V70.7543H206.85V70.1037Z" fill="#FBF3D4"/>
<path d="M209.251 70.1037H207.219V70.7543H209.251V70.1037Z" fill="#FBF3D4"/>
<path d="M205.791 56.5838H204.762V57.2351H205.791V56.5838Z" fill="#FBF3D4"/>
<path d="M145.251 17.5351H124.408V41.2444H145.251V17.5351Z" fill="#F3EFCC"/>
<path d="M144.688 20.1551H124.969V40.7593H144.688V20.1551Z" fill="#5C3540"/>
<path d="M138.137 52.0097H113.301V68.5818H138.137V52.0097Z" fill="#F3EFCC"/>
<path d="M133.044 52.2983H131.332V53.9579H133.044V52.2983Z" fill="#B7B51B"/>
<path d="M135.342 52.2983H133.629V53.9579H135.342V52.2983Z" fill="#FCCC45"/>
<path d="M137.64 52.2983H135.928V53.9579H137.64V52.2983Z" fill="#EC0A71"/>
<path d="M140.092 18.0361H138.379V19.696H140.092V18.0361Z" fill="#B7B51B"/>
<path d="M142.392 18.0361H140.68V19.696H142.392V18.0361Z" fill="#FCCC45"/>
<path d="M144.689 18.0361H142.977V19.696H144.689V18.0361Z" fill="#EC0A71"/>
<path d="M179.851 17.5346H156.762V46.2437H179.851V17.5346Z" fill="#F3EFCC"/>
<path d="M179.163 20.1957H157.447V45.6385H179.163V20.1957Z" fill="#5C3540"/>
<path d="M174.564 18.0759H172.852V19.7358H174.564V18.0759Z" fill="#B7B51B"/>
<path d="M176.863 18.0759H175.15V19.7358H176.863V18.0759Z" fill="#FCCC45"/>
<path d="M179.162 18.0759H177.449V19.7358H179.162V18.0759Z" fill="#EC0A71"/>
<path d="M214 48.5221H212.287V50.182H214V48.5221Z" fill="#B7B51B"/>
<path d="M216.299 48.5221H214.586V50.182H216.299V48.5221Z" fill="#FCCC45"/>
<path d="M218.599 48.5221H216.887V50.182H218.599V48.5221Z" fill="#EC0A71"/>
<path d="M137.641 54.2685H113.797V68.2515H137.641V54.2685Z" fill="#5C3540"/>
<path d="M117.085 55.3545H116.215V56.0229H117.085V55.3545Z" fill="#FBF3D4"/>
<path d="M122.359 55.3545H117.439V56.0229H122.359V55.3545Z" fill="#FBF3D4"/>
<path d="M126.411 55.3545H123.195V56.0229H126.411V55.3545Z" fill="#FBF3D4"/>
<path d="M120.336 56.5423H117.031V57.2107H120.336V56.5423Z" fill="#FBF3D4"/>
<path d="M123.632 57.8787H120.627V58.5464H123.632V57.8787Z" fill="#FBF3D4"/>
<path d="M127.237 57.8787H124.232V58.5464H127.237V57.8787Z" fill="#FBF3D4"/>
<path d="M128.292 57.8787H127.75V58.5464H128.292V57.8787Z" fill="#FBF3D4"/>
<path d="M129.586 57.8787H128.715V58.5464H129.586V57.8787Z" fill="#FBF3D4"/>
<path d="M130.07 56.5423H125.523V57.2107H130.07V56.5423Z" fill="#FBF3D4"/>
<path d="M124.742 56.5423H120.941V57.2107H124.742V56.5423Z" fill="#FBF3D4"/>
<path d="M122.61 59.043H118.062V59.7107H122.61V59.043Z" fill="#FBF3D4"/>
<path d="M119.375 60.2634H118.062V60.9307H119.375V60.2634Z" fill="#FBF3D4"/>
<path d="M122.254 60.2634H119.945V60.9307H122.254V60.2634Z" fill="#FBF3D4"/>
<path d="M124.954 60.2634H123.213V60.9307H124.954V60.2634Z" fill="#FBF3D4"/>
<path d="M127.119 60.2634H125.379V60.9307H127.119V60.2634Z" fill="#FBF3D4"/>
<path d="M121.863 61.5281H119.59V62.1965H121.863V61.5281Z" fill="#FBF3D4"/>
<path d="M129.463 61.5281H122.145V62.1965H129.463V61.5281Z" fill="#FBF3D4"/>
<path d="M120.334 62.7913H118.062V63.4604H120.334V62.7913Z" fill="#FBF3D4"/>
<path d="M121.898 62.7913H120.762V63.4604H121.898V62.7913Z" fill="#FBF3D4"/>
<path d="M126.553 62.7913H122.504V63.4604H126.553V62.7913Z" fill="#FBF3D4"/>
<path d="M121.118 64.0587H119.873V64.7271H121.118V64.0587Z" fill="#FBF3D4"/>
<path d="M122.075 64.0587H121.543V64.7271H122.075V64.0587Z" fill="#FBF3D4"/>
<path d="M124.135 64.0587H122.75V64.7271H124.135V64.0587Z" fill="#FBF3D4"/>
<path d="M127.831 64.0587H124.527V64.7271H127.831V64.0587Z" fill="#FBF3D4"/>
<path d="M129.959 64.0587H128.291V64.7271H129.959V64.0587Z" fill="#FBF3D4"/>
<path d="M135.504 64.0594L130.389 64.0587V64.7271H135.504V64.0594Z" fill="#FBF3D4"/>
<path d="M122.146 65.3215H119.873V65.9906H122.146V65.3215Z" fill="#FBF3D4"/>
<path d="M124.385 65.3215H122.857V65.9906H124.385V65.3215Z" fill="#FBF3D4"/>
<path d="M126.514 65.3215H124.988V65.9906H126.514V65.3215Z" fill="#FBF3D4"/>
<path d="M125.593 66.5884H119.873V67.2554H125.593V66.5884Z" fill="#FBF3D4"/>
<path d="M129.11 66.5884H126.09V67.2554H129.11V66.5884Z" fill="#FBF3D4"/>
<path d="M124.739 59.043H123.461V59.7107H124.739V59.043Z" fill="#FBF3D4"/>
<path d="M114.756 8.34184H74.1523V41.2444H114.756V8.34184Z" fill="#F3EFCC"/>
<path d="M114.151 10.7607H74.7617V40.7513H114.151V10.7607Z" fill="#5C3540"/>
<path d="M109.552 8.6975H107.84V10.3574H109.552V8.6975Z" fill="#B7B51B"/>
<path d="M111.849 8.6975H110.137V10.3574H111.849V8.6975Z" fill="#FCCC45"/>
<path d="M114.148 8.6975H112.436V10.3574H114.148V8.6975Z" fill="#EC0A71"/>
<path d="M160.652 21.3205H159.951V21.9976H160.652V21.3205Z" fill="#FBF3D4"/>
<path d="M160.652 42.7998H159.951V43.4766H160.652V42.7998Z" fill="#FBF3D4"/>
<path d="M162.755 42.7998H161.023V43.4766H162.755V42.7998Z" fill="#FBF3D4"/>
<path d="M164.901 21.3205H160.938V21.9976H164.901V21.3205Z" fill="#FBF3D4"/>
<path d="M168.164 21.3205H165.574V21.9976H168.164V21.3205Z" fill="#FBF3D4"/>
<path d="M160.488 44.1849H160.22L159.951 44.8623H160.22L160.488 44.1849Z" fill="#FBF3D4"/>
<path d="M163.27 22.5252H160.609V23.203H163.27V22.5252Z" fill="#FBF3D4"/>
<path d="M161.725 41.5762H160.609V42.2537H161.725V41.5762Z" fill="#FBF3D4"/>
<path d="M163.701 41.5762H162.113V42.2537H163.701V41.5762Z" fill="#FBF3D4"/>
<path d="M170.025 41.5762H164.117V42.2537H170.025V41.5762Z" fill="#FBF3D4"/>
<path d="M165.928 23.8783H163.508V24.5562H165.928V23.8783Z" fill="#FBF3D4"/>
<path d="M168.83 23.8783H166.41V24.5562H168.83V23.8783Z" fill="#FBF3D4"/>
<path d="M169.679 23.8783H169.242V24.5562H169.679V23.8783Z" fill="#FBF3D4"/>
<path d="M170.725 23.8783H170.023V24.5562H170.725V23.8783Z" fill="#FBF3D4"/>
<path d="M171.112 22.5252H167.449V23.203H171.112V22.5252Z" fill="#FBF3D4"/>
<path d="M166.818 22.5252H163.758V23.203H166.818V22.5252Z" fill="#FBF3D4"/>
<path d="M165.104 25.0587H161.441V25.7358H165.104V25.0587Z" fill="#FBF3D4"/>
<path d="M162.5 26.2963H161.441V26.9734H162.5V26.2963Z" fill="#FBF3D4"/>
<path d="M164.816 26.2963H162.955V26.9734H164.816V26.2963Z" fill="#FBF3D4"/>
<path d="M166.992 26.2963H165.59V26.9734H166.992V26.2963Z" fill="#FBF3D4"/>
<path d="M168.738 26.2963H167.336V26.9734H168.738V26.2963Z" fill="#FBF3D4"/>
<path d="M164.502 27.578H162.67V28.2559H164.502V27.578Z" fill="#FBF3D4"/>
<path d="M170.625 27.578H164.73V28.2559H170.625V27.578Z" fill="#FBF3D4"/>
<path d="M163.272 28.8593H161.441V29.5371H163.272V28.8593Z" fill="#FBF3D4"/>
<path d="M164.528 28.8593H163.613V29.5371H164.528V28.8593Z" fill="#FBF3D4"/>
<path d="M168.279 28.8593H165.018V29.5371H168.279V28.8593Z" fill="#FBF3D4"/>
<path d="M163.9 30.1421H162.898V30.8188H163.9V30.1421Z" fill="#FBF3D4"/>
<path d="M164.671 30.1421H164.242V30.8188H164.671V30.1421Z" fill="#FBF3D4"/>
<path d="M166.331 30.1421H165.215V30.8188H166.331V30.1421Z" fill="#FBF3D4"/>
<path d="M169.309 30.1421H166.648V30.8188H169.309V30.1421Z" fill="#FBF3D4"/>
<path d="M171.025 30.1421H169.682V30.8188H171.025V30.1421Z" fill="#FBF3D4"/>
<path d="M175.491 30.1425L171.371 30.1421V30.8188H175.491V30.1425Z" fill="#FBF3D4"/>
<path d="M164.73 31.4256H162.898V32.1027H164.73V31.4256Z" fill="#FBF3D4"/>
<path d="M166.533 31.4256H165.303V32.1027H166.533V31.4256Z" fill="#FBF3D4"/>
<path d="M168.248 31.4256H167.02V32.1027H168.248V31.4256Z" fill="#FBF3D4"/>
<path d="M167.506 32.7067H162.898V33.3838H167.506V32.7067Z" fill="#FBF3D4"/>
<path d="M170.338 32.7067H167.906V33.3838H170.338V32.7067Z" fill="#FBF3D4"/>
<path d="M163.272 33.9893H161.441V34.666H163.272V33.9893Z" fill="#FBF3D4"/>
<path d="M165.074 33.9893H163.758V34.666H165.074V33.9893Z" fill="#FBF3D4"/>
<path d="M168.637 33.9893H165.475V34.666H168.637V33.9893Z" fill="#FBF3D4"/>
<path d="M170.438 33.9893H168.865V34.666H170.438V33.9893Z" fill="#FBF3D4"/>
<path d="M174.688 33.9893H170.711V34.666H174.688V33.9893Z" fill="#FBF3D4"/>
<path d="M164.73 35.2711H162.898V35.9486H164.73V35.2711Z" fill="#FBF3D4"/>
<path d="M166.835 35.2711H165.348V35.9486H166.835V35.2711Z" fill="#FBF3D4"/>
<path d="M168.338 35.2711H167.379V35.9486H168.338V35.2711Z" fill="#FBF3D4"/>
<path d="M172.241 35.2711H168.879V35.9486H172.241V35.2711Z" fill="#FBF3D4"/>
<path d="M173.572 35.2711H172.613V35.9486H173.572V35.2711Z" fill="#FBF3D4"/>
<path d="M165.874 36.5542H162.898V37.2313H165.874V36.5542Z" fill="#FBF3D4"/>
<path d="M168.192 36.5542H166.361V37.2313H168.192V36.5542Z" fill="#FBF3D4"/>
<path d="M171.055 36.5542H168.623V37.2313H171.055V36.5542Z" fill="#FBF3D4"/>
<path d="M176.893 36.5542H171.428V37.2313H176.893V36.5542Z" fill="#FBF3D4"/>
<path d="M164.73 37.8364H162.898V38.5132H164.73V37.8364Z" fill="#FBF3D4"/>
<path d="M167.104 37.8364H165.273V38.5132H167.104V37.8364Z" fill="#FBF3D4"/>
<path d="M169.538 37.8364H167.621V38.5132H169.538V37.8364Z" fill="#FBF3D4"/>
<path d="M170.997 37.8364H169.91V38.5132H170.997V37.8364Z" fill="#FBF3D4"/>
<path d="M163.272 39.1189H161.441V39.7957H163.272V39.1189Z" fill="#FBF3D4"/>
<path d="M166.193 39.1189H163.531V39.7957H166.193V39.1189Z" fill="#FBF3D4"/>
<path d="M164.773 40.3692H162.898V41.047H164.773V40.3692Z" fill="#FBF3D4"/>
<path d="M166.705 40.3692H165.338V41.047H166.705V40.3692Z" fill="#FBF3D4"/>
<path d="M168.135 40.3692H167.283V41.047H168.135V40.3692Z" fill="#FBF3D4"/>
<path d="M167.878 39.1189H166.59V39.7957H167.878V39.1189Z" fill="#FBF3D4"/>
<path d="M170.283 39.1189H168.25V39.7957H170.283V39.1189Z" fill="#FBF3D4"/>
<path d="M166.82 25.0587H165.791V25.7358H166.82V25.0587Z" fill="#FBF3D4"/>
<path d="M82.0498 12.6803H80.7539V13.5891H82.0498V12.6803Z" fill="#F03B3F"/>
<path d="M89.9092 12.6803H82.582V13.5891H89.9092V12.6803Z" fill="#FEF3D6"/>
<path d="M95.9408 12.6803H91.1523V13.5891H95.9408V12.6803Z" fill="#FCCB32"/>
<path d="M86.8936 14.2953H81.9727V15.2048H86.8936V14.2953Z" fill="#F03B3F"/>
<path d="M91.8007 16.1145H87.3242V17.0229H91.8007V16.1145Z" fill="#FCCB32"/>
<path d="M97.1728 16.1145H92.6953V17.0229H97.1728V16.1145Z" fill="#FCCB32"/>
<path d="M98.7445 16.1145H97.9336V17.0229H98.7445V16.1145Z" fill="#FCCB32"/>
<path d="M100.673 16.1145H99.375V17.0229H100.673V16.1145Z" fill="#FCCB32"/>
<path d="M101.39 14.2953H94.6172V15.2048H101.39V14.2953Z" fill="#FEF3D6"/>
<path d="M93.4528 14.2953H87.793V15.2048H93.4528V14.2953Z" fill="#FEF3D6"/>
<path d="M90.2794 17.6968H83.5059V18.606H90.2794V17.6968Z" fill="#FEF3D6"/>
<path d="M85.4639 19.3572H83.5059V20.2656H85.4639V19.3572Z" fill="#F03B3F"/>
<path d="M89.752 19.3572H86.3125V20.2656H89.752V19.3572Z" fill="#FEF3D6"/>
<path d="M93.7725 19.3572H91.1797V20.2656H93.7725V19.3572Z" fill="#FEF3D6"/>
<path d="M96.9994 19.3572H94.4062V20.2656H96.9994V19.3572Z" fill="#FEF3D6"/>
<path d="M89.1673 21.0779H85.7812V21.9878H89.1673V21.0779Z" fill="#FEF3D6"/>
<path d="M100.493 21.0779H89.5938V21.9878H100.493V21.0779Z" fill="#FCCB32"/>
<path d="M86.8926 22.8001H83.5059V23.709H86.8926V22.8001Z" fill="#F03B3F"/>
<path d="M89.2197 22.8001H87.5273V23.709H89.2197V22.8001Z" fill="#F03B3F"/>
<path d="M96.1514 22.8001H90.1191V23.709H96.1514V22.8001Z" fill="#FEF3D6"/>
<path d="M88.0566 24.5199H86.2051V25.4294H88.0566V24.5199Z" fill="#FEF3D6"/>
<path d="M89.4857 24.5199H88.6914V25.4294H89.4857V24.5199Z" fill="#FEF3D6"/>
<path d="M92.556 24.5199H90.4922V25.4294H92.556V24.5199Z" fill="#FEF3D6"/>
<path d="M98.057 24.5199H93.1367V25.4294H98.057V24.5199Z" fill="#FEF3D6"/>
<path d="M101.233 24.5199H98.7461V25.4294H101.233V24.5199Z" fill="#FEF3D6"/>
<path d="M109.485 24.5199H101.867V25.4294H109.485V24.5199Z" fill="#FEF3D6"/>
<path d="M85.4639 33.7505H83.5059V32.842H85.4639V33.7505Z" fill="#F03B3F"/>
<path d="M89.752 33.7505H86.3125V32.842H89.752V33.7505Z" fill="#FEF3D6"/>
<path d="M93.7725 33.7505H91.1797V32.842H93.7725V33.7505Z" fill="#FEF3D6"/>
<path d="M96.9994 33.7505H94.4062V32.842H96.9994V33.7505Z" fill="#FEF3D6"/>
<path d="M89.1673 32.0293H85.7812V31.1197H89.1673V32.0293Z" fill="#FEF3D6"/>
<path d="M93.2029 32.0293H89.5938V31.1197H93.2029V32.0293Z" fill="#FCCB32"/>
<path d="M86.8926 30.3074H83.5059V29.3985H86.8926V30.3074Z" fill="#F03B3F"/>
<path d="M89.2197 30.3074H87.5273V29.3985H89.2197V30.3074Z" fill="#F03B3F"/>
<path d="M96.1514 30.3074H90.1191V29.3985H96.1514V30.3074Z" fill="#FEF3D6"/>
<path d="M92.4037 28.5863H86.2051V27.6767H92.4037V28.5863Z" fill="#FEF3D6"/>
<path d="M96.6881 28.5863H93.1367V27.6767H96.6881V28.5863Z" fill="#FEF3D6"/>
<path d="M98.9819 28.5863H97.1875V27.6767H98.9819V28.5863Z" fill="#FEF3D6"/>
<path d="M104.936 28.5863H99.4375V27.6767H104.936V28.5863Z" fill="#FEF3D6"/>
<path d="M89.5918 26.2414H86.2051V27.1506H89.5918V26.2414Z" fill="#FEF3D6"/>
<path d="M92.9239 26.2414H90.6484V27.1506H92.9239V26.2414Z" fill="#BBC818"/>
<path d="M96.0993 26.2414H93.8242V27.1506H96.0993V26.2414Z" fill="#BBC818"/>
<path d="M93.4544 17.6968H91.5508V18.606H93.4544V17.6968Z" fill="#F03B3F"/>
<path d="M86.8936 34.3334H81.9727V35.2429H86.8936V34.3334Z" fill="#F03B3F"/>
<path d="M91.8007 36.1512H87.3242V37.0601H91.8007V36.1512Z" fill="#FCCB32"/>
<path d="M97.1728 36.1512H92.6953V37.0601H97.1728V36.1512Z" fill="#FCCB32"/>
<path d="M98.7445 36.1512H97.9336V37.0601H98.7445V36.1512Z" fill="#FCCB32"/>
<path d="M100.673 36.1512H99.375V37.0601H100.673V36.1512Z" fill="#FCCB32"/>
<path d="M101.39 34.3334H94.6172V35.2429H101.39V34.3334Z" fill="#FEF3D6"/>
<path d="M93.4528 34.3334H87.793V35.2429H93.4528V34.3334Z" fill="#FEF3D6"/>
<path d="M90.2794 37.7351H83.5059V38.6443H90.2794V37.7351Z" fill="#FEF3D6"/>
<path d="M93.4544 37.7351H91.5508V38.6443H93.4544V37.7351Z" fill="#F03B3F"/>
<path d="M127.558 22.7629H126.889V23.4077H127.558V22.7629Z" fill="#FBF3D4"/>
<path d="M131.613 22.7629H127.832V23.4077H131.613V22.7629Z" fill="#FBF3D4"/>
<path d="M134.721 22.7629H132.25V23.4077H134.721V22.7629Z" fill="#FBF3D4"/>
<path d="M130.055 23.9084H127.516V24.5532H130.055V23.9084Z" fill="#FBF3D4"/>
<path d="M132.587 25.1982H130.277V25.8423H132.587V25.1982Z" fill="#FBF3D4"/>
<path d="M135.36 25.1982H133.051V25.8423H135.36V25.1982Z" fill="#FBF3D4"/>
<path d="M136.171 25.1982H135.754V25.8423H136.171V25.1982Z" fill="#FBF3D4"/>
<path d="M137.162 25.1982H136.492V25.8423H137.162V25.1982Z" fill="#FBF3D4"/>
<path d="M137.535 23.9084H134.041V24.5532H137.535V23.9084Z" fill="#FBF3D4"/>
<path d="M133.44 23.9084H130.52V24.5532H133.44V23.9084Z" fill="#FBF3D4"/>
<path d="M131.803 26.3209H128.309V26.965H131.803V26.3209Z" fill="#FBF3D4"/>
<path d="M129.318 27.499H128.309V28.1431H129.318V27.499Z" fill="#FBF3D4"/>
<path d="M131.528 27.499H129.754V28.1431H131.528V27.499Z" fill="#FBF3D4"/>
<path d="M133.604 27.499H132.266V28.1431H133.604V27.499Z" fill="#FBF3D4"/>
<path d="M135.269 27.499H133.932V28.1431H135.269V27.499Z" fill="#FBF3D4"/>
<path d="M131.23 28.7189H129.482V29.3638H131.23V28.7189Z" fill="#FBF3D4"/>
<path d="M137.074 28.7189H131.449V29.3638H137.074V28.7189Z" fill="#FBF3D4"/>
<path d="M130.054 29.937H128.309V30.5825H130.054V29.937Z" fill="#FBF3D4"/>
<path d="M131.256 29.937H130.383V30.5825H131.256V29.937Z" fill="#FBF3D4"/>
<path d="M134.834 29.937H131.723V30.5825H134.834V29.937Z" fill="#FBF3D4"/>
<path d="M130.656 31.1593H129.699V31.8037H130.656V31.1593Z" fill="#FBF3D4"/>
<path d="M131.391 31.1593H130.982V31.8037H131.391V31.1593Z" fill="#FBF3D4"/>
<path d="M132.975 31.1593H131.91V31.8037H132.975V31.1593Z" fill="#FBF3D4"/>
<path d="M135.816 31.1593H133.277V31.8037H135.816V31.1593Z" fill="#FBF3D4"/>
<path d="M137.45 31.1593H136.168V31.8037H137.45V31.1593Z" fill="#FBF3D4"/>
<path d="M141.712 31.16L137.781 31.1593V31.8037H141.712V31.16Z" fill="#FBF3D4"/>
<path d="M131.446 32.3783H129.699V33.0238H131.446V32.3783Z" fill="#FBF3D4"/>
<path d="M133.166 32.3783H131.992V33.0238H133.166V32.3783Z" fill="#FBF3D4"/>
<path d="M134.804 32.3783H133.631V33.0238H134.804V32.3783Z" fill="#FBF3D4"/>
<path d="M134.095 33.5999H129.699V34.2433H134.095V33.5999Z" fill="#FBF3D4"/>
<path d="M136.798 33.5999H134.477V34.2433H136.798V33.5999Z" fill="#FBF3D4"/>
<path d="M130.054 34.82H128.309V35.4648H130.054V34.82Z" fill="#FBF3D4"/>
<path d="M131.775 34.82H130.52V35.4648H131.775V34.82Z" fill="#FBF3D4"/>
<path d="M135.173 34.82H132.156V35.4648H135.173V34.82Z" fill="#FBF3D4"/>
<path d="M136.894 34.82H135.393V35.4648H136.894V34.82Z" fill="#FBF3D4"/>
<path d="M140.947 34.82H137.152V35.4648L140.947 35.4641V34.82Z" fill="#FBF3D4"/>
<path d="M131.446 36.0416H129.699V36.6853H131.446V36.0416Z" fill="#FBF3D4"/>
<path d="M133.454 36.0416H132.035V36.6853H133.454V36.0416Z" fill="#FBF3D4"/>
<path d="M134.887 36.0416H133.973V36.6853H134.887V36.0416Z" fill="#FBF3D4"/>
<path d="M138.615 36.0416H135.406V36.6853H138.615V36.0416Z" fill="#FBF3D4"/>
<path d="M139.884 36.0416H138.969V36.6853H139.884V36.0416Z" fill="#FBF3D4"/>
<path d="M132.538 37.2612H129.699V37.9053H132.538V37.2612Z" fill="#FBF3D4"/>
<path d="M134.751 37.2612H133.004V37.9053H134.751V37.2612Z" fill="#FBF3D4"/>
<path d="M137.482 37.2612H135.162V37.9053H137.482V37.2612Z" fill="#FBF3D4"/>
<path d="M139.868 37.2612H137.836V37.9053H139.868V37.2612Z" fill="#FBF3D4"/>
<path d="M141.287 37.2612H140.412V37.9053H141.287V37.2612Z" fill="#FBF3D4"/>
<path d="M131.446 38.4812H129.699V39.1245H131.446V38.4812Z" fill="#FBF3D4"/>
<path d="M133.712 38.4812H131.965V39.1245H133.712V38.4812Z" fill="#FBF3D4"/>
<path d="M133.441 26.3209H132.459V26.965H133.441V26.3209Z" fill="#FBF3D4"/>
<path d="M279.311 26.0723H223.137V79.3074H279.311V26.0723Z" fill="#F3EFCC"/>
<path d="M274.466 26.4677H272.881V28.1689H274.466V26.4677Z" fill="#B7B51B"/>
<path d="M276.597 26.4677H275.012V28.1689H276.597V26.4677Z" fill="#FCCC45"/>
<path d="M278.722 26.4677H277.137V28.1689H278.722V26.4677Z" fill="#EC0A71"/>
<path d="M278.724 28.5889H223.723V78.8403H278.724V28.5889Z" fill="#5C3540"/>
<path d="M230.735 31.33H229.215V32.6356H230.735V31.33Z" fill="#F03B3F"/>
<path d="M230.735 72.7376H229.215V74.0432H230.735V72.7376Z" fill="#F03B3F"/>
<path d="M235.297 72.7376H231.543V74.0432H235.297V72.7376Z" fill="#FEF3D6"/>
<path d="M239.95 31.33H231.355V32.6356H239.95V31.33Z" fill="#FEF3D6"/>
<path d="M247.026 31.33H241.41V32.6356H247.026V31.33Z" fill="#FCCB32"/>
<path d="M230.378 75.4086H229.796L229.215 76.7146H229.796L230.378 75.4086Z" fill="#FEF3D6"/>
<path d="M236.412 33.6509H230.641V34.9565H236.412V33.6509Z" fill="#F03B3F"/>
<path d="M233.06 70.3792H230.641V71.6844H233.06V70.3792Z" fill="#F03B3F"/>
<path d="M237.342 70.3792H233.898V71.6844H237.342V70.3792Z" fill="#FEF3D6"/>
<path d="M251.056 70.3792H238.242V71.6844H251.056V70.3792Z" fill="#FEF3D6"/>
<path d="M242.171 36.2617H236.922V37.5673H242.171V36.2617Z" fill="#FCCB32"/>
<path d="M248.468 36.2617H243.219V37.5673H248.468V36.2617Z" fill="#FCCB32"/>
<path d="M250.314 36.2617H249.365V37.5673H250.314V36.2617Z" fill="#FCCB32"/>
<path d="M252.573 36.2617H251.051V37.5673H252.573V36.2617Z" fill="#FCCB32"/>
<path d="M253.416 33.6509H245.473V34.9565H253.416V33.6509Z" fill="#FEF3D6"/>
<path d="M244.109 33.6509H237.469V34.9565H244.109V33.6509Z" fill="#FEF3D6"/>
<path d="M240.384 38.5358H232.441V39.8418H240.384V38.5358Z" fill="#FEF3D6"/>
<path d="M234.737 40.9206H232.441V42.2258H234.737V40.9206Z" fill="#F03B3F"/>
<path d="M239.763 40.9206H235.73V42.2258H239.763V40.9206Z" fill="#FEF3D6"/>
<path d="M244.482 40.9206H241.441V42.2258H244.482V40.9206Z" fill="#FEF3D6"/>
<path d="M248.265 40.9206H245.225V42.2258H248.265V40.9206Z" fill="#FEF3D6"/>
<path d="M239.083 43.3921H235.111V44.6981H239.083V43.3921Z" fill="#FEF3D6"/>
<path d="M252.361 43.3921H239.578V44.6981H252.361V43.3921Z" fill="#FCCB32"/>
<path d="M236.413 45.864H232.441V47.1699H236.413V45.864Z" fill="#F03B3F"/>
<path d="M239.144 45.864H237.158V47.1699H239.144V45.864Z" fill="#F03B3F"/>
<path d="M247.272 45.864H240.197V47.1699H247.272V45.864Z" fill="#FEF3D6"/>
<path d="M237.777 48.336H235.605V49.6416H237.777V48.336Z" fill="#FEF3D6"/>
<path d="M239.453 48.336H238.521V49.6416H239.453V48.336Z" fill="#FEF3D6"/>
<path d="M243.052 48.336H240.633V49.6416H243.052V48.336Z" fill="#FEF3D6"/>
<path d="M249.509 48.336H243.738V49.6416H249.509V48.336Z" fill="#FEF3D6"/>
<path d="M253.232 48.336H250.316V49.6416H253.232V48.336Z" fill="#FEF3D6"/>
<path d="M262.912 48.336H253.977V49.6416H262.912V48.336Z" fill="#FEF3D6"/>
<path d="M239.576 50.8085H235.605V52.1138H239.576V50.8085Z" fill="#FEF3D6"/>
<path d="M243.485 50.8085H240.816V52.1138H243.485V50.8085Z" fill="#BBC818"/>
<path d="M247.211 50.8085H244.543V52.1138H247.211V50.8085Z" fill="#BBC818"/>
<path d="M245.595 53.2803H235.605V54.5859H245.595V53.2803Z" fill="#FEF3D6"/>
<path d="M251.739 53.2803H246.465V54.5859H251.739V53.2803Z" fill="#FCCB32"/>
<path d="M236.413 55.7525H232.441V57.0581H236.413V55.7525Z" fill="#F03B3F"/>
<path d="M240.323 55.7525H237.469V57.0581H240.323V55.7525Z" fill="#FEF3D6"/>
<path d="M248.048 55.7525H241.191V57.0581H248.048V55.7525Z" fill="#FEF3D6"/>
<path d="M251.957 55.7525H248.545V57.0581H251.957V55.7525Z" fill="#BBC818"/>
<path d="M261.174 55.7525H252.549V57.0581H261.174V55.7525Z" fill="#FEF3D6"/>
<path d="M239.576 58.2238H235.605V59.5298H239.576V58.2238Z" fill="#FCCB32"/>
<path d="M244.139 58.2238H240.912V59.5298H244.139V58.2238Z" fill="#BBC818"/>
<path d="M247.397 58.2238H245.318V59.5298H247.397V58.2238Z" fill="#FEF3D6"/>
<path d="M255.868 58.2238H248.576V59.5298H255.868V58.2238Z" fill="#FEF3D6"/>
<path d="M258.751 58.2238H256.672V59.5298H258.751V58.2238Z" fill="#FEF3D6"/>
<path d="M242.059 60.6961H235.605V62.0013H242.059V60.6961Z" fill="#BBC818"/>
<path d="M247.084 60.6961H243.113V62.0013H247.084V60.6961Z" fill="#FEF3D6"/>
<path d="M253.294 60.6961H248.02V62.0013H253.294V60.6961Z" fill="#FEF3D6"/>
<path d="M265.951 60.6961H254.1V62.0013H265.951V60.6961Z" fill="#FEF3D6"/>
<path d="M239.576 63.1681H235.605V64.4734H239.576V63.1681Z" fill="#FEF3D6"/>
<path d="M244.729 63.1681H240.758V64.4734H244.729V63.1681Z" fill="#FCCB32"/>
<path d="M250.003 63.1681H245.846V64.4734H250.003V63.1681Z" fill="#FEF3D6"/>
<path d="M253.169 63.1681H250.811V64.4734H253.169V63.1681Z" fill="#FEF3D6"/>
<path d="M236.413 65.6401H232.441V66.9457H236.413V65.6401Z" fill="#F03B3F"/>
<path d="M242.744 65.6401H236.973V66.9457H242.744V65.6401Z" fill="#F03B3F"/>
<path d="M239.67 68.0535H235.605V69.3591H239.67V68.0535Z" fill="#FEF3D6"/>
<path d="M243.859 68.0535H240.896V69.3591H243.859V68.0535Z" fill="#FEF3D6"/>
<path d="M246.96 68.0535H245.113V69.3591H246.96V68.0535Z" fill="#FEF3D6"/>
<path d="M246.406 65.6401H243.613V66.9457H246.406V65.6401Z" fill="#F03B3F"/>
<path d="M251.616 65.6401H247.211V66.9457H251.616V65.6401Z" fill="#FEF3D6"/>
<path d="M244.107 38.5358H241.873V39.8418H244.107V38.5358Z" fill="#F03B3F"/>
<path d="M308.384 75.8589H243.094V91.8082H308.384V75.8589Z" fill="#EC1462"/>
<path d="M250.575 81.172C250.607 81.2057 250.617 81.2395 250.617 81.2735C250.617 81.3185 250.586 81.3635 250.554 81.4306C250.48 81.5321 250.302 81.8585 250.187 81.9938C250.093 82.1175 250.093 82.1853 249.977 82.1853C249.873 82.1853 248.907 81.0255 248.142 81.0255C247.868 81.0255 247.47 81.048 247.47 81.8023C247.47 82.5454 248.215 82.8606 248.697 83.0745C249.19 83.311 250.743 83.851 250.743 86.0912C250.743 87.5774 249.61 88.2527 247.9 88.2527C246.19 88.2527 245.645 87.082 245.55 86.9805C245.518 86.9355 245.508 86.9021 245.508 86.8684C245.508 86.8231 245.539 86.7893 245.592 86.7219C245.676 86.5978 245.875 86.3617 245.99 86.2377C246.022 86.204 246.043 86.1927 246.074 86.1927C246.148 86.1927 246.211 86.3168 246.294 86.4064C246.41 86.5304 246.882 87.0708 247.701 87.0708C248.078 87.0708 248.687 86.9805 248.687 86.2939C248.687 85.5962 248.015 84.9996 247.543 84.6391C247.071 84.279 245.634 83.7611 245.634 82.309C245.634 80.8568 247.166 79.9447 247.931 79.9447C249.516 79.9447 250.491 81.0817 250.575 81.172Z" fill="#F3EFCC"/>
<path d="M251.898 83.6597C251.898 82.793 251.846 82.7143 251.846 82.0386C251.846 81.3633 251.867 80.6989 251.877 80.3838C251.877 80.1698 251.961 80.1361 252.076 80.1361C252.129 80.1361 252.182 80.1473 252.234 80.1473C252.391 80.1473 252.58 80.1814 253.053 80.1814C253.503 80.1814 254.217 80.0799 254.626 80.0799C255.056 80.0799 255.591 80.1248 255.79 80.1248C255.989 80.1248 256.011 80.2264 256.011 80.44C256.011 80.6764 256.053 80.9466 256.053 81.2959C256.053 81.3967 256.053 81.5207 256.021 81.7122C256.011 81.8475 255.947 81.8809 255.874 81.8809C255.801 81.8809 255.706 81.8359 255.644 81.825C255.486 81.7909 255.171 81.7909 254.731 81.7909C254.468 81.7909 254.196 81.7684 253.933 81.7684C253.839 81.7684 253.745 81.7684 253.65 81.7797C253.493 81.7909 253.294 81.8022 253.094 81.8022C252.842 81.8022 252.601 81.7909 252.538 81.7909C252.423 81.7909 252.433 81.8475 252.433 82.0161C252.433 82.1964 252.402 82.703 252.402 83.0969V83.7609C252.402 83.885 252.402 83.9974 252.412 84.1211C252.496 84.1323 252.59 84.1323 252.696 84.1323C252.874 84.1439 253.136 84.1439 253.43 84.1439C253.818 84.1439 254.29 84.0986 254.542 84.0986C254.794 84.0986 254.941 84.1323 255.056 84.1323C255.171 84.1323 255.192 84.1889 255.192 84.2676C255.192 84.3466 255.171 84.4025 255.171 84.6165C255.171 84.8304 255.182 84.9316 255.182 85.213C255.182 85.3596 255.151 85.3929 255.088 85.3929C255.046 85.3929 254.972 85.3596 254.899 85.3596C254.731 85.3596 254.51 85.3371 253.85 85.3371C253.178 85.3371 252.727 85.4274 252.611 85.4274C252.538 85.4274 252.496 85.4274 252.475 85.4158C252.444 85.4158 252.423 85.4158 252.412 85.4045V86.5302C252.444 86.5302 252.486 86.5302 252.528 86.519C252.601 86.519 252.706 86.5078 252.821 86.5078C253.063 86.5078 253.588 86.4965 254.059 86.4965C254.406 86.4965 254.961 86.519 255.381 86.519C255.57 86.519 255.727 86.5078 255.822 86.5078C256 86.5078 256.031 86.6089 256.031 86.7442C256.031 86.8117 256.021 86.902 256.021 86.9694C256.021 87.1943 256.011 87.4311 256.011 87.7575C256.011 88.0723 255.843 88.0052 255.507 88.0052C255.161 88.0052 254.154 87.9827 253.661 87.9827C253.157 87.9827 252.139 88.0277 252.003 88.0277L251.94 88.0386C251.846 88.0386 251.856 87.9486 251.856 87.8474C251.846 87.7234 251.846 87.5657 251.846 87.4311C251.846 87.2958 251.824 87.183 251.824 86.9469V85.4045C251.824 84.7292 251.898 84.5265 251.898 83.6597Z" fill="#F3EFCC"/>
<path d="M260.145 84.0205C260.145 83.998 260.135 83.9755 260.113 83.9302C260.041 83.7956 259.715 82.9847 259.61 82.6583C259.474 82.3094 259.39 82.0168 259.358 81.9602C259.285 81.7915 259.275 81.7241 259.222 81.7241C259.18 81.7241 259.148 81.9377 259.096 82.1517C259.044 82.3319 258.876 82.9289 258.824 83.1425C258.771 83.3786 258.645 83.7166 258.592 83.8856C258.571 83.9643 258.561 84.0205 258.561 84.0655C258.561 84.1104 258.582 84.1329 258.655 84.1329C258.782 84.1329 259.726 84.1104 259.904 84.0767C260.051 84.0542 260.145 84.0767 260.145 84.0205ZM259.075 79.934C259.117 79.8219 259.169 79.7991 259.222 79.8553C259.296 79.9115 259.317 80.0355 259.358 80.1704C259.39 80.3282 259.768 81.1837 259.915 81.5214C260.072 81.8706 260.219 82.2757 260.366 82.7261C260.502 83.165 261.037 84.3244 261.257 84.8648C261.478 85.3827 262.013 86.4743 262.16 86.7786C262.296 87.0712 262.506 87.6116 262.653 87.7919C262.684 87.8593 262.705 87.9043 262.705 87.9384C262.705 88.0167 262.611 88.0283 262.517 88.0283H261.761C261.677 88.0283 261.625 87.8256 261.551 87.6566C261.467 87.4876 261.195 86.6774 261.142 86.4971C261.09 86.3285 260.953 86.0355 260.88 85.8556C260.827 85.6641 260.775 85.6304 260.691 85.6304C260.618 85.6304 260.45 85.6529 260.271 85.6641C260.104 85.6978 259.442 85.6753 259.148 85.7091C259.054 85.7203 258.928 85.7203 258.813 85.7203C258.561 85.7203 258.309 85.7091 258.256 85.7091C258.162 85.7091 258.152 85.8331 258.12 85.9571C258.099 86.0692 257.932 86.7786 257.9 86.9925L257.785 87.4767L257.701 87.8031C257.659 87.9717 257.638 88.0167 257.564 88.0167H256.945C256.903 88.0167 256.893 88.0058 256.893 87.9717C256.893 87.9384 256.914 87.8818 256.934 87.8144C256.976 87.7128 256.998 87.6903 257.082 87.3868C257.166 87.0825 257.46 86.0355 257.543 85.5626C257.627 85.0563 257.816 84.4593 257.932 84.1104C258.015 83.7391 258.068 83.5588 258.205 83.0297C258.34 82.5006 258.488 81.9602 258.603 81.5551L258.865 80.6546C258.949 80.3057 259.033 80.058 259.075 79.934Z" fill="#F3EFCC"/>
<path d="M264.552 82.3202C264.846 82.309 265.213 82.2865 265.497 82.2302C266.053 82.1287 266.472 81.9825 266.472 81.4871C266.472 81.003 265.602 80.7669 265.182 80.7669C264.919 80.7556 264.657 80.7556 264.447 80.7556H264.09L264.028 82.3314C264.206 82.3314 264.374 82.3314 264.552 82.3202ZM263.997 84.3014C264.038 84.7968 264.049 87.5774 264.049 87.8588C264.049 88.1403 263.765 88.1403 263.629 88.1403C263.503 88.1403 263.514 87.9488 263.503 87.8251C263.493 87.7348 263.482 87.5321 263.482 87.296C263.482 87.1832 263.482 87.0708 263.493 86.958C263.503 86.7106 263.545 83.9188 263.545 82.1175C263.545 81.341 263.534 80.7556 263.514 80.6091C263.503 80.5188 263.503 80.4401 263.503 80.3727C263.503 80.1362 263.576 80.1137 263.692 80.1137C263.828 80.1137 264.814 80.1475 265.245 80.1475C265.685 80.1475 267.238 80.2711 267.238 81.2623C267.238 82.5904 265.497 82.7931 264.972 82.7931C264.888 82.7931 264.835 82.7931 264.825 82.7819C264.919 82.8831 267.825 87.1494 268.204 87.5545C268.434 87.8026 268.487 87.9038 268.487 87.9713C268.487 88.0053 268.455 88.0278 268.434 88.05C268.371 88.0949 268.161 88.1178 267.962 88.1178C267.521 88.1178 267.553 88.05 267.448 87.8139C267.364 87.6336 266.389 86.328 265.885 85.5508C265.633 85.157 265.171 84.5379 264.783 84.0088L264.059 83.0404L264.017 83.4909C263.986 83.7498 263.986 84.065 263.997 84.3014Z" fill="#F3EFCC"/>
<path d="M273.879 86.7341C273.879 86.7678 273.868 86.8128 273.847 86.8581C273.733 87.0717 273.124 88.1525 271.76 88.1525C270.385 88.1525 269.074 86.374 269.074 84.0322C269.074 81.6908 270.354 80.0922 271.529 80.0922C272.694 80.0922 273.27 80.8799 273.386 81.0602C273.449 81.1505 273.502 81.2179 273.502 81.297C273.502 81.342 273.47 81.3978 273.386 81.4769C273.187 81.6459 272.851 81.9607 272.694 82.1862C272.578 82.3436 272.473 82.4786 272.368 82.4786C272.316 82.4786 272.264 82.4448 272.2 82.3661C272.001 82.1297 271.833 81.8936 271.571 81.8936C271.11 81.8936 270.438 82.4673 270.438 84.3133C270.438 86.1487 271.382 86.5089 271.675 86.5089C271.97 86.5089 272.295 86.1937 272.411 86.0697C272.484 85.991 272.515 85.9348 272.568 85.9348C272.599 85.9348 272.641 85.946 272.694 85.9797L273.586 86.5089C273.743 86.5876 273.879 86.6213 273.879 86.7341Z" fill="#F3EFCC"/>
<path d="M277.32 83.1881C277.466 83.1881 277.634 83.1769 277.728 83.1656C277.792 83.1544 277.855 83.1544 277.928 83.1544C278.001 83.1544 278.075 83.1544 278.149 83.1656L278.39 83.1881L278.421 82.8501L278.452 82.3101C278.452 82.0399 278.494 80.5428 278.494 80.3397C278.505 80.1261 278.526 80.0587 278.684 80.0474C278.841 80.0474 279.029 80.0137 279.271 79.9796C279.355 79.9684 279.46 79.9683 279.575 79.9683C279.774 79.9683 279.985 79.9796 280.131 80.0021C280.341 80.0362 280.289 80.0811 280.321 80.2723C280.321 80.4638 280.247 81.5895 280.247 81.9608C280.247 82.3213 280.121 83.5707 280.121 84.0099C280.121 84.46 280.142 85.7775 280.142 86.2388C280.142 86.6893 280.152 87.5669 280.184 87.7813V87.8038C280.184 88.0174 280.058 87.9724 279.974 87.9724C279.932 87.9615 279.869 87.9499 279.764 87.9499C279.691 87.9499 279.607 87.9615 279.491 87.9724C279.198 88.0065 278.746 88.0065 278.547 88.0065H278.526C278.348 88.0065 278.379 87.8937 278.379 87.7359C278.379 87.5785 278.369 86.5428 278.337 86.1377C278.327 85.9233 278.316 85.586 278.316 85.3046C278.306 85.1356 278.306 84.9666 278.306 84.7867H278.001C277.834 84.7867 277.645 84.798 277.55 84.798C277.498 84.798 277.435 84.8092 277.362 84.8092C277.299 84.8092 277.225 84.798 277.152 84.798C277.078 84.798 276.994 84.798 276.899 84.7867L276.869 85.4957C276.837 85.89 276.837 86.3067 276.837 86.5203C276.837 86.6893 276.837 86.892 276.837 87.0944C276.837 87.3987 276.837 87.7022 276.857 87.8262C276.889 88.0511 276.732 88.0174 276.574 88.0174C276.417 88.0065 276.144 87.9724 275.966 87.9724C275.788 87.984 275.357 88.029 275.116 88.0399C274.896 88.0736 274.875 87.8712 274.875 87.7247C274.875 87.5785 274.907 86.768 274.907 86.4749C274.907 86.2613 274.927 85.3608 274.927 84.708C274.927 84.46 274.927 84.2576 274.917 84.1336C274.896 83.9649 274.885 83.7172 274.885 83.4586C274.885 83.0416 274.907 82.5915 274.907 82.3326C274.907 81.9384 275 80.4638 275 80.2501C275 80.1149 275.053 80.0924 275.127 80.0924C275.169 80.0924 275.221 80.1036 275.263 80.1036C275.368 80.1261 275.819 80.1486 276.05 80.1486C276.292 80.1486 276.669 80.1261 276.795 80.1261H276.806C276.91 80.1261 276.889 80.2389 276.889 80.3288C276.889 80.4188 276.91 81.0944 276.91 81.691C276.91 81.9949 276.899 82.3554 276.889 82.659L276.869 83.1769C276.91 83.1769 277.11 83.1881 277.32 83.1881Z" fill="#F3EFCC"/>
<path d="M282.085 81.7698C282.085 82.378 282.001 84.3027 282.001 84.8771C282.001 85.4621 282.032 87.4325 282.064 87.7135C282.074 87.7814 282.074 87.8263 282.074 87.8713C282.074 87.995 282.032 88.0175 281.969 88.0512C281.906 88.0962 281.77 88.0962 281.645 88.0962C281.298 88.0962 281.393 88.1415 281.393 87.6236C281.393 87.1957 281.434 84.5279 281.434 83.7851C281.434 83.0417 281.539 80.8581 281.508 80.5879C281.508 80.5088 281.497 80.4301 281.497 80.3514C281.497 80.194 281.529 80.0588 281.665 80.0588C281.738 80.0588 281.896 80.07 282.053 80.07C282.138 80.07 282.158 80.1374 282.158 80.2277C282.158 80.3064 282.138 80.4076 282.138 80.4976C282.106 80.7228 282.095 81.1507 282.085 81.7698Z" fill="#F3EFCC"/>
<path d="M285.315 84.0659C285.315 84.8424 285.356 86.4639 285.356 86.8015C285.356 87.1279 285.399 87.702 285.399 87.8823V87.9048C285.399 88.0622 285.304 88.0847 285.199 88.0847C285.084 88.0847 284.748 88.13 284.497 88.13C284.244 88.13 283.762 88.1525 283.478 88.1525C283.195 88.1525 283.216 87.9838 283.184 87.8373C283.164 87.7358 283.143 87.6233 283.143 87.3419C283.143 87.2182 283.143 87.0717 283.153 86.8806C283.153 86.2387 283.175 84.8994 283.227 84.3927C283.258 83.852 283.405 81.9382 283.405 81.4881C283.405 81.0377 283.405 80.5989 283.437 80.1597C283.458 79.9007 283.594 79.8558 283.73 79.8558C283.835 79.8558 283.94 79.8782 284.003 79.8782C284.171 79.8782 284.601 79.867 284.895 79.867C285.199 79.867 285.325 79.9232 285.409 80.0922C285.493 80.2721 285.808 81.0264 286.06 81.6005C286.312 82.1634 286.972 83.7733 287.224 84.3133C287.35 84.5951 287.571 85.023 287.749 85.4169L288.074 86.1034L288.053 85.451L288.011 84.3477C288.011 84.2349 288.011 84.1222 288.011 84.0097C288.011 83.5256 288.022 83.0755 288.032 82.7603C288.032 82.3886 288.011 81.5556 288.011 81.1392L288.053 80.0585C288.053 79.9232 288.127 79.8895 288.211 79.8895C288.284 79.8895 288.368 79.912 288.42 79.9232C288.546 79.9569 288.588 79.9457 288.787 79.9457C288.903 79.9457 288.924 79.9794 288.924 80.0472C288.924 80.1035 288.903 80.1825 288.903 80.2721C288.903 80.4861 288.871 82.9294 288.871 83.5143C288.871 83.6159 288.861 83.7171 288.861 83.8411C288.861 84.4939 288.924 85.4394 288.924 85.8673C288.924 86.3627 288.976 87.6233 288.976 87.8373V87.8598C288.976 88.0622 288.871 88.0734 288.777 88.0622C288.745 88.0509 288.704 88.0509 288.651 88.0509C288.525 88.0509 288.378 88.0734 288.294 88.0622C288.179 88.0509 288.169 88.0509 288.053 87.8373C287.969 87.6346 287.392 86.0809 287.192 85.6308C286.972 85.1804 286.249 83.4469 286.028 82.9177C285.913 82.6588 285.724 82.2649 285.557 81.9382L285.252 81.3528L285.283 82.4227C285.294 83.0077 285.315 83.6721 285.315 84.0659Z" fill="#F3EFCC"/>
<path d="M294.717 84.9658C294.843 84.9658 294.906 85.1236 294.895 85.3376C294.895 85.5512 294.864 88.1631 292.493 88.1631C290.825 88.1631 290.027 85.8217 290.027 83.8064C290.027 81.7802 291.192 80.0466 292.493 80.0466C293.783 80.0466 294.129 80.8793 294.286 81.0483C294.35 81.1274 294.371 81.1948 294.371 81.2626C294.371 81.3638 294.329 81.4422 294.276 81.4987C294.193 81.5887 293.888 81.8589 293.783 81.9376C293.751 81.96 293.72 81.9713 293.689 81.9713C293.615 81.9713 293.552 81.9263 293.5 81.8705C293.416 81.7802 292.986 81.1386 292.346 81.1386C291.412 81.1386 290.961 83.0183 290.961 84.099C290.961 85.1685 291.38 87.1048 292.608 87.1048C293.237 87.1048 293.563 86.7897 293.762 86.4741C293.878 86.283 293.951 86.0691 293.983 85.833H293.678C293.51 85.833 293.322 85.8217 293.207 85.8217L292.147 85.8105C291.989 85.8105 291.968 85.7089 291.968 85.6302V85.191C291.968 85.0108 292.041 85.0224 292.083 85.0224H292.566C292.734 85.0224 294.601 84.9658 294.717 84.9658Z" fill="#F3EFCC"/>
<path d="M298.286 86.8611H296.988V88.2527H298.286V86.8611Z" fill="#F3EFCC"/>
<path d="M300.996 86.8611H299.699V88.2527H300.996V86.8611Z" fill="#F3EFCC"/>
<path d="M303.705 86.8611H302.408V88.2527H303.705V86.8611Z" fill="#F3EFCC"/>
<path d="M85.7266 51.7949L88.343 41.7219L89.5328 51.602L85.7266 51.7949Z" fill="#86D7E0"/>
<path d="M100.853 48.2493H49.8938C48.2156 48.2493 46.8555 49.709 46.8555 51.5097V68.0487C46.8555 69.8493 48.2156 71.3091 49.8938 71.3091H100.853C102.532 71.3091 103.892 69.8493 103.892 68.0487V51.5097C103.892 49.709 102.532 48.2493 100.853 48.2493Z" fill="#86D7E0"/>
<path d="M55.849 64.5471H54.8388L54.6343 63.1704H52.9767L52.7841 64.5471H51.7734L53.2718 55.0093H54.3051L55.849 64.5471ZM53.7943 57.4577L53.1129 62.2326H54.4984L53.7943 57.4577Z" fill="white"/>
<path d="M58.4175 64.5471H56.5781V55.0093H58.4175C58.962 55.0093 59.3933 55.1889 59.7114 55.5457C60.0294 55.9037 60.1883 56.4557 60.1883 57.202V62.3548C60.1883 63.1019 60.0294 63.6542 59.7114 64.0107C59.3933 64.3687 58.962 64.5471 58.4175 64.5471ZM57.6225 56.0941V63.4628H58.3381C58.8826 63.4628 59.155 63.1178 59.155 62.4281V57.1299C59.155 56.439 58.8826 56.0941 58.3381 56.0941H57.6225Z" fill="white"/>
<path d="M63.0132 64.5471H61.1738V55.0093H63.0132C63.5577 55.0093 63.9894 55.1889 64.3071 55.5457C64.6251 55.9037 64.784 56.4557 64.784 57.202V62.3548C64.784 63.1019 64.6251 63.6542 64.3071 64.0107C63.9894 64.3687 63.5577 64.5471 63.0132 64.5471ZM62.2182 56.0941V63.4628H62.9338C63.4783 63.4628 63.7507 63.1178 63.7507 62.4281V57.1299C63.7507 56.439 63.4783 56.0941 62.9338 56.0941H62.2182Z" fill="white"/>
<path d="M68.9253 64.5471H67.8809V55.0093H70.9458V56.0941H68.9253V59.4067H70.4125V60.4911H68.9253V64.5471Z" fill="white"/>
<path d="M73.4906 64.7173C73.2327 64.7173 72.9944 64.6749 72.775 64.5896C72.5557 64.5044 72.3644 64.3785 72.2018 64.2121C72.0392 64.0453 71.9104 63.8454 71.8161 63.6093C71.7208 63.3732 71.6738 63.1056 71.6738 62.8053V55.0091H72.7182V62.7933C72.7182 63.069 72.7919 63.2782 72.94 63.42C73.0873 63.5626 73.2749 63.6329 73.5014 63.6329C73.7437 63.6329 73.9384 63.5626 74.0865 63.42C74.2335 63.2782 74.3075 63.069 74.3075 62.7933V55.0091H75.3293V62.8053C75.3293 63.1056 75.282 63.3732 75.1877 63.6093C75.093 63.8454 74.9622 64.0453 74.7959 64.2121C74.629 64.3785 74.4343 64.5044 74.2112 64.5896C73.9878 64.6749 73.7471 64.7173 73.4906 64.7173Z" fill="white"/>
<path d="M79.905 64.5471H78.9741L77.2601 57.5313V64.5471H76.3516V55.0093H77.4869L78.9968 61.5874V55.0093H79.905V64.5471Z" fill="white"/>
<path d="M82.6384 64.7173C82.3964 64.7173 82.1689 64.6749 81.9577 64.5896C81.7458 64.5044 81.5605 64.3785 81.4013 64.2121C81.2421 64.0453 81.1174 63.8462 81.0268 63.6151C80.9359 63.3834 80.8906 63.1216 80.8906 62.8292V56.727C80.8906 56.4347 80.9359 56.1729 81.0268 55.9418C81.1174 55.7101 81.2421 55.5106 81.4013 55.3442C81.5605 55.1788 81.7491 55.0529 81.9688 54.9666C82.1882 54.8814 82.4305 54.8386 82.6952 54.8386C83.2252 54.8386 83.645 55.0083 83.9553 55.3442C84.2659 55.6815 84.421 56.142 84.421 56.727V57.0443H83.456V56.7517C83.456 56.4753 83.3895 56.2679 83.2573 56.1301C83.1248 55.9926 82.9409 55.923 82.7067 55.923C82.4644 55.923 82.2737 55.9926 82.1338 56.1301C81.9932 56.2679 81.9232 56.4753 81.9232 56.7517V62.8053C81.9232 63.0809 81.9932 63.288 82.1338 63.4269C82.2737 63.5644 82.4569 63.6329 82.6841 63.6329C82.9109 63.6329 83.0964 63.5644 83.2404 63.4269C83.3841 63.288 83.456 63.0809 83.456 62.8053V62.6102L84.421 62.3425V62.8292C84.421 63.1216 84.3734 63.3834 84.2791 63.6151C84.1841 63.8462 84.0573 64.0453 83.8985 64.2121C83.7396 64.3785 83.5527 64.5044 83.3367 64.5896C83.1211 64.6749 82.8882 64.7173 82.6384 64.7173Z" fill="white"/>
<path d="M87.0002 64.5471H85.9558V56.0941H84.957V55.0093H87.9994V56.0941H87.0002V64.5471Z" fill="white"/>
<path d="M88.7461 64.5471H89.7905V55.0094H88.7461V64.5471Z" fill="white"/>
<path d="M92.6065 64.7173C92.3493 64.7173 92.109 64.6749 91.8859 64.5896C91.6622 64.5044 91.4698 64.3785 91.3066 64.2121C91.144 64.0453 91.0152 63.8454 90.9209 63.6093C90.8263 63.3732 90.7793 63.1056 90.7793 62.8053V56.7517C90.7793 56.4514 90.8263 56.183 90.9209 55.9477C91.0152 55.7119 91.144 55.5139 91.3066 55.3514C91.4698 55.1886 91.6622 55.0627 91.8859 54.9735C92.109 54.8843 92.3493 54.8386 92.6065 54.8386C92.8563 54.8386 93.0929 54.8843 93.316 54.9735C93.5391 55.0627 93.7341 55.1886 93.9007 55.3514C94.067 55.5139 94.1978 55.7119 94.2925 55.9477C94.3871 56.183 94.4344 56.4514 94.4344 56.7517V62.8053C94.4344 63.1056 94.3871 63.3732 94.2925 63.6093C94.1978 63.8454 94.067 64.0453 93.9007 64.2121C93.7341 64.3785 93.5391 64.5044 93.316 64.5896C93.0929 64.6749 92.8563 64.7173 92.6065 64.7173ZM92.6065 55.923C92.372 55.923 92.181 55.9944 92.0333 56.1362C91.8859 56.2791 91.8119 56.488 91.8119 56.7637V62.7933C91.8119 63.069 91.8859 63.2782 92.0333 63.42C92.181 63.5626 92.372 63.6329 92.6065 63.6329C92.8411 63.6329 93.0324 63.5626 93.1798 63.42C93.3275 63.2782 93.4015 63.069 93.4015 62.7933V56.7637C93.4015 56.488 93.3275 56.2791 93.1798 56.1362C93.0324 55.9944 92.8411 55.923 92.6065 55.923Z" fill="white"/>
<path d="M98.9753 64.5471H98.0444L96.3304 57.5313V64.5471H95.4219V55.0093H96.5572L98.0674 61.5874V55.0093H98.9753V64.5471Z" fill="white"/>
<path d="M41.381 87.6675C35.5021 87.6675 30.7363 92.7815 30.7363 99.0893C30.7363 105.397 35.5021 110.511 41.381 110.511C47.2598 110.511 52.0256 105.397 52.0256 99.0893C52.0256 92.7815 47.2598 87.6675 41.381 87.6675Z" fill="#9F5553"/>
<path d="M30.7363 97.1868C30.7363 103.495 35.5021 108.608 41.381 108.608C47.2598 108.608 52.0256 103.495 52.0256 97.1868C52.0256 90.8786 47.2598 85.7654 41.381 85.7654C35.5021 85.7654 30.7363 90.8786 30.7363 97.1868Z" fill="#EFD5AA"/>
<path d="M32.2129 97.1863C32.2129 102.618 36.3168 107.021 41.379 107.021C46.4416 107.021 50.5453 102.618 50.5453 97.1863C50.5453 91.7547 46.4416 87.3512 41.379 87.3512C36.3168 87.3512 32.2129 91.7547 32.2129 97.1863Z" fill="#FCEBD9"/>
<path d="M40.2715 97.187C40.2715 97.8442 40.768 98.3766 41.3805 98.3766C41.9929 98.3766 42.4894 97.8442 42.4894 97.187C42.4894 96.5299 41.9929 95.9971 41.3805 95.9971C40.768 95.9971 40.2715 96.5299 40.2715 97.187Z" fill="#72443F"/>
<path d="M41.8723 97.7156H40.8867V104.59H41.8723V97.7156Z" fill="#72443F"/>
<path d="M40.8329 97.188L41.5299 96.4402L36.9997 91.5797L36.3027 92.3275L40.8329 97.188Z" fill="#72443F"/>
<path d="M65.707 133.538H73.721V144.917H65.7412L65.707 133.538Z" fill="#F4DCAE"/>
<path d="M73.2969 141.801C73.3969 141.813 73.4949 141.831 73.5984 141.831C74.9892 141.831 76.1171 140.694 76.1171 139.292C76.1171 137.89 74.9892 136.753 73.5984 136.753C73.4949 136.753 73.3969 136.771 73.2969 136.783V135.299C73.3966 135.291 73.4963 135.283 73.5984 135.283C75.7947 135.283 77.5749 137.078 77.5749 139.292C77.5749 141.506 75.7947 143.301 73.5984 143.301C73.4963 143.301 73.3966 143.293 73.2969 143.285V141.801Z" fill="#E8CFA5"/>
<path d="M67.9212 141.984C70.2473 141.984 72.133 138.213 72.133 133.561L72.1323 133.538H73.7189V144.917H65.7391L65.7266 140.74C66.3664 141.524 67.1161 141.984 67.9212 141.984Z" fill="#E8CFA5"/>
<path d="M69.9551 130.694C69.9771 129.603 69.7026 128.794 69.2798 128.162H70.0751C70.2508 128.83 70.2586 129.653 69.9551 130.694ZM76.0087 121.467H75.2069C75.2012 121.405 75.1911 121.34 75.1765 121.273C74.4742 118.022 67.2856 119.276 65.9173 117.976C64.7462 116.864 64.6654 113.791 67.5644 112.949C74.5178 110.931 71.8094 105.423 71.8094 105.423C78.7995 113.403 69.2297 114.089 68.6987 114.968C66.8546 118.022 75.9796 115.563 76.0087 121.467Z" fill="#7D4445"/>
<path d="M70.0758 128.163H69.2804C67.8081 125.959 64.5353 125.9 65.7108 123.553C66.0164 122.942 66.6126 122.609 67.3633 122.443H71.492C72.1545 122.498 72.7872 122.548 73.3368 122.548C73.7532 122.548 74.122 122.519 74.4201 122.443H75.8488C75.2482 123.837 73.0515 123.848 71.1036 123.848C71.0888 123.848 71.0746 123.848 71.0597 123.848C71.0593 123.848 71.0587 123.848 71.0583 123.848C69.5857 123.848 68.2641 123.848 67.8943 124.446C67.2538 125.48 69.516 126.037 70.0758 128.163ZM76.0066 121.68H75.2083C75.2147 121.614 75.2144 121.543 75.2076 121.467H76.0094C76.0097 121.537 76.009 121.608 76.0066 121.68Z" fill="#8A4D46"/>
<path d="M75.8488 122.443H74.42C74.8784 122.325 75.1694 122.095 75.2083 121.681H76.0066C76.0066 121.682 76.0066 121.684 76.0066 121.685C75.9975 121.975 75.9424 122.226 75.8488 122.443ZM71.492 122.443H67.3633C67.848 122.335 68.3972 122.297 68.9745 122.297C69.7104 122.297 70.4921 122.36 71.2442 122.422C71.3273 122.429 71.4098 122.436 71.492 122.443Z" fill="#653230"/>
<path d="M283.139 154.53L283.111 155.181C282.166 151.619 279.23 150.537 279.23 150.537C279.23 150.537 282.424 151.351 283.139 154.53Z" fill="#9DAB22"/>
<path d="M284.086 127.75L284.036 128.466C283.365 124.108 280.877 121.723 280.877 121.723C280.877 121.723 283.598 123.911 284.086 127.75Z" fill="#9DAB22"/>
<path d="M283.836 167.382L283.859 168.106C284.43 163.885 286.294 161.964 286.294 161.964C286.294 161.964 284.263 163.645 283.836 167.382Z" fill="#9DAB22"/>
<path d="M283.131 140.156L283.02 140.883C284.381 136.64 286.605 134.71 286.605 134.71C286.605 134.71 284.259 136.4 283.131 140.156Z" fill="#9DAB22"/>
<path d="M285.472 120.586L285.32 121.283C287.17 117.404 290.19 116.067 290.19 116.067C290.19 116.067 287.004 117.131 285.472 120.586Z" fill="#9DAB22"/>
<path d="M284.498 177.911C284.44 177.449 278.812 131.456 288.148 112.401L288.381 112.556C279.15 131.397 285.394 177.307 285.451 177.767L284.498 177.911Z" fill="#9DAB22"/>
<path d="M285.251 163.328C285.084 157.362 289.474 154.428 295.028 155.041C293.615 161.391 288.576 166.167 285.251 163.328Z" fill="#9DAB22"/>
<path d="M281.964 152.666C280.912 146.9 276.132 145.262 270.961 147.341C273.596 153.052 279.369 156.281 281.964 152.666Z" fill="#9DAB22"/>
<path d="M284.94 136.67C290.792 140.2 296.138 136.043 298.59 128.383C291.485 126.722 283.947 130.712 284.94 136.67Z" fill="#9DAB22"/>
<path d="M289.027 116.689C294.439 121.929 300.853 119.003 304.942 111.649C297.848 108.029 289.678 109.4 289.027 116.689Z" fill="#9DAB22"/>
<path d="M283.089 124.665C285.363 117.637 281.188 112.121 274.401 110.295C273.864 118.507 278.165 126.514 283.089 124.665Z" fill="#9DAB22"/>
<path d="M294.523 172.581H273.975V200.36H294.523V172.581Z" fill="#ECDEB7"/>
<path d="M289.867 195.915C282.279 195.915 276.061 185.64 275.47 172.581H273.975V200.36H294.523V194.562C293.061 195.435 291.497 195.915 289.867 195.915Z" fill="#DED1A1"/>
<path d="M70.7657 146.87H68.7969V200.158H69.9366L70.7657 146.87Z" fill="#C5B688"/>
<path d="M52.8204 146.87H50.8516V200.158H51.9916L52.8204 146.87Z" fill="#C5B688"/>
<path d="M41.8341 146.87H39.8652V200.158H41.0053L41.8341 146.87Z" fill="#C5B688"/>
<path d="M22.7111 146.87H20.7422V200.158H21.8823L22.7111 146.87Z" fill="#C5B688"/>
<path d="M52.831 144.661H14.6836V147.242H52.831V144.661Z" fill="#E7DCB6"/>
<path d="M78.7545 144.661H50.7539V147.242H78.7545V144.661Z" fill="#F5EAD0"/>
<path d="M52.6018 136.176C44.7477 134.196 38.0316 128.787 32.2441 130.156C29.0248 130.918 27.0698 132.844 25.9326 135.508C24.8724 137.991 24.5234 141.116 24.5234 144.535H54.6291L52.6018 136.176Z" fill="#AF9880"/>
<path d="M52.6018 137.272C44.7477 135.552 38.0316 130.853 32.2441 132.042C29.0248 132.704 27.0698 134.377 25.9326 136.692C24.8724 138.849 24.5234 141.564 24.5234 144.535H54.6291L52.6018 137.272Z" fill="#A68970"/>
<path d="M42.2393 144.535C42.2393 143.18 40.865 142.197 39.3907 142.365L37.6026 142.569C37.1095 137.999 34.1361 133.151 30.9236 133.151C27.406 133.151 24.5547 137.119 24.5547 142.014C24.5547 142.897 24.6504 143.747 24.823 144.552H37.653L37.6533 144.535H42.2393Z" fill="#AF9880"/>
<path d="M34.4049 154.931C25.3447 155.69 23.0198 144.973 25.2942 138.506L26.0012 138.713C25.3751 140.297 24.4596 148.378 28.5898 150.432C32.722 152.487 35.8624 150.441 36.7807 152.35C37.6328 154.12 35.7376 154.82 34.4049 154.931Z" fill="#AF9880"/>
<path d="M52.0994 144.034C48.5176 141.628 49.4569 134.815 49.4569 134.815C49.4569 134.815 53.982 134.521 56.4156 136.28C58.8489 138.039 59.1751 143.657 59.1751 143.657C59.1751 143.657 54.5431 145.676 52.0994 144.034Z" fill="#AF9880"/>
<path d="M54.2256 130.922C54.2256 130.922 52.1807 132.465 51.6426 135.55L55.1405 135.795C55.3558 134.137 54.2256 130.922 54.2256 130.922Z" fill="#AF9880"/>
<path d="M54.0111 131.884C54.0111 131.884 52.6574 132.906 52.3008 134.948L54.6168 135.11C54.7591 134.012 54.0111 131.884 54.0111 131.884Z" fill="#6E5C4C"/>
<path d="M61.3707 137.017C61.3707 137.017 60.7843 139.708 58.3953 141.336L56.9902 137.721C58.3 136.924 61.3707 137.017 61.3707 137.017Z" fill="#AF9880"/>
<path d="M60.6606 137.619C60.6606 137.619 60.2817 139.359 58.7367 140.411L57.8281 138.074C58.6748 137.559 60.6606 137.619 60.6606 137.619Z" fill="#6E5C4C"/>
<path d="M52.9097 141.365C53.4698 142.029 54.311 140.865 54.311 140.865C54.311 140.865 53.6793 141.976 54.4081 142.625C55.1368 143.274 56.4631 142.159 54.6335 140.545C53.0229 139.125 51.5016 139.694 52.9097 141.365Z" fill="#DDCDBE"/>
<path d="M54.093 141.355C53.5684 140.985 53.7445 140.19 54.0457 140.062C54.3471 139.934 55.1749 140.693 55.1066 140.946C55.0384 141.198 54.4327 141.595 54.093 141.355Z" fill="#6E5C4C"/>
<path d="M53.3375 138.063C53.5741 138.273 53.6526 138.599 53.5451 138.833L53.5961 138.787C53.7546 138.554 53.6732 138.179 53.4143 137.95C53.1554 137.721 52.817 137.725 52.6588 137.958L52.6328 138.025C52.8042 137.849 53.1009 137.854 53.3375 138.063Z" fill="#6E5C4C"/>
<path d="M56.7204 141.373C56.957 141.583 57.0354 141.909 56.9279 142.142L56.9793 142.097C57.1374 141.864 57.056 141.489 56.7974 141.26C56.5382 141.031 56.1998 141.035 56.0417 141.267L56.0156 141.335C56.187 141.159 56.4838 141.164 56.7204 141.373Z" fill="#6E5C4C"/>
<path d="M0 217.6H338V200.192H0V217.6Z" fill="#F4DABD"/>
<path d="M230.008 217.6H91.0898L144.156 200.192H246.908L230.008 217.6Z" fill="#FCEEDE"/>
<path d="M237.714 217.6H230.006L237.714 209.661V217.6ZM93.6366 216.764C93.6386 216.597 93.6457 216.43 93.6511 216.264H93.616V200.914H92.582V200.806H142.283L93.6366 216.764Z" fill="#A27B70"/>
<path d="M230.007 217.6H188.895C187.791 213.576 186.498 209.684 185.226 206.146C186.245 205.587 186.194 202.627 186.194 202.627L188.26 201.145H184.58C184.58 201.145 183.126 204.97 184.24 205.992L179.21 217.6H163.607L163.445 211.408H169.021C169.342 211.408 169.621 210.401 169.759 209.544H174.941C175.836 209.544 176.562 206.792 176.562 205.817H149.008C149.008 206.792 149.733 209.544 150.629 209.544H155.81C155.949 210.401 156.228 211.408 156.548 211.408H162.125L161.962 217.6H150.077L146.605 206.223C146.655 206.215 146.706 206.201 146.76 206.184C148.454 205.628 146.751 201.145 146.751 201.145H143.07L145.136 202.627C145.136 202.627 145.084 205.669 146.147 206.167C144.403 209.704 142.559 213.583 140.897 217.6H93.6526C93.6421 217.348 93.6367 217.096 93.6367 216.842C93.6367 216.816 93.6367 216.79 93.6371 216.764L142.284 200.806H238.748V200.914H237.714V209.661L230.007 217.6ZM150.031 201.145C149.365 201.145 148.748 201.741 148.573 202.613C148.372 203.618 148.835 204.609 149.607 204.826C149.71 204.855 149.812 204.868 149.913 204.868C150.578 204.868 151.196 204.272 151.371 203.4C151.572 202.395 151.109 201.405 150.337 201.187C150.234 201.159 150.132 201.145 150.031 201.145ZM176.066 201.298C175.426 201.298 174.891 202.018 174.866 202.926C174.84 203.849 175.35 204.616 176.004 204.64C176.015 204.64 176.025 204.64 176.036 204.64C176.676 204.64 177.211 203.92 177.237 203.012C177.262 202.09 176.753 201.322 176.098 201.299C176.087 201.299 176.077 201.298 176.066 201.298ZM162.445 201.298C161.665 201.298 161.015 202.018 160.984 202.926C160.952 203.849 161.573 204.616 162.37 204.64C162.383 204.64 162.395 204.64 162.408 204.64C163.188 204.64 163.839 203.92 163.87 203.012C163.902 202.09 163.281 201.322 162.484 201.299C162.471 201.299 162.458 201.298 162.445 201.298Z" fill="#A5847F"/>
<path d="M93.6172 216.771V216.264H93.6527C93.6472 216.431 93.64 216.597 93.638 216.764L93.6172 216.771Z" fill="#997268"/>
<path d="M93.6537 217.6H93.6172V216.771L93.638 216.764C93.6376 216.79 93.6376 216.816 93.6376 216.842C93.6376 217.096 93.6431 217.348 93.6537 217.6" fill="#9B7A78"/>
<path d="M240.934 217.6H237.717V209.661L240.934 206.347V217.6Z" fill="#AA8278"/>
<path d="M237.717 209.661V200.914H240.934V206.347L237.717 209.661Z" fill="#AC8B86"/>
<path d="M91.0902 217.6H90.4004V200.914H93.6178V216.264V216.771L91.0902 217.6Z" fill="#AA8278"/>
<path d="M93.6174 217.6H91.0898L93.6174 216.771V217.6Z" fill="#AC8B86"/>
<path d="M188.897 217.6H188.896C187.794 213.576 186.5 209.684 185.229 206.146C186.5 209.684 187.794 213.576 188.897 217.6Z" fill="#967776"/>
<path d="M188.896 217.6H179.213L184.242 205.992C184.334 206.077 184.444 206.142 184.573 206.184C184.68 206.219 184.78 206.236 184.874 206.236C185.005 206.236 185.122 206.204 185.229 206.146C186.501 209.684 187.794 213.576 188.896 217.6" fill="#8D706E"/>
<path d="M140.9 217.6H140.898C142.561 213.583 144.405 209.704 146.149 206.167C144.405 209.703 142.561 213.584 140.9 217.6Z" fill="#967776"/>
<path d="M150.079 217.6H140.9C142.562 213.584 144.406 209.703 146.149 206.167C146.244 206.212 146.348 206.236 146.461 206.236C146.508 206.236 146.557 206.232 146.607 206.223L150.079 217.6Z" fill="#8D706E"/>
<path d="M149.914 204.869C149.813 204.869 149.711 204.855 149.609 204.826C148.836 204.61 148.373 203.618 148.574 202.614C148.749 201.742 149.367 201.145 150.032 201.145C150.134 201.145 150.236 201.159 150.338 201.188C151.11 201.405 151.574 202.396 151.372 203.401C151.198 204.273 150.58 204.869 149.914 204.869Z" fill="#F7EED4"/>
<path d="M162.41 204.64C162.397 204.64 162.385 204.64 162.372 204.64C161.575 204.615 160.954 203.848 160.986 202.926C161.017 202.018 161.667 201.298 162.447 201.298C162.46 201.298 162.473 201.298 162.486 201.299C163.283 201.322 163.903 202.089 163.872 203.012C163.841 203.92 163.19 204.64 162.41 204.64Z" fill="#F7EED4"/>
<path d="M176.038 204.64C176.028 204.64 176.017 204.64 176.007 204.64C175.352 204.615 174.842 203.848 174.868 202.926C174.893 202.018 175.428 201.298 176.069 201.298C176.08 201.298 176.09 201.298 176.1 201.299C176.755 201.322 177.265 202.089 177.239 203.012C177.214 203.92 176.679 204.64 176.038 204.64Z" fill="#F7EED4"/>
<path d="M163.61 217.6H161.965L162.128 211.408H163.447L163.61 217.6Z" fill="#C69293"/>
<path d="M184.872 206.236C184.778 206.236 184.678 206.219 184.571 206.184C184.442 206.141 184.332 206.077 184.24 205.992C183.127 204.97 184.58 201.145 184.58 201.145H188.261L186.195 202.627C186.195 202.627 186.246 205.587 185.227 206.145C185.12 206.203 185.002 206.236 184.872 206.236Z" fill="#E4D8B2"/>
<path d="M146.46 206.236C146.346 206.236 146.242 206.211 146.148 206.167C145.084 205.669 145.137 202.627 145.137 202.627L143.07 201.145H146.751C146.751 201.145 148.455 205.628 146.761 206.184C146.707 206.201 146.656 206.214 146.606 206.223C146.555 206.231 146.507 206.236 146.46 206.236Z" fill="#E4D8B2"/>
<path d="M174.942 209.545H169.76C169.819 209.175 169.853 208.833 169.853 208.613H155.717C155.717 208.833 155.751 209.175 155.811 209.545H150.629C149.733 209.545 149.008 206.792 149.008 205.817H176.563C176.563 206.792 175.837 209.545 174.942 209.545Z" fill="#C69293"/>
<path d="M169.023 211.408H156.55C156.229 211.408 155.951 210.401 155.812 209.544C155.753 209.175 155.719 208.833 155.719 208.613H169.855C169.855 208.833 169.821 209.175 169.761 209.544C169.623 210.401 169.344 211.408 169.023 211.408Z" fill="#C69293"/>
<path d="M294.521 217.6H277.496C280.025 210.138 284.618 205.148 289.866 205.148C291.495 205.148 293.06 205.636 294.521 206.522V217.6Z" fill="#EFDCBA"/>
<path d="M277.498 217.6H273.975V200.636H294.523V206.522C293.061 205.636 291.497 205.148 289.867 205.148C284.619 205.148 280.027 210.138 277.498 217.6Z" fill="#E7D5AD"/>
<path d="M70.1915 217.6H68.7949V200.839H69.9347L70.1915 217.6Z" fill="#D8C59D"/>
<path d="M52.2485 217.6H50.8516V200.839H51.9916L52.2485 217.6Z" fill="#D8C59D"/>
<path d="M41.2622 217.6H39.8652V200.839H41.0053L41.2622 217.6Z" fill="#D8C59D"/>
<path d="M22.1391 217.6H20.7422V200.839H21.8823L22.1391 217.6Z" fill="#D8C59D"/>
<path d="M164.262 202.187C206.949 202.187 241.854 201.305 244.436 200.192H84.0879C86.6695 201.305 121.574 202.187 164.262 202.187Z" fill="#F4DABD"/>
</svg>
