<svg width="25" height="24" viewBox="0 0 25 24" fill="none" xmlns="http://www.w3.org/2000/svg">
<path d="M16.5721 23.1508C16.376 23.1154 16.1842 23.0591 16.0001 22.9829C12.4857 21.5796 9.43907 19.2125 7.21072 16.154C5.04073 13.1001 3.80224 9.48268 3.64511 5.73957C3.63088 5.27402 3.7367 4.81264 3.95239 4.39982C4.16808 3.98701 4.48638 3.63664 4.87666 3.38244L7.60976 1.55104C7.749 1.4595 7.90598 1.39836 8.07045 1.37159C8.23492 1.34482 8.40319 1.35304 8.56427 1.39571C8.73065 1.44353 8.88454 1.52722 9.01511 1.6409C9.14568 1.75457 9.24976 1.89548 9.32003 2.05369L11.4708 6.88394C11.5505 7.07068 11.5681 7.27807 11.521 7.47557C11.474 7.67308 11.3648 7.85027 11.2096 7.98108L9.43396 9.47108C9.78773 10.8656 10.4063 12.1791 11.256 13.3401C12.0928 14.5354 13.151 15.5591 14.3733 16.3559L16.444 15.2374C16.6179 15.144 16.816 15.1058 17.012 15.1277C17.2081 15.1497 17.3928 15.2308 17.5417 15.3603L21.4406 18.9906C21.5757 19.1077 21.6826 19.2539 21.7532 19.4182C21.8238 19.5825 21.8563 19.7606 21.8483 19.9392C21.8402 20.1179 21.7919 20.2924 21.7069 20.4497C21.6218 20.607 21.5023 20.743 21.3572 20.8476L18.6814 22.6952C18.3773 22.9065 18.0343 23.0555 17.6723 23.1337C17.3103 23.2119 16.9364 23.2177 16.5721 23.1508ZM8.26556 2.53433L5.53247 4.36573C5.31311 4.50763 5.13446 4.70419 5.01409 4.93607C4.89372 5.16794 4.83578 5.42716 4.84596 5.68822C4.98662 9.19941 6.14115 12.5947 8.17003 15.4639C10.2672 18.3414 13.1344 20.5682 16.4415 21.8877C16.6917 21.9883 16.963 22.0251 17.231 21.995C17.4989 21.9649 17.7552 21.8688 17.9769 21.7153L20.6527 19.8677L16.8879 16.3636L14.6633 17.5691C14.5782 17.6149 14.4832 17.6392 14.3865 17.6398C14.2899 17.6405 14.1946 17.6175 14.1089 17.5729C12.5968 16.6891 11.2987 15.4821 10.3074 14.0381C9.2638 12.6472 8.54779 11.0386 8.21274 9.33224C8.20374 9.23095 8.22096 9.12904 8.26274 9.03633C8.30452 8.94362 8.36945 8.86321 8.4513 8.80286L10.3616 7.19836L8.26556 2.53433Z" fill="#ED303C"/>
</svg>
