<svg width="19" height="16" viewBox="0 0 19 16" fill="none" xmlns="http://www.w3.org/2000/svg">
<path d="M18.4438 6.20444V14.2222C18.4438 15.2 17.6438 16 16.666 16H2.44379C1.46602 16 0.666016 15.2 0.666016 14.2222L0.674905 3.55556C0.674905 2.57778 1.46602 1.77778 2.44379 1.77778H11.4216C11.3682 2.06222 11.3327 2.36444 11.3327 2.66667C11.3327 2.96889 11.3682 3.27111 11.4216 3.55556H2.44379L9.5549 8L12.8171 5.96444C13.2349 6.34667 13.7238 6.64 14.266 6.83556L9.5549 9.77778L2.44379 5.33333V14.2222H16.666V7.02222C17.3238 6.88889 17.9282 6.59556 18.4438 6.20444ZM13.1105 2.66667C13.1105 4.14222 14.3016 5.33333 15.7771 5.33333C17.2527 5.33333 18.4438 4.14222 18.4438 2.66667C18.4438 1.19111 17.2527 0 15.7771 0C14.3016 0 13.1105 1.19111 13.1105 2.66667Z" fill="#ED303C"/>
</svg>
