<svg width="56" height="56" viewBox="0 0 56 56" fill="none" xmlns="http://www.w3.org/2000/svg">
<path d="M30.3379 42.5595V29.2981H34.9806L35.6707 24.1058H30.3379V20.7985C30.3379 19.3002 30.7711 18.2744 33.0026 18.2744H35.8302V13.6452C34.4544 13.5031 33.0715 13.4345 31.6879 13.4397C27.5842 13.4397 24.7667 15.8538 24.7667 20.2856V24.0961H20.1543V29.2884H24.7768V42.5595H30.3379Z" fill="#ED303C"/>
<path d="M55.3186 27.9995C55.3186 43.0955 43.0842 55.3328 27.9926 55.3328C12.9011 55.3328 0.666667 43.0955 0.666667 27.9995C0.666667 12.9036 12.9011 0.666178 27.9926 0.666178C43.0842 0.666178 55.3186 12.9036 55.3186 27.9995Z" stroke="#ED303C" stroke-width="1.33333"/>
</svg>
