<svg width="338" height="224" viewBox="0 0 338 224" fill="none" xmlns="http://www.w3.org/2000/svg">
<path d="M154.579 129.426L142.096 134.344L154.579 139.263V141.366L139.824 135.464V133.225L154.579 127.289V129.426ZM147.795 158.656H150L138.806 190.608H136.601L147.795 158.656ZM154.579 215.225V217.464L139.824 223.366V221.263L152.306 216.344L139.824 211.426V209.289L154.579 215.225Z" fill="#262A41"/>
<path d="M213.508 79.2797C212.77 95.43 196.895 107.805 185.003 108.552C169.292 109.54 158.063 95.3706 156.498 79.2797C155.143 65.3395 160.093 65.5472 163.781 59.7368C168.248 52.6962 176.574 48.8061 185.003 48.8061C200.746 48.8061 214.5 57.5509 213.508 79.2797Z" fill="#D82B62"/>
<path d="M196.051 107.044V134.704H173.957V107.044H196.051Z" fill="#F3A29C"/>
<path d="M209.821 90.9116C213.761 84.9311 218.776 84.6685 220.869 91.7417C222.963 98.8154 216.052 104.635 210.426 102.487C204.799 100.34 209.821 90.9116 209.821 90.9116Z" fill="#F3A29C"/>
<path d="M214.474 91.0677C217.114 90.5847 218.467 98.4499 212.678 98.7095L213.868 95.9649L212.751 93.6822L214.474 91.0677Z" fill="#EF7691"/>
<path d="M211.903 99.8729C213.3 98.3842 213.726 97.0602 213.725 96.016C213.724 94.5075 212.851 93.6076 212.841 93.5963L212.752 93.6823L212.863 93.7367C212.863 93.7357 212.966 93.5246 213.144 93.2042C213.411 92.7241 213.846 92.0027 214.34 91.4075C214.833 90.8087 215.393 90.3548 215.847 90.3628C216.078 90.3642 216.298 90.4636 216.522 90.7435C216.744 91.0233 216.956 91.4846 217.131 92.1738L217.37 92.113C217.189 91.4035 216.97 90.913 216.716 90.5902C216.463 90.2673 216.159 90.1141 215.847 90.1155C215.441 90.1175 215.051 90.3544 214.683 90.6856C213.585 91.6829 212.645 93.622 212.641 93.6279L212.603 93.706L212.663 93.7683L212.695 93.8039C212.847 93.9789 213.479 94.7839 213.478 96.016C213.477 96.9919 213.087 98.2478 211.723 99.7038L211.903 99.8729Z" fill="#DE677E"/>
<path d="M160.003 90.9116C156.061 84.9311 151.047 84.6685 148.954 91.7417C146.86 98.8154 153.77 104.635 159.397 102.487C165.024 100.34 160.003 90.9116 160.003 90.9116Z" fill="#F3A29C"/>
<path d="M155.351 91.0677C152.711 90.5847 151.358 98.4499 157.147 98.7095L155.957 95.9649L157.074 93.6822L155.351 91.0677Z" fill="#EF7691"/>
<path d="M158.102 99.7032C156.737 98.2476 156.347 96.9918 156.346 96.0158C156.346 95.3108 156.551 94.7476 156.757 94.36C156.859 94.1662 156.962 94.0169 157.038 93.9165C157.076 93.8666 157.108 93.8285 157.129 93.8038L157.161 93.7682L157.221 93.7059L157.183 93.6278C157.182 93.6248 156.761 92.7601 156.157 91.8904C155.856 91.4548 155.509 91.0182 155.141 90.6855C154.773 90.3542 154.383 90.1174 153.977 90.1154C153.665 90.1139 153.361 90.2672 153.108 90.5901C152.853 90.9129 152.635 91.4034 152.453 92.1129L152.693 92.1737C152.868 91.4845 153.08 91.0232 153.302 90.7433C153.526 90.4635 153.746 90.3641 153.977 90.3626C154.279 90.3607 154.63 90.5545 154.975 90.8684C155.494 91.3376 155.995 92.057 156.361 92.6572C156.544 92.9573 156.695 93.2278 156.799 93.4226C156.903 93.6179 156.961 93.7361 156.961 93.7366L157.072 93.6822L156.984 93.5961C156.973 93.6075 156.1 94.5069 156.099 96.0158C156.098 97.0601 156.524 98.3841 157.921 99.8728L158.102 99.7037" fill="#DE677E"/>
<path d="M196.051 107.656V117.946C188.111 128.704 173.957 125.206 173.957 125.206L174.204 107.656H196.051Z" fill="#DE677E"/>
<path d="M185.006 119.446C171.816 119.446 161.125 108.755 161.125 95.566V78.115C161.125 69.207 168.346 61.9855 177.254 61.9855H192.757C201.665 61.9855 208.886 69.207 208.886 78.115V95.566C208.886 108.755 198.195 119.446 185.006 119.446Z" fill="#F3A29C"/>
<path d="M188.432 98.6876C188.432 99.6349 188.049 100.49 187.428 101.111C186.807 101.731 185.952 102.114 185.005 102.114C184.058 102.114 183.203 101.731 182.582 101.111C181.962 100.49 181.578 99.6349 181.578 98.6876H181.084C181.084 100.854 182.839 102.608 185.005 102.609C187.171 102.608 188.926 100.854 188.926 98.6876H188.432Z" fill="#D82B62"/>
<path d="M163.648 63.0535C163.648 63.0535 159.465 56.1202 164.704 50.0072C164.704 50.0072 168.468 56.9765 163.648 63.0535Z" fill="#D82B62"/>
<path d="M165.771 61.407C165.771 61.407 159.947 67.032 152.818 63.2897C152.818 63.2897 158.772 58.0652 165.771 61.407Z" fill="#D82B62"/>
<path d="M175.521 90.116C175.521 92.0907 174.679 93.6912 173.642 93.6912C172.605 93.6912 171.764 92.0907 171.764 90.116C171.764 88.1413 172.605 86.5408 173.642 86.5408C174.679 86.5408 175.521 88.1413 175.521 90.116Z" fill="#2A2E4B"/>
<path d="M182.273 89.8499H181.284C181.284 92.232 180.322 94.3793 178.761 95.9417C177.199 97.5021 175.052 98.4642 172.67 98.4647C170.288 98.4642 168.141 97.5021 166.579 95.9417C165.018 94.3793 164.056 92.232 164.056 89.8499C164.056 87.4683 165.018 85.321 166.579 83.7587C168.141 82.1983 170.288 81.2361 172.67 81.2356C175.052 81.2361 177.199 82.1983 178.761 83.7587C180.322 85.321 181.284 87.4683 181.284 89.8499H182.273H183.262C183.262 83.9999 178.521 79.2584 172.67 79.258C166.82 79.2584 162.079 83.9999 162.078 89.8499C162.079 95.7004 166.82 100.441 172.67 100.442C178.521 100.442 183.262 95.7004 183.262 89.8499H182.273Z" fill="white"/>
<path d="M198.245 90.116C198.245 92.0907 197.404 93.6912 196.367 93.6912C195.329 93.6912 194.488 92.0907 194.488 90.116C194.488 88.1413 195.329 86.5408 196.367 86.5408C197.404 86.5408 198.245 88.1413 198.245 90.116Z" fill="#2A2E4B"/>
<path d="M206.941 89.8499H205.952C205.952 92.232 204.99 94.3793 203.429 95.9417C201.867 97.5021 199.72 98.4642 197.338 98.4647C194.956 98.4642 192.809 97.5021 191.247 95.9417C189.686 94.3793 188.724 92.232 188.724 89.8499C188.724 87.4683 189.686 85.321 191.247 83.7587C192.809 82.1983 194.956 81.2361 197.338 81.2356C199.72 81.2361 201.867 82.1983 203.429 83.7587C204.99 85.321 205.952 87.4683 205.952 89.8499H206.941H207.93C207.93 83.9999 203.188 79.2584 197.338 79.258C191.488 79.2584 186.747 83.9999 186.746 89.8499C186.747 95.7004 191.488 100.441 197.338 100.442C203.188 100.441 207.93 95.7004 207.93 89.8499H206.941Z" fill="white"/>
<path d="M164.082 68.8009C164.082 68.8009 179.253 60.8032 189.334 66.5998C199.415 72.3964 200.549 84.3673 210.504 81.2692C210.504 81.2692 218.064 77.9408 209.748 66.3476C201.432 54.7549 195.741 52.4865 184.914 55.0066C174.087 57.5267 167.042 59.4865 164.082 68.8009Z" fill="#D82B62"/>
<path d="M163.504 68.6858C163.504 68.6858 168.512 62.0457 175.522 60.29C182.531 58.5353 190.285 67.1575 190.285 67.1575C190.285 67.1575 172.325 64.5969 163.504 68.6858Z" fill="#AF2153"/>
<path d="M161.16 77.038C161.16 77.038 162.849 89.3614 161.16 96.8826C161.16 96.8826 158.691 77.7732 161.16 77.038Z" fill="#D82B62"/>
<path d="M208.712 77.038C208.712 77.038 207.023 89.3614 208.712 96.8826C208.712 96.8826 211.181 77.7732 208.712 77.038Z" fill="#D82B62"/>
<path d="M177.924 76.0764C175.318 74.829 170.683 73.4599 166.389 76.5184C165.669 77.0311 165.943 78.1639 166.814 78.3142C168.191 78.5515 170.168 78.7972 172.405 78.7834C174.144 78.772 176.202 78.3443 177.739 77.9488C178.642 77.7164 178.765 76.4789 177.924 76.0764Z" fill="#D82B62"/>
<path d="M203.087 76.0764C200.482 74.829 195.847 73.4599 191.553 76.5184C190.833 77.0311 191.107 78.1639 191.978 78.3142C193.356 78.5515 195.332 78.7972 197.569 78.7834C199.308 78.772 201.366 78.3443 202.902 77.9488C203.806 77.7164 203.929 76.4789 203.087 76.0764Z" fill="#D82B62"/>
<path d="M193.082 107.313C192.835 107.755 192.542 108.217 192.141 108.677C190.865 110.214 188.697 111.69 184.983 111.758L184.978 111.775L184.705 111.769L184.694 111.747C181.212 111.678 179.067 110.368 177.773 108.922C177.272 108.379 176.891 107.805 176.618 107.288C175.999 106.1 175.838 105.166 175.838 105.166L193.87 105.201C193.87 105.201 193.721 106.134 193.082 107.313Z" fill="#E72B61"/>
<path d="M193.082 107.313C192.835 107.755 192.542 108.217 192.141 108.678C188.003 106.859 183.024 106.478 177.773 108.922C177.272 108.379 176.891 107.805 176.618 107.288C175.999 106.101 175.838 105.167 175.838 105.167L193.87 105.201C193.87 105.201 193.721 106.134 193.082 107.313Z" fill="#2A2E4B"/>
<path d="M261.652 203.408L99.9961 203.576C99.9961 203.576 103.012 197.267 107.353 188.907C107.674 188.289 108.005 187.655 108.342 187.013C114.27 175.705 122.245 161.422 128.47 153.674C135.639 144.755 152.578 138.396 164.083 134.92C170.787 132.898 175.642 131.856 175.642 131.856H194.212C194.212 131.856 198.573 132.79 204.734 134.614C216.229 138.011 233.415 144.982 241.385 153.674C243.135 155.582 244.782 157.891 246.325 160.453C256.134 176.753 261.652 203.408 261.652 203.408Z" fill="#F78F45"/>
<path d="M99.9961 203.576C99.9961 203.576 100.016 203.534 100.055 203.453H140.079V203.534L99.9961 203.576ZM141.563 203.533V203.453H193.698C193.805 203.453 193.913 203.45 194.018 203.441C194.049 203.439 194.08 203.436 194.111 203.433C196.941 203.175 196.643 198.898 193.803 198.898H163.044C163.044 198.896 163.043 198.894 163.041 198.889C163.037 198.876 163.029 198.849 163.017 198.809L162.14 196.331C207.73 194.496 233.03 171.051 240.235 163.239C241.801 161.54 243.976 160.518 246.286 160.454L246.325 160.453C256.134 176.753 261.652 203.408 261.652 203.408L141.563 203.533Z" fill="#F57C2F"/>
<path d="M182.469 92.4719H187.541V90.4942H182.469V92.4719Z" fill="white"/>
<path d="M204.733 134.612C184.722 156.628 164.082 134.923 164.082 134.923C170.787 132.896 175.644 131.853 175.644 131.853H194.213C194.213 131.853 198.574 132.791 204.733 134.612Z" fill="#F3A29C"/>
<path d="M140.078 203.606H141.561V178.498H140.078V203.606Z" fill="#F57819"/>
<path d="M141.405 194.043L134.663 185.447L133.496 186.362L140.238 194.958L141.405 194.043Z" fill="#F57819"/>
<path d="M227.988 203.606H229.472V178.498H227.988V203.606Z" fill="#F57819"/>
<path d="M229.314 194.958L235.3 187.326L234.133 186.411L228.146 194.043" fill="#F57819"/>
<path d="M162.707 145.09C162.734 145.109 165.439 146.954 169.68 148.804C173.92 150.652 179.699 152.511 185.893 152.513C189.14 152.513 192.502 151.998 195.797 150.694C199.092 149.391 202.315 147.296 205.274 144.165L204.196 143.146C201.377 146.126 198.348 148.089 195.251 149.315C192.154 150.541 188.985 151.029 185.893 151.029C179.999 151.031 174.394 149.243 170.273 147.444C168.212 146.546 166.523 145.647 165.352 144.974C164.767 144.638 164.311 144.359 164.004 144.164C163.85 144.067 163.733 143.991 163.656 143.94L163.57 143.883L163.544 143.866L162.707 145.09Z" fill="#F57819"/>
<path d="M232.103 214.376L222.219 201.356L212.277 214.376H207.542L219.852 198.397L208.134 183.247H212.869L222.219 195.438L231.57 183.247H236.186L224.468 198.397L236.896 214.376H232.103Z" fill="white"/>
<path d="M163.508 58.4167C169.079 35.0015 224.893 37.5779 214.507 83.1669C211.395 96.8228 188.648 52.1247 169.016 63.0905C167.549 63.9102 165.72 63.6981 164.493 62.5491C163.366 61.4935 163.15 59.9188 163.508 58.4167Z" fill="#D82B62"/>
<path d="M194.163 203.423L194.109 203.433C193.976 203.448 193.837 203.453 193.698 203.453H85.4251C83.9868 203.453 82.7063 202.785 81.8707 201.737C81.2478 200.96 80.8769 199.971 80.8769 198.899L80.8616 198.849L64.0019 151.212C62.7114 147.573 65.4115 143.751 69.2729 143.751H139.57C141.943 143.751 144.053 145.244 144.845 147.479L163.015 198.81C163.035 198.869 163.045 198.899 163.045 198.899H193.802C196.625 198.899 196.937 203.121 194.163 203.423Z" fill="#67AEBB"/>
<path d="M113.417 172.509C115.195 177.678 113.185 183.055 108.928 184.519C104.671 185.983 99.7783 182.98 98.0008 177.811C96.2229 172.642 98.2332 167.265 102.491 165.801C106.748 164.337 111.64 167.34 113.417 172.509Z" fill="white"/>
<path d="M193.804 198.898H163.044C163.044 198.898 163.036 198.867 163.018 198.809L144.845 147.478C144.053 145.243 141.943 143.752 139.571 143.752H137.221C137.221 143.752 142.473 144.095 143.786 148.795C145.099 153.491 163.044 203.353 163.044 203.353L164.371 203.451H193.697C193.839 203.451 193.978 203.446 194.111 203.433C196.942 203.175 196.644 198.898 193.804 198.898Z" fill="#3B719A"/>
<path d="M193.699 203.453H85.4255C83.9872 203.453 82.7067 202.785 81.8711 201.737C84.5271 201.965 87.0625 202.075 89.4817 202.075C142.037 202.075 140.04 150.475 139.617 144.344C141.185 144.967 143.07 146.234 143.786 148.795C145.099 153.491 163.044 203.353 163.044 203.353L164.371 203.451H193.697C193.806 203.451 193.914 203.449 194.018 203.441C193.913 203.45 193.806 203.453 193.699 203.453ZM163.044 198.898C163.044 198.898 163.044 198.894 163.042 198.888C163.043 198.894 163.044 198.896 163.045 198.898H163.044ZM144.541 146.775C144.54 146.774 144.54 146.774 144.539 146.773C144.54 146.774 144.54 146.774 144.541 146.775ZM144.537 146.769C143.586 144.934 141.682 143.752 139.571 143.752H139.57C139.57 143.751 139.57 143.751 139.57 143.751C141.682 143.751 143.586 144.933 144.537 146.769Z" fill="#58A5B0"/>
<path d="M193.697 203.451H164.371L163.044 203.353C163.044 203.353 145.099 153.491 143.786 148.795C143.07 146.234 141.185 144.966 139.617 144.343C139.592 143.975 139.572 143.771 139.57 143.752H139.571C141.682 143.752 143.586 144.934 144.538 146.769C144.539 146.77 144.539 146.772 144.54 146.773C144.54 146.774 144.541 146.774 144.541 146.775C144.657 147 144.759 147.235 144.846 147.479L163.016 198.81C163.029 198.849 163.037 198.876 163.042 198.888C163.044 198.894 163.044 198.898 163.044 198.898C163.045 198.898 163.045 198.899 163.045 198.899H193.319C193.645 200.397 193.932 201.905 194.164 203.423L194.109 203.433C194.079 203.436 194.049 203.439 194.018 203.441C193.914 203.448 193.807 203.451 193.697 203.451Z" fill="#3D809B"/>
<path d="M65.4182 172.004V173.598C62.5377 173.928 61.8331 176.363 61.8331 179.329V180.309C61.8331 183.274 62.5377 185.71 65.4182 186.039V187.625H10.3447C8.08484 187.625 6.25391 185.794 6.25391 183.534V176.103C6.25391 173.843 8.08484 172.004 10.3447 172.004H65.4182Z" fill="#3B719A"/>
<path d="M64.5603 184.407C64.8901 185.188 64.2849 186.039 63.4419 186.039L10.8125 186.077V173.56L63.4419 173.598C63.7485 173.598 64.0243 173.712 64.231 173.896C64.5989 174.203 64.7675 174.732 64.5603 175.229C64.1237 176.272 64.139 177.72 64.139 179.329V180.308C64.139 181.917 64.1237 183.365 64.5603 184.407Z" fill="white"/>
<path d="M13.5234 180.876V173.562L54.2785 173.592C54.2528 173.67 54.678 173.996 55.3217 174.442C49.2784 174.854 41.0463 175.498 33.4733 176.364H13.6131V177.492H24.9994C22.2509 177.925 19.8092 178.396 17.8813 178.905H13.6131V180.033H14.6469C14.1102 180.305 13.7278 180.587 13.5234 180.876Z" fill="#CAEDEF"/>
<path d="M13.5236 187.628H8.89599C7.43686 187.628 6.25391 186.445 6.25391 184.986V174.65C6.25391 173.191 7.43686 172.008 8.89599 172.008H13.5236V187.628Z" fill="#3B719A"/>
<path d="M64.6504 184.857C64.6509 184.718 64.6257 184.576 64.5703 184.435C64.6257 184.576 64.6509 184.718 64.6504 184.857Z" fill="#4A697F"/>
<path d="M52.9355 186.046C55.9827 185.7 57.8481 184.566 58.9882 183.265H64.1391V182.137H59.7912C60.2124 181.399 60.4537 180.663 60.5911 180.033H64.1391V180.309C64.1391 180.415 64.1391 180.522 64.1391 180.627C64.1391 182.108 64.153 183.435 64.5604 184.407C64.5643 184.417 64.5683 184.426 64.5717 184.435C64.6271 184.575 64.6523 184.718 64.6518 184.857C64.6498 185.483 64.1233 186.039 63.442 186.039L52.9355 186.046Z" fill="#CAEDEF"/>
<path d="M64.1368 178.905H60.7495C60.7772 178.491 60.7579 178.24 60.7579 178.24C60.7797 178.163 60.4267 177.881 59.8759 177.492H64.1368V176.364H58.2067C57.2001 175.698 56.0995 174.982 55.3203 174.442C60.4193 174.094 63.9578 173.911 64.2288 173.896C64.4874 174.112 64.6476 174.437 64.648 174.785C64.648 174.931 64.6199 175.082 64.5581 175.229C64.5343 175.287 64.5116 175.345 64.4903 175.404C64.1576 176.334 64.1378 177.553 64.1368 178.905Z" fill="#CAEDEF"/>
<path d="M63.4399 173.598L54.2773 173.591C54.2773 173.591 54.2778 173.591 54.2778 173.59L63.4399 173.598Z" fill="#5799B5"/>
<path d="M55.3217 174.442C54.6779 173.996 54.2527 173.67 54.2784 173.591L63.441 173.598C63.7476 173.598 64.0235 173.713 64.2301 173.896C63.9592 173.911 60.4206 174.094 55.3217 174.442Z" fill="#AEE4E9"/>
<path d="M60.5898 180.033H14.6465C15.4241 179.639 16.5261 179.263 17.8809 178.905H60.7505C60.7303 179.207 60.6853 179.594 60.5898 180.033ZM64.1378 179.01C64.1378 178.975 64.1378 178.94 64.1378 178.905C64.1378 178.94 64.1378 178.975 64.1378 179.01Z" fill="#CAEDEF"/>
<path d="M14.6471 180.033H13.6133V178.905H17.8815C16.5267 179.263 15.4247 179.639 14.6471 180.033Z" fill="#AEE4E9"/>
<path d="M64.1378 180.033H60.5898C60.6853 179.594 60.7303 179.207 60.7505 178.905H64.1378C64.1378 178.94 64.1378 178.975 64.1378 179.01C64.1378 179.116 64.1378 179.222 64.1378 179.329V180.033Z" fill="#AEE4E9"/>
<path d="M59.8779 177.492H25C27.6061 177.082 30.4887 176.705 33.4739 176.364H58.2087C58.8342 176.777 59.423 177.172 59.8779 177.492Z" fill="#CAEDEF"/>
<path d="M24.9996 177.492H13.6133V176.364H33.4735C30.4883 176.705 27.6058 177.082 24.9996 177.492Z" fill="#AEE4E9"/>
<path d="M64.1371 177.492H59.8762C59.4213 177.172 58.8325 176.777 58.207 176.364H64.1371V177.492Z" fill="#AEE4E9"/>
<path d="M58.9876 183.265H13.6133V182.137H59.7905C59.574 182.517 59.3099 182.898 58.9876 183.265Z" fill="#CAEDEF"/>
<path d="M64.1391 183.265H58.9883C59.3106 182.898 59.5747 182.517 59.7912 182.137H64.1391V183.265Z" fill="#AEE4E9"/>
<path d="M47.8651 183.74L45.1789 181.061L42.4922 183.74V176.364H47.8651V183.74Z" fill="#E72B61"/>
<path d="M71.3088 187.572V189.165C68.4283 189.494 67.7233 191.931 67.7233 194.896V195.876C67.7233 198.84 68.4283 201.277 71.3088 201.606V203.192H16.2355C13.9756 203.192 12.1445 201.361 12.1445 199.102V191.67C12.1445 189.41 13.9756 187.572 16.2355 187.572H71.3088Z" fill="#E72B61"/>
<path d="M70.4512 199.975C70.781 200.756 70.1758 201.606 69.3328 201.606L16.7031 201.644V189.127L69.3328 189.165C69.6394 189.165 69.9153 189.28 70.1219 189.464C70.4898 189.771 70.6584 190.299 70.4512 190.797C70.0146 191.839 70.03 193.286 70.03 194.895V195.876C70.03 197.485 70.0146 198.933 70.4512 199.975Z" fill="white"/>
<path d="M19.4141 196.444V189.129L60.1692 189.159C60.144 189.238 60.5692 189.564 61.2124 190.01C55.1691 190.422 46.9375 191.065 39.3635 191.931H19.5038V193.06H30.8885C28.14 193.493 25.6986 193.964 23.7707 194.472H19.5038V195.601H20.5367C20 195.872 19.6186 196.153 19.4143 196.443C19.4143 196.443 19.4141 196.443 19.4141 196.444Z" fill="#CAEDEF"/>
<path d="M19.414 203.195H14.7866C13.3271 203.195 12.1445 202.012 12.1445 200.553V190.217C12.1445 188.758 13.3271 187.575 14.7866 187.575H19.414V203.195Z" fill="#E72B61"/>
<path d="M58.8242 201.614C58.8247 201.614 58.8252 201.614 58.8257 201.614L69.3307 201.606C69.6392 201.606 69.9155 201.493 70.1262 201.31C69.9155 201.493 69.6392 201.606 69.3307 201.606L58.8242 201.614Z" fill="#C36493"/>
<path d="M58.8262 201.614C61.8728 201.267 63.7372 200.133 64.8774 198.833H70.0283V197.705H65.6803C66.1016 196.966 66.3428 196.23 66.4798 195.6H70.0283V195.876C70.0283 195.983 70.0283 196.089 70.0283 196.194C70.0283 197.675 70.0421 199.002 70.4495 199.975C70.5128 200.124 70.5415 200.276 70.541 200.425C70.54 200.767 70.3813 201.089 70.1266 201.31C69.916 201.493 69.6396 201.606 69.3311 201.606L58.8262 201.614Z" fill="#CAEDEF"/>
<path d="M70.0294 194.472H66.6421C66.6698 194.059 66.6505 193.808 66.6505 193.808C66.6723 193.73 66.3193 193.449 65.7685 193.06H70.0294V191.931H64.0993C63.0927 191.265 61.9926 190.549 61.2129 190.01C66.3099 189.661 69.8504 189.479 70.1214 189.464C70.3799 189.68 70.5401 190.005 70.5406 190.352C70.5406 190.499 70.5124 190.649 70.4506 190.797C70.0526 191.747 70.0304 193.034 70.0294 194.472Z" fill="#CAEDEF"/>
<path d="M69.3325 189.165L60.1699 189.159C60.1699 189.158 60.1704 189.158 60.1704 189.157L69.3325 189.165Z" fill="#C36493"/>
<path d="M61.2123 190.01C60.569 189.564 60.1438 189.238 60.169 189.159L69.3316 189.165C69.6382 189.165 69.9141 189.28 70.1207 189.464C69.8498 189.479 66.3092 189.662 61.2123 190.01Z" fill="#AEE4E9"/>
<path d="M66.4808 195.601H20.5371C21.3145 195.206 22.4161 194.83 23.7711 194.472H66.642C66.6217 194.774 66.5767 195.162 66.4808 195.601Z" fill="#CAEDEF"/>
<path d="M20.5368 195.601H19.5039V194.472H23.7708C22.4158 194.83 21.3142 195.206 20.5368 195.601Z" fill="#AEE4E9"/>
<path d="M70.0289 195.601H66.4805C66.5764 195.162 66.6214 194.774 66.6417 194.472H70.0289C70.0289 194.507 70.0289 194.542 70.0289 194.577C70.0289 194.682 70.0289 194.789 70.0289 194.896V195.601Z" fill="#AEE4E9"/>
<path d="M65.7682 193.06H30.8887C33.4949 192.649 36.3779 192.273 39.3637 191.931H64.099C64.7245 192.345 65.3133 192.739 65.7682 193.06Z" fill="#CAEDEF"/>
<path d="M30.8885 193.06H19.5039V191.931H39.3635C36.3777 192.273 33.4948 192.649 30.8885 193.06Z" fill="#AEE4E9"/>
<path d="M70.0277 193.06H65.7668C65.312 192.739 64.7231 192.345 64.0977 191.931H70.0277V193.06Z" fill="#AEE4E9"/>
<path d="M64.8781 198.833H19.5039V197.705H65.681C65.4645 198.085 65.2005 198.465 64.8781 198.833Z" fill="#CAEDEF"/>
<path d="M70.0298 198.833H64.8789C65.2013 198.465 65.4653 198.085 65.6818 197.705H70.0298V198.833Z" fill="#AEE4E9"/>
<path d="M64.5012 200.289L61.6627 197.458L58.8242 200.289V192.495H64.5012V200.289Z" fill="#E72B61"/>
<path d="M338 209.979V211.12C338 214.611 335.167 217.439 331.676 217.439H8.30596C5.36455 217.439 2.89225 215.432 2.18518 212.718L2.18019 212.703C2.05174 212.193 1.98242 211.665 1.98242 211.12V209.979C1.98242 206.488 4.81066 203.66 8.30596 203.66H331.676C335.167 203.66 338 206.488 338 209.979Z" fill="#3C5282"/>
<path d="M331.676 217.439H8.30596C5.36455 217.439 2.89225 215.432 2.18518 212.718L2.18019 212.703C2.04689 211.689 1.98242 211.12 1.98242 211.12C35.7936 212.299 68.4862 212.779 99.2569 212.779C233.511 212.779 331.676 203.66 331.676 203.66C335.167 203.66 338 206.488 338 209.979V211.12C338 213.643 336.521 215.82 334.383 216.833C333.562 217.222 332.645 217.439 331.676 217.439Z" fill="#2D3A5D"/>
<path d="M321.409 40.6928C319.155 40.6928 317.328 38.8664 317.328 36.6123C317.328 34.3588 319.155 32.5319 321.409 32.5319C323.663 32.5319 325.489 34.3588 325.489 36.6123C325.489 38.8664 323.663 40.6928 321.409 40.6928ZM329.935 36.7305L329.94 36.6123L329.935 36.4991C330.526 36.2267 331.123 35.9127 331.71 35.532C332.337 35.0999 332.976 34.6005 333.568 34.0295L333.439 33.5252C333.315 32.9541 333.094 32.4038 332.893 31.853C332.78 31.5856 332.646 31.323 332.518 31.0605C332.399 30.7876 332.255 30.5359 332.096 30.2887L331.828 29.8462C331.02 29.8511 330.203 29.954 329.456 30.0934C328.783 30.2318 328.129 30.4326 327.522 30.6645L327.357 30.4998C327.584 29.8872 327.789 29.239 327.923 28.5651C328.067 27.8191 328.17 27.0008 328.175 26.1929L327.733 25.9254C327.486 25.7657 327.228 25.6219 326.961 25.5032C326.698 25.3746 326.436 25.2412 326.163 25.1279C325.613 24.9272 325.067 24.7057 324.496 24.5826L323.992 24.4535C323.421 25.0454 322.922 25.6782 322.489 26.3111C322.109 26.893 321.795 27.4898 321.522 28.0865L321.409 28.0762L321.291 28.0865C321.023 27.4898 320.704 26.893 320.323 26.3111C319.896 25.6782 319.392 25.0454 318.826 24.4535L318.322 24.5826C317.746 24.7057 317.2 24.9272 316.65 25.1279C316.382 25.2412 316.119 25.3746 315.852 25.5032C315.585 25.6219 315.332 25.7657 315.08 25.9254L314.638 26.1929C314.648 27.0008 314.75 27.8191 314.889 28.5651C315.028 29.239 315.229 29.8872 315.461 30.4998C315.404 30.5562 315.347 30.6076 315.296 30.6645C314.684 30.4326 314.036 30.2318 313.362 30.0934C312.616 29.954 311.792 29.8511 310.989 29.8462L310.716 30.2887C310.562 30.5359 310.418 30.7876 310.295 31.0605C310.171 31.323 310.038 31.5856 309.924 31.853C309.718 32.4038 309.502 32.9541 309.379 33.5252L309.25 34.0295C309.842 34.6005 310.475 35.0999 311.108 35.532C311.689 35.9127 312.286 36.2267 312.878 36.4991L312.873 36.6123L312.878 36.7305C312.286 36.998 311.689 37.3174 311.108 37.6986C310.475 38.1253 309.842 38.6296 309.25 39.1957L309.379 39.7C309.502 40.271 309.718 40.8213 309.924 41.3721C310.038 41.6396 310.171 41.9021 310.295 42.1696C310.418 42.4371 310.562 42.6893 310.716 42.9365L310.989 43.379C311.792 43.374 312.616 43.2707 313.362 43.1318C314.036 42.9928 314.684 42.7921 315.296 42.5607C315.347 42.6171 315.404 42.6739 315.461 42.7253C315.229 43.3374 315.028 43.9861 314.889 44.66C314.75 45.4061 314.648 46.2293 314.638 47.0322L315.08 47.3047C315.332 47.4589 315.585 47.6033 315.852 47.7215C316.119 47.85 316.382 47.984 316.65 48.0972C317.2 48.3029 317.746 48.519 318.322 48.6426L318.826 48.7711C319.392 48.1793 319.896 47.5464 320.323 46.9136C320.704 46.3321 321.023 45.7354 321.291 45.1386L321.409 45.149L321.522 45.1386C321.795 45.7354 322.109 46.3321 322.489 46.9136C322.922 47.5464 323.421 48.1793 323.992 48.7711L324.496 48.6426C325.067 48.519 325.613 48.3029 326.163 48.0972C326.436 47.984 326.698 47.85 326.961 47.7215C327.228 47.6033 327.486 47.4589 327.733 47.3047L328.175 47.0322C328.17 46.2293 328.067 45.4061 327.923 44.66C327.789 43.9861 327.584 43.3374 327.357 42.7253C327.414 42.6739 327.465 42.6171 327.522 42.5607C328.129 42.7921 328.783 42.9928 329.456 43.1318C330.203 43.2707 331.02 43.374 331.828 43.379L332.096 42.9365C332.255 42.6893 332.399 42.4371 332.518 42.1696C332.646 41.9021 332.78 41.6396 332.893 41.3721C333.094 40.8213 333.315 40.271 333.439 39.7L333.568 39.1957C332.976 38.6296 332.337 38.1253 331.71 37.6986C331.123 37.3174 330.526 36.998 329.935 36.7305Z" fill="#F78F45"/>
<path d="M309.712 42.663H307.734V43.1575H309.712V42.663ZM305.757 42.663H303.779V43.1575H305.757V42.663ZM301.801 42.663H299.824V43.1575H301.801V42.663ZM297.846 42.663H295.868V43.1575H297.846V42.663ZM293.891 42.663H291.913V43.1575H293.891V42.663ZM289.935 42.663H287.958V43.1575H289.935V42.663ZM285.98 42.663H284.002V43.1575H285.98V42.663ZM281.932 45.0422H282.426V43.0645H281.932V45.0422ZM281.932 48.9976H282.426V47.0199H281.932V48.9976ZM281.932 52.9529H282.426V50.9752H281.932V52.9529ZM281.932 56.9083H282.426V54.9306H281.932V56.9083ZM281.932 60.8636H282.426V58.886H281.932V60.8636ZM281.932 64.819H282.426V62.8413H281.932V64.819ZM281.932 68.7744H282.426V66.7967H281.932V68.7744ZM282.906 70.2725H284.884V69.778H282.906V70.2725ZM286.862 70.2725H288.839V69.778H286.862V70.2725Z" fill="#F36241"/>
<path d="M305.617 87.2434H290.48V84.5379H305.617V87.2434Z" fill="white"/>
<path d="M313.752 92.2485H290.48V89.5431H313.752V92.2485Z" fill="white"/>
<path d="M298.407 97.2534H290.48V94.548H298.407V97.2534Z" fill="white"/>
<path d="M309.567 97.2534H301.641V94.548H309.567V97.2534Z" fill="#F78F45"/>
<path d="M323.786 97.2534H312.404V94.548H323.786V97.2534Z" fill="#F78F45"/>
<path d="M323.786 92.2485H316.875V89.5431H323.786V92.2485Z" fill="#F78F45"/>
<path d="M323.785 87.2434H308.648V84.5379H323.785V87.2434Z" fill="#F78F45"/>
<path d="M328.826 97.1714H329.33V67.0192H328.826V97.1714Z" fill="white"/>
<path d="M306.28 70.9087H290.715V68.1266H306.28V70.9087Z" fill="white"/>
<path d="M314.645 76.0557H290.715V73.2736H314.645V76.0557Z" fill="white"/>
<path d="M298.865 81.2021H290.715V78.42H298.865V81.2021Z" fill="white"/>
<path d="M310.342 81.2021H302.191V78.42H310.342V81.2021Z" fill="#F78F45"/>
<path d="M324.963 81.2021H313.26V78.42H324.963V81.2021Z" fill="#F78F45"/>
<path d="M324.963 76.0557H317.855V73.2736H324.963V76.0557Z" fill="#F78F45"/>
<path d="M324.963 70.9087H309.398V68.1266H324.963V70.9087Z" fill="#F78F45"/>
<path d="M271.181 104.299H226.391V16.2816H271.181V104.299Z" fill="#3F436D"/>
<path d="M265.122 38.5731H231.494V35.0014H265.122V38.5731Z" fill="white"/>
<path d="M253.751 46.4819H231.494V42.9102H253.751V46.4819Z" fill="white"/>
<path d="M265.122 46.4819H257.057V42.9102H265.122V46.4819Z" fill="#F78F45"/>
<path d="M265.122 54.3906H244.283V50.8189H265.122V54.3906Z" fill="#F78F45"/>
<path d="M241.254 54.3906H231.494V50.8189H241.254V54.3906Z" fill="white"/>
<path d="M249.27 62.2993H231.494V58.7276H249.27V62.2993Z" fill="white"/>
<path d="M265.123 62.2993H252.008V58.7276H265.123V62.2993Z" fill="#F78F45"/>
<path d="M265.123 70.208H241.254V66.6363H265.123V70.208Z" fill="#F78F45"/>
<path d="M238.709 70.2083H231.494V66.6366H238.709V70.2083Z" fill="white"/>
<path d="M245.924 78.1169H231.494V74.5453H245.924V78.1169Z" fill="white"/>
<path d="M265.123 78.1169H248.309V74.5453H265.123V78.1169Z" fill="#F78F45"/>
<path d="M264.13 95.6232V96.6279L260.449 98.0276V97.061L263.024 96.1251L260.449 95.1822V94.2235L264.13 95.6232Z" fill="#F78F45"/>
<path d="M253.665 94.2235V95.1822L251.09 96.1251L253.665 97.061V98.0276L249.984 96.6279V95.6232L253.665 94.2235Z" fill="#F78F45"/>
<path d="M258.014 91.5137H259.166L256.432 99.3162H255.281L258.014 91.5137Z" fill="#F78F45"/>
<path d="M247.23 26.934V28.2512L242.406 30.0854V28.8188L245.781 27.5926L242.406 26.356V25.0992L247.23 26.934Z" fill="#F78F45"/>
<path d="M238.358 25.0992V26.356L234.984 27.5926L238.358 28.8188V30.0854L233.535 28.2512V26.934L238.358 25.0992Z" fill="#F78F45"/>
<path d="M243.855 6.80175V24H242.062V16.0642H231.301V24H229.482V6.80175H231.301V14.4673H242.062V6.80175H243.855ZM232.824 38.3742H226.78V36.8017H240.686V38.3742H234.642V54H232.824V38.3742ZM247.344 66.8017V84H245.6V70.2414L238.843 81.8134H237.983L231.227 70.3151V84H229.482V66.8017H230.981L238.45 79.553L245.845 66.8017H247.344ZM229.482 96.8017H231.301V112.428H240.932V114H229.482V96.8017Z" fill="white"/>
<path d="M14.4258 121.598C10.4964 123.351 5.87372 121.58 4.1212 117.65C3.07866 115.313 3.2834 112.731 4.44742 110.655L4.47332 110.607C5.26667 109.211 6.49367 108.048 8.06944 107.346C8.36417 107.214 8.66467 107.102 8.96672 107.011L9.06174 106.981C10.6227 106.524 12.2417 106.582 13.7135 107.074L13.7315 107.079C14.9925 107.503 16.143 108.247 17.0528 109.258C17.5845 109.848 18.0337 110.531 18.3741 111.293C18.5853 111.768 18.7449 112.252 18.8555 112.74C19.6673 116.297 17.8808 120.058 14.4258 121.598ZM19.1325 106.451C18.2027 105.539 17.1289 104.802 15.9649 104.267L15.9012 104.238C14.2605 103.494 12.4489 103.142 10.6192 103.243C9.36789 103.309 8.10924 103.591 6.89287 104.102C6.81757 104.134 6.74108 104.166 6.66633 104.2C4.48529 105.172 2.76466 106.758 1.61978 108.666C-0.211507 111.709 -0.578466 115.569 0.9753 119.053C3.50124 124.716 10.1651 127.27 15.8287 124.744C21.0205 122.429 23.5983 116.637 22.0467 111.326C21.906 110.842 21.7301 110.362 21.5196 109.89C20.9286 108.565 20.1116 107.41 19.1325 106.451Z" fill="#5C5E94"/>
<path d="M15.9662 104.267C17.1302 104.802 18.204 105.539 19.1338 106.451C20.1129 107.41 20.9299 108.565 21.5209 109.89C21.7314 110.363 21.9073 110.842 22.048 111.326L18.8568 112.74C18.7462 112.252 18.5866 111.768 18.3754 111.294C18.035 110.531 17.5858 109.848 17.0541 109.259C16.1443 108.247 14.9938 107.503 13.7328 107.079L13.7148 107.074L15.9025 104.238" fill="#F78F45"/>
<path d="M15.9639 104.267L13.7305 107.079L15.9639 104.267Z" fill="#F78F45"/>
<path d="M13.7312 107.079L13.7133 107.074C12.2414 106.582 10.6224 106.524 9.06145 106.981L8.96642 107.011L6.89258 104.102C8.10895 103.591 9.3676 103.309 10.6189 103.243C12.4486 103.142 14.2602 103.494 15.9009 104.238" fill="#D82B62"/>
<path d="M11.8984 126.708H12.3929V125.719H11.8984V126.708Z" fill="#F36241"/>
<path d="M11.8984 130.492H12.3929V128.6H11.8984V130.492ZM11.8984 134.277H12.3929V132.384H11.8984V134.277ZM11.8984 138.061H12.3929V136.169H11.8984V138.061ZM11.8984 141.846H12.3929V139.953H11.8984V141.846Z" fill="#F36241"/>
<path d="M11.8984 143.739V144.975H13.1345V144.48H12.3929V143.739H11.8984Z" fill="#F36241"/>
<path d="M15.168 144.975H17.2028V144.48H15.168V144.975ZM19.2377 144.975H21.2725V144.48H19.2377V144.975ZM23.3074 144.975H25.3422V144.48H23.3074V144.975ZM27.3771 144.975H29.4119V144.48H27.3771V144.975ZM31.4468 144.975H33.4816V144.48H31.4468V144.975ZM35.5162 144.975H37.5513V144.48H35.5162V144.975ZM39.5863 144.975H41.6208V144.48H39.5863V144.975Z" fill="#F36241"/>
<path d="M43.6562 144.975H44.8923V143.739H44.3979V144.48H43.6562V144.975Z" fill="#F36241"/>
<path d="M44.8929 139.887H44.3984V141.813H44.8929V139.887ZM44.8929 136.036H44.3984V137.961H44.8929V136.036ZM44.8929 132.185H44.3984V134.11H44.8929V132.185ZM44.8929 128.333H44.3984V130.259H44.8929V128.333Z" fill="#F36241"/>
<path d="M44.3984 126.407H44.8929V125.419H44.3984V126.407Z" fill="#F36241"/>
<path d="M128.131 124.483H32.7832V10.8065H128.131V124.483Z" fill="#3F436D"/>
<path d="M128.131 19.6968H32.7832V5.2691H128.131V19.6968Z" fill="#5C5E94"/>
<path d="M117.099 116.663V117.6L113.67 118.904V118.003L116.069 117.132L113.67 116.252V115.36L117.099 116.663Z" fill="#F78F45"/>
<path d="M107.351 115.36V116.252L104.952 117.132L107.351 118.003V118.904L103.922 117.6V116.663L107.351 115.36Z" fill="#F78F45"/>
<path d="M115.458 114.088H116.811L109.942 133.695H108.589L115.458 114.088Z" fill="#F78F45"/>
<path d="M55.3773 28.894V30.0623L51.1016 31.688V30.5652L54.0928 29.4784L51.1016 28.3823V27.2684L55.3773 28.894Z" fill="#F78F45"/>
<path d="M47.5145 27.2684V28.3823L44.5228 29.4784L47.5145 30.5652V31.688L43.2383 30.0623V28.894L47.5145 27.2684Z" fill="#F78F45"/>
<path d="M58.4131 13.7754L54.0569 26.6963H52.6172L48.8332 15.6766L45.0308 26.6963H43.6095L39.2533 13.7754H40.6561L44.3847 24.8874L48.2425 13.7754H49.5161L53.3186 24.9427L57.1025 13.7754H58.4131ZM70.0544 25.515V26.6963H60.9175V13.7754H69.7775V14.9567H62.2834V19.5529H68.9654V20.7158H62.2834V25.515H70.0544ZM81.4053 20.0328C82.2544 20.2174 82.9066 20.5866 83.3619 21.1403C83.8295 21.6818 84.0633 22.3832 84.0633 23.2446C84.0633 24.3521 83.6511 25.2073 82.8266 25.8103C82.0145 26.401 80.8085 26.6963 79.2088 26.6963H73.2652V13.7754H78.8396C80.2794 13.7754 81.393 14.0646 82.1806 14.643C82.9804 15.2213 83.3804 16.0396 83.3804 17.0979C83.3804 17.8116 83.2019 18.4208 82.8451 18.9253C82.5005 19.4175 82.0206 19.7867 81.4053 20.0328ZM74.6311 14.9014V19.5898H78.7473C79.7933 19.5898 80.5993 19.3929 81.1654 18.9991C81.7314 18.5931 82.0145 18.0085 82.0145 17.2456C82.0145 16.4826 81.7314 15.9043 81.1654 15.5105C80.5993 15.1044 79.7933 14.9014 78.7473 14.9014H74.6311ZM79.1903 25.5703C80.347 25.5703 81.2207 25.3734 81.8114 24.9797C82.4021 24.5859 82.6974 23.9706 82.6974 23.1338C82.6974 21.5218 81.5284 20.7158 79.1903 20.7158H74.6311V25.5703H79.1903ZM40.6746 36.7754H45.9352C47.3011 36.7754 48.5071 37.0523 49.5531 37.606C50.599 38.1475 51.4112 38.9104 51.9896 39.8949C52.5679 40.867 52.8571 41.9807 52.8571 43.2358C52.8571 44.491 52.5679 45.6108 51.9896 46.5953C51.4112 47.5674 50.599 48.3304 49.5531 48.8841C48.5071 49.4256 47.3011 49.6963 45.9352 49.6963H40.6746V36.7754ZM45.8614 48.515C46.9935 48.515 47.9841 48.2935 48.8332 47.8504C49.6823 47.3951 50.3406 46.7737 50.8082 45.9862C51.2758 45.1863 51.5096 44.2695 51.5096 43.2358C51.5096 42.2022 51.2758 41.2916 50.8082 40.504C50.3406 39.7041 49.6823 39.0827 48.8332 38.6397C47.9841 38.1844 46.9935 37.9567 45.8614 37.9567H42.0405V48.515H45.8614ZM65.0613 48.515V49.6963H55.9244V36.7754H64.7844V37.9567H57.2903V42.5529H63.9722V43.7158H57.2903V48.515H65.0613ZM78.8346 36.7754L73.1125 49.6963H71.765L66.0429 36.7754H67.5196L72.4664 47.9981L77.4502 36.7754H78.8346ZM89.8467 48.515V49.6963H80.7098V36.7754H89.5699V37.9567H82.0757V42.5529H88.7577V43.7158H82.0757V48.515H89.8467ZM93.0575 36.7754H94.4234V48.515H101.659V49.6963H93.0575V36.7754ZM46.3228 72.807C45.0431 72.807 43.8802 72.524 42.8342 71.958C41.8005 71.3796 40.9884 70.592 40.3977 69.5953C39.8193 68.5985 39.5301 67.4787 39.5301 66.2358C39.5301 64.993 39.8193 63.8732 40.3977 62.8764C40.9884 61.8797 41.8005 61.0983 42.8342 60.5322C43.8802 59.9538 45.0431 59.6647 46.3228 59.6647C47.6026 59.6647 48.7532 59.9477 49.7746 60.5137C50.8082 61.0798 51.6204 61.8674 52.2111 62.8764C52.8017 63.8732 53.0971 64.993 53.0971 66.2358C53.0971 67.4787 52.8017 68.6047 52.2111 69.6137C51.6204 70.6105 50.8082 71.3919 49.7746 71.958C48.7532 72.524 47.6026 72.807 46.3228 72.807ZM46.3228 71.5888C47.3442 71.5888 48.2671 71.3611 49.0916 70.9058C49.9161 70.4382 50.5621 69.7983 51.0297 68.9862C51.4973 68.1617 51.7312 67.2449 51.7312 66.2358C51.7312 65.2268 51.4973 64.3162 51.0297 63.504C50.5621 62.6795 49.9161 62.0396 49.0916 61.5843C48.2671 61.1167 47.3442 60.8829 46.3228 60.8829C45.3015 60.8829 44.3724 61.1167 43.5356 61.5843C42.7111 62.0396 42.0589 62.6795 41.579 63.504C41.1114 64.3162 40.8776 65.2268 40.8776 66.2358C40.8776 67.2449 41.1114 68.1617 41.579 68.9862C42.0589 69.7983 42.7111 70.4382 43.5356 70.9058C44.3724 71.3611 45.3015 71.5888 46.3228 71.5888ZM60.9948 59.7754C62.6438 59.7754 63.9359 60.1692 64.8711 60.9567C65.8063 61.7443 66.2739 62.8272 66.2739 64.2054C66.2739 65.5837 65.8063 66.6665 64.8711 67.4541C63.9359 68.2294 62.6438 68.617 60.9948 68.617H57.5246V72.6963H56.1587V59.7754H60.9948ZM60.9579 67.4172C62.2377 67.4172 63.216 67.1403 63.8928 66.5866C64.5696 66.0205 64.908 65.2268 64.908 64.2054C64.908 63.1595 64.5696 62.3596 63.8928 61.8058C63.216 61.2398 62.2377 60.9567 60.9579 60.9567H57.5246V67.4172H60.9579ZM69.2274 59.7754H70.5933V72.6963H69.2274V59.7754ZM85.5955 59.7754V72.6963H84.4696L76.1633 62.2119V72.6963H74.7974V59.7754H75.9233L84.2481 70.2598V59.7754H85.5955ZM98.9128 66.2358H100.223V71.1642C99.6204 71.6934 98.9067 72.0995 98.0822 72.3825C97.2577 72.6655 96.3902 72.807 95.4796 72.807C94.1875 72.807 93.0246 72.524 91.9909 71.958C90.9573 71.3919 90.1451 70.6105 89.5544 69.6137C88.9638 68.6047 88.6684 67.4787 88.6684 66.2358C88.6684 64.993 88.9638 63.8732 89.5544 62.8764C90.1451 61.8674 90.9573 61.0798 91.9909 60.5137C93.0246 59.9477 94.1936 59.6647 95.498 59.6647C96.4825 59.6647 97.3869 59.8246 98.2114 60.1446C99.0359 60.4522 99.7312 60.9137 100.297 61.529L99.4481 62.3965C98.4268 61.3874 97.1285 60.8829 95.5534 60.8829C94.5074 60.8829 93.5599 61.1167 92.7108 61.5843C91.874 62.0396 91.2157 62.6795 90.7358 63.504C90.2558 64.3162 90.0159 65.2268 90.0159 66.2358C90.0159 67.2449 90.2558 68.1555 90.7358 68.9677C91.2157 69.7799 91.874 70.4198 92.7108 70.8874C93.5476 71.355 94.489 71.5888 95.5349 71.5888C96.8639 71.5888 97.9899 71.2565 98.9128 70.592V66.2358Z" fill="white"/>
<path d="M77.2948 43.7537H49.2676V38.6211H77.2948V43.7537Z" fill="#37BDCF"/>
<path d="M95.258 43.7537H81.2441V38.6211H95.258V43.7537Z" fill="#F78F45"/>
<path d="M117.786 43.7537H98.4844V38.6211H117.786V43.7537Z" fill="white"/>
<path d="M62.3485 52.9172H49.2676V47.7847H62.3485V52.9172Z" fill="#37BDCF"/>
<path d="M88.2491 52.9172H65.9062V47.7847H88.2491V52.9172Z" fill="#F78F45"/>
<path d="M117.785 52.9172H91.8906V47.7847H117.785V52.9172Z" fill="white"/>
<path d="M66.4863 62.0808H49.2676V56.9482H66.4863V62.0808Z" fill="#37BDCF"/>
<path d="M101.68 62.0808H69.2891V56.9482H101.68V62.0808Z" fill="#F78F45"/>
<path d="M117.786 62.0808H105.15V56.9482H117.786V62.0808Z" fill="white"/>
<path d="M70.98 71.2444H49.2676V66.1118H70.98V71.2444Z" fill="#37BDCF"/>
<path d="M95.2578 71.2444H74.1836V66.1118H95.2578V71.2444Z" fill="#F78F45"/>
<path d="M117.786 71.2444H98.4844V66.1118H117.786V71.2444Z" fill="white"/>
<path d="M58.7886 80.408H49.2676V75.2754H58.7886V80.408Z" fill="#37BDCF"/>
<path d="M80.8568 80.408H61.9922V75.2754H80.8568V80.408Z" fill="#F78F45"/>
<path d="M117.785 80.408H83.793V75.2754H117.785V80.408Z" fill="white"/>
<path d="M76.4968 89.5715H49.2676V84.439H76.4968V89.5715Z" fill="#37BDCF"/>
<path d="M88.2509 89.5715H79.8789V84.439H88.2509V89.5715Z" fill="#F78F45"/>
<path d="M117.785 89.5715H91.8906V84.439H117.785V89.5715Z" fill="white"/>
<path d="M84.7205 98.7358H49.2676V93.6028H84.7205V98.7358Z" fill="#37BDCF"/>
<path d="M102.213 98.7356H87.709V93.6025H102.213V98.7356Z" fill="#F78F45"/>
<path d="M117.786 98.7356H105.15V93.6025H117.786V98.7356Z" fill="white"/>
<path d="M60.1236 107.899H49.2676V102.766H60.1236V107.899Z" fill="#37BDCF"/>
<path d="M76.4971 107.899H63.2812V102.766H76.4971V107.899Z" fill="#F78F45"/>
<path d="M117.787 107.899H79.8789V102.766H117.787V107.899Z" fill="white"/>
<path d="M122.579 107.899H121.535V38.621H122.579V107.899Z" fill="white"/>
<path d="M43.0193 41.1876C43.0193 42.6046 41.8703 43.7537 40.4533 43.7537C39.0358 43.7537 37.8867 42.6046 37.8867 41.1876C37.8867 39.7701 39.0358 38.6211 40.4533 38.6211C41.8703 38.6211 43.0193 39.7701 43.0193 41.1876Z" fill="white"/>
<path d="M43.0193 50.3507C43.0193 51.7682 41.8703 52.9172 40.4533 52.9172C39.0358 52.9172 37.8867 51.7682 37.8867 50.3507C37.8867 48.9337 39.0358 47.7847 40.4533 47.7847C41.8703 47.7847 43.0193 48.9337 43.0193 50.3507Z" fill="white"/>
<path d="M43.0193 59.5148C43.0193 60.9318 41.8703 62.0808 40.4533 62.0808C39.0358 62.0808 37.8867 60.9318 37.8867 59.5148C37.8867 58.0973 39.0358 56.9482 40.4533 56.9482C41.8703 56.9482 43.0193 58.0973 43.0193 59.5148Z" fill="white"/>
<path d="M43.0193 68.6783C43.0193 70.0953 41.8703 71.2444 40.4533 71.2444C39.0358 71.2444 37.8867 70.0953 37.8867 68.6783C37.8867 67.2603 39.0358 66.1118 40.4533 66.1118C41.8703 66.1118 43.0193 67.2603 43.0193 68.6783Z" fill="white"/>
<path d="M43.0193 77.8414C43.0193 79.2589 41.8703 80.408 40.4533 80.408C39.0358 80.408 37.8867 79.2589 37.8867 77.8414C37.8867 76.4244 39.0358 75.2754 40.4533 75.2754C41.8703 75.2754 43.0193 76.4244 43.0193 77.8414Z" fill="white"/>
<path d="M43.0193 87.0055C43.0193 88.4225 41.8703 89.5715 40.4533 89.5715C39.0358 89.5715 37.8867 88.4225 37.8867 87.0055C37.8867 85.588 39.0358 84.439 40.4533 84.439C41.8703 84.439 43.0193 85.588 43.0193 87.0055Z" fill="white"/>
<path d="M43.0193 96.1688C43.0193 97.5863 41.8703 98.7358 40.4533 98.7358C39.0358 98.7358 37.8867 97.5863 37.8867 96.1688C37.8867 94.7518 39.0358 93.6028 40.4533 93.6028C41.8703 93.6028 43.0193 94.7518 43.0193 96.1688Z" fill="white"/>
<path d="M43.0193 105.332C43.0193 106.75 41.8703 107.899 40.4533 107.899C39.0358 107.899 37.8867 106.75 37.8867 105.332C37.8867 103.915 39.0358 102.766 40.4533 102.766C41.8703 102.766 43.0193 103.915 43.0193 105.332Z" fill="white"/>
<path d="M123.884 13.2785C123.884 14.7242 122.712 15.896 121.266 15.896C119.82 15.896 118.648 14.7242 118.648 13.2785C118.648 11.8329 119.82 10.6611 121.266 10.6611C122.712 10.6611 123.884 11.8329 123.884 13.2785Z" fill="#D82B62"/>
<path d="M117.414 13.2255C117.414 14.6826 116.233 15.8633 114.776 15.8633C113.319 15.8633 112.139 14.6826 112.139 13.2255C112.139 11.7695 113.319 10.5883 114.776 10.5883C116.233 10.5883 117.414 11.7695 117.414 13.2255Z" fill="white"/>
<path d="M150.057 26.761H140.82V24.1732H150.057V26.761Z" fill="#3C5282"/>
<path d="M169.078 22.1533H140.82V19.5655H169.078V22.1533Z" fill="#5C5E94"/>
<path d="M156.898 28.2427H157.393V27.2538H156.898V28.2427Z" fill="#F36241"/>
<path d="M156.898 31.5811H157.393V29.9121H156.898V31.5811ZM156.898 34.9199H157.393V33.2503H156.898V34.9199Z" fill="#F36241"/>
<path d="M156.898 36.5891V37.8252H158.134V37.3308H157.393V36.5891H156.898Z" fill="#F36241"/>
<path d="M160.02 37.8252H161.903V37.3308H160.02V37.8252ZM163.786 37.8252H165.669V37.3308H163.786V37.8252ZM167.553 37.8252H169.436V37.3308H167.553V37.8252ZM171.32 37.8252H173.203V37.3308H171.32V37.8252ZM175.086 37.8252H176.969V37.3308H175.086V37.8252ZM178.853 37.8252H180.736V37.3308H178.853V37.8252ZM182.619 37.8252H184.502V37.3308H182.619V37.8252ZM186.385 37.8252H188.269V37.3308H186.385V37.8252Z" fill="#F36241"/>
<path d="M190.152 37.8252H191.388V36.5891H190.894V37.3308H190.152V37.8252Z" fill="#F36241"/>
<path d="M190.895 34.5833H191.389V32.5774H190.895V34.5833Z" fill="#F36241"/>
<path d="M190.895 30.5713H191.389V29.5824H190.895V30.5713Z" fill="#F36241"/>
<path d="M151.09 27.768C149.387 27.768 147.847 27.3913 146.471 26.6378C145.112 25.8844 144.039 24.8443 143.253 23.5176C142.483 22.1745 142.098 20.6758 142.098 19.0215C142.098 17.3672 142.483 15.8767 143.253 14.5499C144.039 13.2068 145.12 12.1586 146.496 11.4051C147.872 10.6517 149.411 10.2749 151.115 10.2749C152.392 10.2749 153.572 10.4879 154.653 10.9137C155.734 11.3396 156.651 11.962 157.404 12.781L156.25 13.9357C154.907 12.5762 153.211 11.8965 151.164 11.8965C149.804 11.8965 148.568 12.2077 147.454 12.8301C146.34 13.4525 145.464 14.3042 144.825 15.3853C144.203 16.4663 143.891 17.6784 143.891 19.0215C143.891 20.3646 144.203 21.5766 144.825 22.6577C145.464 23.7387 146.34 24.5904 147.454 25.2128C148.568 25.8353 149.804 26.1465 151.164 26.1465C153.228 26.1465 154.923 25.4585 156.25 24.0827L157.404 25.2374C156.651 26.0564 155.725 26.687 154.628 27.1292C153.547 27.5551 152.368 27.768 151.09 27.768ZM148.363 57.768C147.085 57.768 145.857 57.5633 144.678 57.1538C143.515 56.7443 142.614 56.2038 141.975 55.5322L142.688 54.1318C143.31 54.7542 144.137 55.262 145.169 55.6551C146.201 56.0318 147.266 56.2202 148.363 56.2202C149.903 56.2202 151.057 55.9417 151.827 55.3848C152.597 54.8116 152.982 54.0745 152.982 53.1736C152.982 52.4857 152.769 51.937 152.343 51.5275C151.934 51.118 151.426 50.8068 150.82 50.5939C150.214 50.3646 149.37 50.1189 148.289 49.8568C146.995 49.5292 145.963 49.218 145.194 48.9232C144.424 48.612 143.76 48.1452 143.203 47.5228C142.663 46.9004 142.393 46.0568 142.393 44.9922C142.393 44.1241 142.622 43.3379 143.081 42.6336C143.539 41.9129 144.244 41.3396 145.194 40.9137C146.144 40.4879 147.323 40.2749 148.732 40.2749C149.714 40.2749 150.672 40.4142 151.606 40.6926C152.556 40.9547 153.375 41.3232 154.063 41.7982L153.449 43.2478C152.728 42.7728 151.958 42.4206 151.139 42.1913C150.32 41.9456 149.518 41.8228 148.732 41.8228C147.225 41.8228 146.086 42.1176 145.316 42.7073C144.563 43.2805 144.186 44.0258 144.186 44.943C144.186 45.631 144.391 46.1879 144.8 46.6137C145.226 47.0232 145.75 47.3426 146.373 47.5719C147.012 47.7848 147.863 48.0223 148.928 48.2844C150.189 48.5956 151.205 48.9068 151.975 49.218C152.761 49.5129 153.424 49.9715 153.965 50.5939C154.505 51.1999 154.775 52.0271 154.775 53.0754C154.775 53.9435 154.538 54.7379 154.063 55.4585C153.604 56.1628 152.892 56.7279 151.925 57.1538C150.959 57.5633 149.772 57.768 148.363 57.768ZM148.363 87.768C147.085 87.768 145.857 87.5633 144.678 87.1538C143.515 86.7443 142.614 86.2038 141.975 85.5322L142.688 84.1318C143.31 84.7542 144.137 85.262 145.169 85.6551C146.201 86.0318 147.266 86.2202 148.363 86.2202C149.903 86.2202 151.057 85.9417 151.827 85.3848C152.597 84.8116 152.982 84.0745 152.982 83.1736C152.982 82.4857 152.769 81.937 152.343 81.5275C151.934 81.118 151.426 80.8068 150.82 80.5939C150.214 80.3646 149.37 80.1189 148.289 79.8568C146.995 79.5292 145.963 79.218 145.194 78.9232C144.424 78.612 143.76 78.1452 143.203 77.5228C142.663 76.9004 142.393 76.0568 142.393 74.9922C142.393 74.1241 142.622 73.3379 143.081 72.6336C143.539 71.9129 144.244 71.3396 145.194 70.9137C146.144 70.4879 147.323 70.2749 148.732 70.2749C149.714 70.2749 150.672 70.4142 151.606 70.6926C152.556 70.9547 153.375 71.3232 154.063 71.7982L153.449 73.2478C152.728 72.7728 151.958 72.4206 151.139 72.1913C150.32 71.9456 149.518 71.8228 148.732 71.8228C147.225 71.8228 146.086 72.1176 145.316 72.7073C144.563 73.2805 144.186 74.0258 144.186 74.943C144.186 75.631 144.391 76.1879 144.8 76.6137C145.226 77.0232 145.75 77.3426 146.373 77.5719C147.012 77.7848 147.863 78.0223 148.928 78.2844C150.189 78.5956 151.205 78.9068 151.975 79.218C152.761 79.5129 153.424 79.9715 153.965 80.5939C154.505 81.1999 154.775 82.0271 154.775 83.0754C154.775 83.9435 154.538 84.7379 154.063 85.4585C153.604 86.1628 152.892 86.7279 151.925 87.1538C150.959 87.5633 149.772 87.768 148.363 87.768Z" fill="white"/>
<path d="M193.347 26.1702C190.621 27.3845 187.414 26.1564 186.2 23.4297C186.1 23.2067 186.018 22.9802 185.949 22.7508C185.528 21.3239 185.73 19.8184 186.426 18.5804L186.443 18.5458C186.992 17.5787 187.843 16.7693 188.937 16.2823C189.142 16.1928 189.348 16.1142 189.561 16.0524L189.626 16.0317C190.71 15.7128 191.831 15.7543 192.853 16.0935L192.864 16.0969C193.738 16.3921 194.538 16.9098 195.168 17.6099C195.539 18.0178 195.848 18.4909 196.084 19.0224C196.232 19.3517 196.342 19.6879 196.42 20.0241C196.63 20.9432 196.588 21.8797 196.332 22.7508C195.902 24.2222 194.853 25.4978 193.347 26.1702ZM198.633 19.0432C198.536 18.707 198.413 18.3747 198.269 18.0484C197.857 17.1293 197.291 16.3268 196.612 15.6613C195.968 15.0305 195.22 14.5192 194.414 14.1489L194.369 14.1286C193.231 13.6105 191.975 13.3667 190.707 13.4355C189.839 13.4834 188.964 13.6792 188.12 14.0322C188.069 14.0564 188.014 14.0767 187.963 14.101C186.45 14.7768 185.257 15.8744 184.465 17.198C183.477 18.837 183.103 20.8162 183.49 22.7508C183.6 23.3095 183.775 23.8618 184.015 24.4037C185.767 28.3343 190.391 30.1044 194.318 28.3516C196.715 27.2812 198.31 25.1483 198.79 22.7508C199.034 21.5469 198.993 20.2777 198.633 19.0432Z" fill="#5C5E94"/>
<path d="M198.79 22.7507H196.332C196.588 21.8796 196.63 20.9431 196.42 20.024C196.342 19.6878 196.232 19.3516 196.084 19.0223C195.848 18.4908 195.539 18.0176 195.168 17.6098C194.538 16.9097 193.738 16.392 192.864 16.0968L192.853 16.0934C191.831 15.7542 190.71 15.7127 189.626 16.0316L189.561 16.0523C189.348 16.1141 189.142 16.1927 188.937 16.2822C187.843 16.7692 186.992 17.5786 186.443 18.5457L186.426 18.5803C185.73 19.8183 185.528 21.3238 185.949 22.7507H183.49C183.103 20.8161 183.477 18.8369 184.465 17.1979C185.257 15.8743 186.45 14.7767 187.963 14.1009C188.014 14.0766 188.069 14.0563 188.12 14.0321C188.964 13.6791 189.839 13.4833 190.707 13.4354C191.975 13.3666 193.231 13.6104 194.369 14.1285L194.414 14.1488C195.22 14.5191 195.968 15.0304 196.612 15.6612C197.291 16.3267 197.857 17.1292 198.269 18.0483C198.413 18.3746 198.536 18.7069 198.633 19.0431C198.993 20.2776 199.034 21.5468 198.79 22.7507Z" fill="#D82B62"/>
<path d="M169.08 26.761H151.91V24.1732H169.08V26.761Z" fill="#5C5E94"/>
<path d="M14.5355 24.6878C14.5355 25.5564 14.4064 26.202 14.1482 26.6245C13.8899 27.0471 13.4674 27.364 12.8805 27.5753C13.4674 27.7866 13.8899 28.1035 14.1482 28.5261C14.4064 28.9486 14.5355 29.5942 14.5355 30.4628V39.1606C14.5355 41.0387 15.4276 41.9777 17.2118 41.9777H18.1625V44.0553H16.8596C13.6434 44.0553 12.0353 42.4942 12.0353 39.3719V30.4276C12.0353 29.2304 11.5071 28.6317 10.4507 28.6317H9.25345V26.5189H10.4507C11.5071 26.5189 12.0353 25.9203 12.0353 24.723V15.7787C12.0353 12.6564 13.6434 11.0953 16.8596 11.0953H18.1625V13.1729H17.2118C15.4276 13.1729 14.5355 14.1119 14.5355 15.99V24.6878ZM16.7892 69.5189V71.6317H15.5919C14.5355 71.6317 14.0073 72.2304 14.0073 73.4276V82.3719C14.0073 85.4942 12.4109 87.0553 9.21824 87.0553H7.88011V84.9777H8.83088C10.615 84.9777 11.5071 84.0387 11.5071 82.1606V73.4628C11.5071 72.5942 11.6362 71.9486 11.8945 71.5261C12.1527 71.1035 12.5753 70.7866 13.1622 70.5753C12.5753 70.364 12.1527 70.0471 11.8945 69.6245C11.6362 69.202 11.5071 68.5564 11.5071 67.6878V58.99C11.5071 57.1119 10.615 56.1729 8.83088 56.1729H7.88011V54.0953H9.21824C12.4109 54.0953 14.0073 55.6564 14.0073 58.7787V67.723C14.0073 68.9203 14.5355 69.5189 15.5919 69.5189H16.7892Z" fill="#262A41"/>
<path d="M17.2215 35.7505H7.06641V30.9042H17.2215V35.7505Z" fill="white"/>
<path d="M17.2215 44.2168H7.06641V39.3705H17.2215V44.2168Z" fill="white"/>
<path d="M17.2215 52.6838H7.06641V47.8375H17.2215V52.6838Z" fill="#F78F45"/>
<path d="M17.2215 61.1509H7.06641V56.3046H17.2215V61.1509Z" fill="#F78F45"/>
<path d="M17.2215 69.6177H7.06641V64.7714H17.2215V69.6177Z" fill="#F78F45"/>
<path d="M17.2215 78.0847H7.06641V73.2384H17.2215V78.0847Z" fill="#F78F45"/>
<path d="M17.2215 86.5513H7.06641V81.705H17.2215V86.5513Z" fill="#F78F45"/>
<path d="M296.913 129.588C294.986 129.588 293.424 128.026 293.424 126.098C293.424 124.172 294.986 122.61 296.913 122.61C298.84 122.61 300.402 124.172 300.402 126.098C300.402 128.026 298.84 129.588 296.913 129.588ZM304.204 126.2L304.208 126.098L304.204 126.002C304.71 125.769 305.22 125.5 305.722 125.175C306.258 124.805 306.804 124.378 307.31 123.89L307.2 123.459C307.094 122.97 306.906 122.5 306.733 122.029C306.637 121.8 306.523 121.575 306.413 121.351C306.311 121.118 306.188 120.903 306.052 120.691L305.823 120.312C305.132 120.317 304.432 120.405 303.794 120.524C303.218 120.643 302.659 120.814 302.14 121.012L301.999 120.871C302.193 120.348 302.369 119.793 302.483 119.217C302.607 118.579 302.694 117.879 302.698 117.188L302.321 116.96C302.109 116.824 301.89 116.7 301.661 116.599C301.436 116.489 301.211 116.374 300.978 116.278C300.508 116.106 300.041 115.917 299.553 115.812L299.122 115.701C298.633 116.208 298.206 116.748 297.836 117.29C297.511 117.787 297.243 118.297 297.009 118.808L296.913 118.799L296.811 118.808C296.583 118.297 296.31 117.787 295.984 117.29C295.619 116.748 295.188 116.208 294.704 115.701L294.273 115.812C293.78 115.917 293.313 116.106 292.843 116.278C292.614 116.374 292.389 116.489 292.16 116.599C291.932 116.7 291.716 116.824 291.5 116.96L291.122 117.188C291.131 117.879 291.219 118.579 291.338 119.217C291.456 119.793 291.628 120.348 291.826 120.871C291.778 120.92 291.729 120.964 291.686 121.012C291.162 120.814 290.607 120.643 290.031 120.524C289.393 120.405 288.689 120.317 288.003 120.312L287.769 120.691C287.637 120.903 287.514 121.118 287.409 121.351C287.303 121.575 287.189 121.8 287.092 122.029C286.916 122.5 286.731 122.97 286.625 123.459L286.516 123.89C287.021 124.378 287.563 124.805 288.104 125.175C288.601 125.5 289.111 125.769 289.617 126.002L289.613 126.098L289.617 126.2C289.111 126.429 288.601 126.702 288.104 127.027C287.563 127.392 287.021 127.823 286.516 128.308L286.625 128.739C286.731 129.228 286.916 129.698 287.092 130.169C287.189 130.398 287.303 130.622 287.409 130.851C287.514 131.08 287.637 131.295 287.769 131.506L288.003 131.885C288.689 131.881 289.393 131.792 290.031 131.674C290.607 131.555 291.162 131.383 291.686 131.185C291.729 131.233 291.778 131.282 291.826 131.326C291.628 131.85 291.456 132.404 291.338 132.98C291.219 133.618 291.131 134.322 291.122 135.009L291.5 135.242C291.716 135.374 291.932 135.497 292.16 135.598C292.389 135.708 292.614 135.823 292.843 135.92C293.313 136.096 293.78 136.281 294.273 136.386L294.704 136.496C295.188 135.99 295.619 135.449 295.984 134.908C296.31 134.411 296.583 133.9 296.811 133.39L296.913 133.399L297.009 133.39C297.243 133.9 297.511 134.411 297.836 134.908C298.206 135.449 298.633 135.99 299.122 136.496L299.553 136.386C300.041 136.281 300.508 136.096 300.978 135.92C301.211 135.823 301.436 135.708 301.661 135.598C301.89 135.497 302.109 135.374 302.321 135.242L302.698 135.009C302.694 134.322 302.607 133.618 302.483 132.98C302.369 132.404 302.193 131.85 301.999 131.326C302.048 131.282 302.092 131.233 302.14 131.185C302.659 131.383 303.218 131.555 303.794 131.674C304.432 131.792 305.132 131.881 305.823 131.885L306.052 131.506C306.188 131.295 306.311 131.08 306.413 130.851C306.523 130.622 306.637 130.398 306.733 130.169C306.906 129.698 307.094 129.228 307.2 128.739L307.31 128.308C306.804 127.823 306.258 127.392 305.722 127.027C305.22 126.702 304.71 126.429 304.204 126.2Z" fill="#262A41"/>
<path d="M272.138 133.991H267.531V113.241H272.138V133.991Z" fill="#D82B62"/>
<path d="M265.673 133.991H260.734V122.384H265.673V133.991Z" fill="#5C5E94"/>
<path d="M258.833 133.991H253.895V126.098H258.833V133.991Z" fill="#F36241"/>
<path d="M252.031 130.933H253.02V130.439H252.031V130.933Z" fill="#F36241"/>
<path d="M247.018 130.933H249.525V130.439H247.018V130.933Z" fill="#F36241"/>
<path d="M244.509 130.439H243.273V131.675H243.768V130.933H244.509V130.439Z" fill="#F36241"/>
<path d="M243.273 135.374H243.768V133.524H243.273V135.374ZM243.273 139.072H243.768V137.223H243.273V139.072ZM243.273 142.771H243.768V140.922H243.273V142.771ZM243.273 146.47H243.768V144.621H243.273V146.47Z" fill="#F36241"/>
<path d="M243.273 148.32V149.556H244.509V149.061H243.768V148.32H243.273Z" fill="#F36241"/>
<path d="M246.189 149.556H247.869V149.061H246.189V149.556ZM249.548 149.556H251.227V149.061H249.548V149.556Z" fill="#F36241"/>
<path d="M252.904 149.556H253.893V149.061H252.904V149.556Z" fill="#F36241"/>
<path d="M268.527 150.722H255.459V148.386H268.527V150.722Z" fill="white"/>
<path d="M264.497 155.042H255.459V152.707H264.497V155.042Z" fill="white"/>
<path d="M266.899 159.364H255.459V157.028H266.899V159.364Z" fill="white"/>
<path d="M271.936 159.364H269.266V157.028H271.936V159.364Z" fill="#F78F45"/>
<path d="M284.211 159.364H274.385V157.028H284.211V159.364Z" fill="#F78F45"/>
<path d="M284.21 155.042H267.393V152.707H284.21V155.042Z" fill="#F78F45"/>
<path d="M284.212 150.721H271.145V148.386H284.212V150.721Z" fill="#F78F45"/>
<path d="M329.024 128.941H320.414V124.833H329.024V128.941Z" fill="#D82B62"/>
<path d="M329.024 136.12H320.414V132.011H329.024V136.12Z" fill="#D82B62"/>
<path d="M329.024 143.299H320.414V139.19H329.024V143.299Z" fill="#D82B62"/>
<path d="M329.024 150.477H320.414V146.368H329.024V150.477Z" fill="#D82B62"/>
<path d="M329.024 157.656H320.414V153.547H329.024V157.656Z" fill="white"/>
<path d="M329.024 164.835H320.414V160.726H329.024V164.835Z" fill="white"/>
<path d="M329.024 172.013H320.414V167.904H329.024V172.013Z" fill="white"/>
<path d="M291.482 183.787C288.264 184.03 285.57 183.265 283.32 181.868C274.237 176.247 272.342 160.396 272.211 159.205C272.291 159.571 273.186 161.509 282.626 167.86C283.412 168.39 284.131 168.927 284.788 169.471L284.823 169.497C293.049 176.31 291.482 183.787 291.482 183.787Z" fill="#098B73"/>
<path d="M271.977 159.228C271.98 159.235 274.103 164.447 277.411 169.943C279.065 172.691 281.015 175.51 283.151 177.789C285.288 180.066 287.611 181.811 290.04 182.379L290.151 181.897C287.877 181.37 285.611 179.692 283.511 177.451C280.36 174.091 277.585 169.484 275.604 165.72C274.613 163.839 273.82 162.168 273.275 160.968C273.003 160.368 272.792 159.886 272.65 159.554C272.508 159.222 272.435 159.042 272.434 159.042L271.977 159.228Z" fill="#0B7259"/>
<path d="M290.317 183.832C287.607 183.832 285.294 183.093 283.32 181.868C283.693 180.986 283.974 179.94 284.187 178.835C286.031 180.592 287.997 181.902 290.039 182.379L290.151 181.897C288.155 181.435 286.167 180.087 284.292 178.25C284.984 174.131 284.789 169.471 284.789 169.471L284.823 169.497C285.674 170.202 286.42 170.913 287.073 171.623C287.184 173.47 287.55 175.079 288.07 176.467H288.072C288.962 178.843 290.304 180.573 291.591 181.742C291.598 181.921 291.602 182.088 291.602 182.246C291.602 183.216 291.483 183.787 291.483 183.787C291.086 183.817 290.698 183.832 290.317 183.832Z" fill="#0A7E66"/>
<path d="M290.04 182.379C287.998 181.902 286.032 180.592 284.188 178.835C284.225 178.642 284.26 178.447 284.293 178.25C286.168 180.087 288.156 181.435 290.152 181.897L290.04 182.379Z" fill="#0B7259"/>
<path d="M315.59 160.363C315.555 160.585 315.428 161.353 315.174 162.485V162.489C313.834 168.49 308.997 184.638 295.985 183.019C295.985 183.019 295.765 181.634 296.204 179.56C296.848 176.512 298.917 171.975 305.211 168.17C314.552 162.521 315.496 160.708 315.59 160.363Z" fill="#098B73"/>
<path d="M314.945 161.556C314.945 161.556 314.919 161.621 314.868 161.748C314.485 162.694 312.659 167.013 309.583 171.496C306.508 175.981 302.18 180.618 296.84 182.24L296.984 182.713C302.873 180.915 307.46 175.66 310.595 170.873C313.727 166.083 315.402 161.744 315.406 161.734L314.945 161.556Z" fill="#0B7259"/>
<path d="M297.777 183.133C297.197 183.133 296.602 183.096 295.985 183.019C295.985 183.019 295.952 182.813 295.938 182.442C296.482 181.457 296.988 180.492 297.455 179.549C302.354 179.193 306.632 175.246 309.758 171.238C309.7 171.324 309.641 171.409 309.582 171.496C306.507 175.981 302.18 180.618 296.839 182.24L296.984 182.713C302.872 180.915 307.46 175.66 310.594 170.873C312.347 168.193 313.643 165.655 314.445 163.937C314.922 163.035 315.174 162.485 315.174 162.485V162.489C313.898 168.206 309.446 183.133 297.777 183.133Z" fill="#0A7E66"/>
<path d="M296.984 182.713L296.84 182.24C302.18 180.618 306.508 175.981 309.583 171.496C309.642 171.409 309.701 171.323 309.759 171.237C311.948 168.429 313.573 165.591 314.446 163.937C313.643 165.655 312.347 168.193 310.595 170.873C307.46 175.66 302.873 180.915 296.984 182.713Z" fill="#0B7259"/>
<path d="M295.286 183.596C294.965 184.155 290.213 182.18 288.072 176.467H288.07C286.785 173.035 286.442 168.254 288.566 161.864C294.147 145.085 291.847 141.921 291.778 141.833C291.891 141.886 296.74 144.294 299.868 150.152L299.881 150.175C303.32 156.638 304.663 167.288 295.286 183.596Z" fill="#02A987"/>
<path d="M291.582 141.984L291.594 142C291.873 142.363 296.663 148.766 296.663 160.736C296.663 163.088 296.478 165.657 296.037 168.438C294.822 176.099 294.479 179.953 294.478 181.889C294.479 182.664 294.532 183.132 294.617 183.435C294.661 183.587 294.712 183.7 294.79 183.793C294.865 183.886 294.991 183.952 295.107 183.949C295.247 183.946 295.334 183.884 295.39 183.841C295.445 183.795 295.475 183.755 295.483 183.745L295.089 183.447L295.174 183.512L295.091 183.443L295.089 183.447L295.174 183.512L295.091 183.443L295.075 183.459L295.075 183.46L295.107 183.538V183.454L295.075 183.46L295.107 183.538V183.454V183.559L295.154 183.465L295.107 183.454V183.559L295.154 183.465L295.123 183.527L295.166 183.472L295.154 183.465L295.123 183.527L295.166 183.472L295.156 183.483L295.168 183.474L295.166 183.472L295.156 183.483L295.168 183.474C295.159 183.47 295.092 183.362 295.05 183.11C295.005 182.858 294.973 182.466 294.973 181.889C294.972 180.008 295.311 176.163 296.525 168.515C296.971 165.709 297.158 163.115 297.158 160.736C297.158 148.24 291.992 141.706 291.969 141.677L291.582 141.984Z" fill="#098B73"/>
<path d="M294.692 183.637C294.005 183.468 292.824 182.862 291.592 181.743C290.305 180.573 288.963 178.843 288.072 176.467C288.721 176.652 289.335 176.739 289.914 176.739C292.196 176.739 293.954 175.388 295.31 173.294C294.678 177.828 294.479 180.415 294.479 181.889C294.48 182.664 294.532 183.132 294.618 183.435C294.64 183.511 294.664 183.578 294.692 183.637ZM295.286 183.596L295.15 183.493L295.175 183.512L295.151 183.492L295.157 183.483L295.168 183.474L295.166 183.472L295.166 183.472C295.152 183.457 295.091 183.348 295.051 183.11C295.006 182.858 294.973 182.466 294.973 181.889C294.973 180.334 295.205 177.437 295.971 172.158C299.958 164.554 299.868 150.153 299.868 150.153L299.881 150.175C301.372 152.977 302.469 156.567 302.469 161.063C302.469 166.054 301.119 172.16 297.455 179.549C296.988 180.492 296.482 181.457 295.938 182.442C295.726 182.824 295.509 183.208 295.286 183.596Z" fill="#049C7F"/>
<path d="M295.037 183.687C294.944 183.687 294.827 183.671 294.692 183.637C294.663 183.578 294.639 183.511 294.617 183.435C294.532 183.132 294.48 182.664 294.479 181.889C294.479 180.415 294.678 177.828 295.31 173.294C295.542 172.936 295.762 172.556 295.971 172.158C295.204 177.437 294.972 180.334 294.973 181.889C294.973 182.466 295.005 182.858 295.05 183.11C295.09 183.348 295.151 183.457 295.165 183.471L295.166 183.472L295.168 183.474L295.157 183.483L295.15 183.492L295.175 183.512L295.149 183.493L295.286 183.596C295.251 183.657 295.165 183.687 295.037 183.687ZM295.107 183.456V183.454V183.456Z" fill="#098B73"/>
<path d="M272.205 159.134L272.211 159.193L272.205 159.134Z" fill="#098B73"/>
<path d="M304.497 183.346V196.759C304.497 200.683 301.316 203.863 297.393 203.863H291.085C288.516 203.863 286.265 202.5 285.018 200.456H285.016C284.359 199.378 283.98 198.112 283.98 196.759V183.346H304.497Z" fill="#F78F45"/>
<path d="M305.242 181.607H283.235C282.945 181.607 282.711 181.841 282.711 182.131V182.823C282.711 183.112 282.945 183.346 283.235 183.346H305.242C305.531 183.346 305.765 183.113 305.765 182.823V182.131C305.765 181.841 305.531 181.607 305.242 181.607Z" fill="#F78F45"/>
<path d="M304.494 183.346V196.759C304.494 200.683 301.314 203.863 297.39 203.863H291.082C288.514 203.863 286.263 202.5 285.016 200.456C300.042 205.175 303.306 194.125 302.724 189.743C302.145 185.361 296.731 183.346 296.731 183.346H304.494Z" fill="#F57819"/>
</svg>
