<svg width="69" height="69" viewBox="0 0 69 69" fill="none" xmlns="http://www.w3.org/2000/svg">
<path fill-rule="evenodd" clip-rule="evenodd" d="M34.5 0C15.4445 0 0 15.4474 0 34.5C0 53.5526 15.4445 69 34.5 69C53.5526 69 69 53.5526 69 34.5C69 15.4474 53.5526 0 34.5 0ZM34.9025 54.6767C23.782 54.6767 14.7775 45.6493 14.7775 34.5C14.7775 23.3507 23.782 14.3232 34.9025 14.3232C40.3363 14.3232 44.8788 16.3271 48.3633 19.5816L42.688 25.2684V25.2569C40.5749 23.2386 37.8954 22.2036 34.9025 22.2036C28.2613 22.2036 22.8649 27.8271 22.8649 34.4885C22.8649 41.1441 28.2613 46.7849 34.9025 46.7849C40.9285 46.7849 45.0283 43.3291 45.8735 38.5854H34.9025V30.7165H53.8344C54.0874 32.0678 54.2225 33.4765 54.2225 34.9542C54.2225 46.483 46.5261 54.6767 34.9025 54.6767V54.6767Z" fill="white"/>
</svg>
