<svg width="56" height="56" viewBox="0 0 56 56" fill="none" xmlns="http://www.w3.org/2000/svg">
<path d="M29.1122 15.6792C32.7629 15.6792 33.2184 15.6926 34.6508 15.7598C36.0817 15.827 37.0559 16.0515 37.9131 16.3848C38.7999 16.7262 39.547 17.1885 40.2941 17.9344C40.9773 18.6063 41.506 19.419 41.8433 20.316C42.1752 21.1721 42.4009 22.1479 42.4681 23.5792C42.5312 25.0119 42.5487 25.4676 42.5487 29.1192C42.5487 32.7708 42.5353 33.2265 42.4681 34.6592C42.4009 36.0905 42.1752 37.0649 41.8433 37.9224C41.5069 38.8199 40.9781 39.6328 40.2941 40.304C39.6222 40.9871 38.8098 41.5159 37.9131 41.8536C37.0572 42.1856 36.0817 42.4114 34.6508 42.4786C33.2184 42.5417 32.7629 42.5592 29.1122 42.5592C25.4616 42.5592 25.0061 42.5458 23.5737 42.4786C22.1428 42.4114 21.1686 42.1856 20.3114 41.8536C19.4142 41.5169 18.6016 40.988 17.9304 40.304C17.247 39.6322 16.7184 38.8195 16.3812 37.9224C16.048 37.0663 15.8236 36.0905 15.7564 34.6592C15.6932 33.2265 15.6758 32.7708 15.6758 29.1192C15.6758 25.4676 15.6892 25.0119 15.7564 23.5792C15.8236 22.1465 16.048 21.1735 16.3812 20.316C16.7174 19.4184 17.2462 18.6055 17.9304 17.9344C18.6018 17.2506 19.4144 16.7218 20.3114 16.3848C21.1686 16.0515 22.1414 15.827 23.5737 15.7598C25.0061 15.6967 25.4616 15.6792 29.1122 15.6792ZM29.1122 22.3992C27.3305 22.3992 25.6216 23.1072 24.3617 24.3674C23.1018 25.6277 22.394 27.3369 22.394 29.1192C22.394 30.9015 23.1018 32.6107 24.3617 33.871C25.6216 35.1312 27.3305 35.8392 29.1122 35.8392C30.894 35.8392 32.6028 35.1312 33.8628 33.871C35.1227 32.6107 35.8305 30.9015 35.8305 29.1192C35.8305 27.3369 35.1227 25.6277 33.8628 24.3674C32.6028 23.1072 30.894 22.3992 29.1122 22.3992ZM37.8459 22.0632C37.8459 21.6176 37.669 21.1903 37.354 20.8753C37.039 20.5602 36.6118 20.3832 36.1664 20.3832C35.7209 20.3832 35.2937 20.5602 34.9788 20.8753C34.6638 21.1903 34.4868 21.6176 34.4868 22.0632C34.4868 22.5088 34.6638 22.9361 34.9788 23.2511C35.2937 23.5662 35.7209 23.7432 36.1664 23.7432C36.6118 23.7432 37.039 23.5662 37.354 23.2511C37.669 22.9361 37.8459 22.5088 37.8459 22.0632ZM29.1122 25.0872C30.1813 25.0872 31.2066 25.512 31.9625 26.2681C32.7185 27.0243 33.1432 28.0498 33.1432 29.1192C33.1432 30.1886 32.7185 31.2141 31.9625 31.9703C31.2066 32.7264 30.1813 33.1512 29.1122 33.1512C28.0432 33.1512 27.0179 32.7264 26.2619 31.9703C25.506 31.2141 25.0813 30.1886 25.0813 29.1192C25.0813 28.0498 25.506 27.0243 26.2619 26.2681C27.0179 25.512 28.0432 25.0872 29.1122 25.0872Z" fill="#ED303C"/>
<path d="M55.3186 27.9995C55.3186 43.0955 43.0842 55.3328 27.9926 55.3328C12.9011 55.3328 0.666667 43.0955 0.666667 27.9995C0.666667 12.9036 12.9011 0.666178 27.9926 0.666178C43.0842 0.666178 55.3186 12.9036 55.3186 27.9995Z" stroke="#ED303C" stroke-width="1.33333"/>
</svg>
