<svg width="48" height="96" viewBox="0 0 48 96" fill="none" xmlns="http://www.w3.org/2000/svg">
<path d="M-3.81596e-07 96C6.30345 96 12.5452 94.7585 18.3688 92.3462C24.1924 89.934 29.4839 86.3983 33.9411 81.9411C38.3983 77.4839 41.934 72.1924 44.3462 66.3688C46.7584 60.5452 48 54.3035 48 48C48 41.6966 46.7584 35.4548 44.3462 29.6312C41.934 23.8076 38.3983 18.5161 33.9411 14.0589C29.4839 9.60166 24.1924 6.06601 18.3688 3.65378C12.5452 1.24155 6.30345 -2.37368e-06 0 -2.09815e-06L1.71655e-06 48L-3.81596e-07 96Z" fill="#FEF7D8"/>
</svg>
