<svg width="56" height="56" viewBox="0 0 56 56" fill="none" xmlns="http://www.w3.org/2000/svg">
<path d="M23.508 38.0795V21.4549H18.2276V38.0795H23.508ZM20.8685 19.1837C22.7099 19.1837 23.856 17.9071 23.856 16.3119C23.8217 14.6806 22.7099 13.4395 20.9034 13.4395C19.0972 13.4395 17.916 14.6806 17.916 16.3119C17.916 17.9072 19.0619 19.1837 20.834 19.1837H20.8683H20.8685ZM26.4307 38.0795H31.7112V28.7955C31.7112 28.2986 31.7455 27.8023 31.8849 27.4471C32.2667 26.4544 33.1355 25.4262 34.5942 25.4262C36.505 25.4262 37.2694 26.9507 37.2694 29.1856V38.0793H42.5495V28.547C42.5495 23.4405 39.9444 21.0646 36.4702 21.0646C33.6216 21.0646 32.3709 22.7308 31.6761 23.8656H31.7113V21.4545H26.4309C26.5002 23.0145 26.4309 38.0791 26.4309 38.0791L26.4307 38.0795Z" fill="#ED303C"/>
<path d="M55.3186 27.9995C55.3186 43.0955 43.0842 55.3328 27.9926 55.3328C12.9011 55.3328 0.666667 43.0955 0.666667 27.9995C0.666667 12.9036 12.9011 0.666178 27.9926 0.666178C43.0842 0.666178 55.3186 12.9036 55.3186 27.9995Z" stroke="#ED303C" stroke-width="1.33333"/>
</svg>
