<svg width="56" height="56" viewBox="0 0 56 56" fill="none" xmlns="http://www.w3.org/2000/svg">
<path d="M43.4425 20.6472C42.4025 21.1082 41.2853 21.4196 40.1108 21.5604C41.3227 20.8351 42.2294 19.6935 42.6616 18.3486C41.523 19.0251 40.2769 19.5013 38.9774 19.7564C38.1035 18.8231 36.9461 18.2045 35.6847 17.9967C34.4233 17.7888 33.1286 18.0033 32.0016 18.6068C30.8746 19.2104 29.9784 20.1693 29.452 21.3345C28.9256 22.4998 28.7986 23.8063 29.0906 25.0512C26.7835 24.9354 24.5266 24.3356 22.4663 23.2907C20.406 22.2459 18.5883 20.7795 17.1313 18.9865C16.6331 19.8461 16.3466 20.8428 16.3466 21.9043C16.346 22.8598 16.5813 23.8007 17.0315 24.6435C17.4816 25.4863 18.1328 26.2049 18.9273 26.7356C18.0059 26.7063 17.1049 26.4572 16.2993 26.0093V26.084C16.2992 27.4242 16.7626 28.7232 17.611 29.7605C18.4594 30.7978 19.6404 31.5095 20.9537 31.775C20.099 32.0063 19.2029 32.0404 18.3332 31.8746C18.7037 33.0278 19.4255 34.0362 20.3974 34.7587C21.3694 35.4811 22.5429 35.8815 23.7536 35.9037C21.6983 37.5175 19.16 38.3929 16.5471 38.3891C16.0843 38.3892 15.6218 38.3622 15.1621 38.3081C17.8144 40.0139 20.9018 40.9192 24.055 40.9156C34.729 40.9156 40.5642 32.0727 40.5642 24.4034C40.5642 24.1542 40.558 23.9026 40.5467 23.6534C41.6818 22.8324 42.6615 21.8157 43.4401 20.6509L43.4425 20.6472Z" fill="#ED303C"/>
<path d="M55.3186 27.9995C55.3186 43.0955 43.0842 55.3328 27.9926 55.3328C12.9011 55.3328 0.666667 43.0955 0.666667 27.9995C0.666667 12.9036 12.9011 0.666178 27.9926 0.666178C43.0842 0.666178 55.3186 12.9036 55.3186 27.9995Z" stroke="#ED303C" stroke-width="1.33333"/>
</svg>
