<svg width="110" height="64" viewBox="0 0 110 64" fill="none" xmlns="http://www.w3.org/2000/svg">
<path d="M8.95769 59.8108H6.55721L5.83758 56.5365C5.81359 56.4474 5.7639 56.2024 5.68851 55.8014C5.61655 55.3971 5.5583 55.0304 5.51375 54.7014C5.45549 55.1743 5.31156 55.9248 5.08197 56.9528C4.95518 57.5217 4.74443 58.4743 4.44972 59.8108H2.04924L0.188483 52.2958H2.14691L2.9642 56.0636C3.15267 56.9168 3.27947 57.5799 3.34458 58.0528C3.39255 57.6793 3.47308 57.203 3.58617 56.6239C3.69925 56.0413 3.80548 55.5461 3.90486 55.1383L4.56795 52.2958H6.44927L7.09179 55.1383C7.21173 55.6386 7.32653 56.1818 7.43619 56.7678C7.54585 57.3538 7.61781 57.7821 7.65208 58.0528C7.70348 57.6382 7.82513 56.9785 8.01703 56.0739L8.84975 52.2958H10.8082L8.95769 59.8108ZM21.505 53.9252H19.0736V55.1075H21.3199V56.7369H19.0736V58.1556H21.505V59.8108H17.0433V52.2958H21.505V53.9252ZM28.0844 52.2958H30.7059C31.7306 52.2958 32.4896 52.4483 32.9831 52.7533C33.4765 53.0583 33.7233 53.5294 33.7233 54.1668C33.7233 54.5883 33.6153 54.9481 33.3994 55.2463C33.1835 55.5444 32.8991 55.7363 32.5461 55.822V55.8734C33.0053 55.9968 33.3412 56.2006 33.5536 56.4851C33.7661 56.7695 33.8723 57.1447 33.8723 57.6108C33.8723 58.2893 33.617 58.8256 33.1064 59.2197C32.5958 59.6137 31.8968 59.8108 31.0092 59.8108H28.0844V52.2958ZM30.1148 53.8327V55.1795H30.7265C31.0212 55.1795 31.2474 55.1195 31.405 54.9995C31.5626 54.8762 31.6415 54.698 31.6415 54.465C31.6415 54.0435 31.3228 53.8327 30.6854 53.8327H30.1148ZM30.1148 56.665V58.243H30.8293C31.4633 58.243 31.7802 57.9757 31.7802 57.4412C31.7802 57.191 31.6946 56.9991 31.5232 56.8654C31.3553 56.7318 31.1103 56.665 30.7882 56.665H30.1148ZM49 59.8108H47.1341V56.5159C47.1341 56.276 47.1358 56.0876 47.1392 55.9505C47.1426 55.81 47.1666 55.296 47.2112 54.4084H47.1649L45.6485 59.8108H43.7158L42.1789 54.3981H42.1326C42.2046 55.32 42.2406 56.0362 42.2406 56.5468V59.8108H40.4415V52.2958H43.1453L44.7079 57.6313H44.749L46.2911 52.2958H49V59.8108ZM62.7141 59.8108H60.4935L60.1183 58.4024H57.6818L57.3014 59.8108H55.0706L57.5224 52.265H60.2313L62.7141 59.8108ZM59.7019 56.7369L59.3781 55.5033C59.1553 54.7186 58.9925 54.052 58.8897 53.5037C58.8589 53.6785 58.7972 53.9664 58.7047 54.3673C58.6225 54.7545 58.422 55.5444 58.1033 56.7369H59.7019ZM68.4454 57.6313C68.8189 57.8267 69.2182 57.9809 69.6431 58.094C70.0714 58.207 70.445 58.2636 70.7636 58.2636C71.0823 58.2636 71.3136 58.2139 71.4576 58.1145C71.6049 58.0117 71.6786 57.8746 71.6786 57.7033C71.6786 57.5148 71.5587 57.3469 71.3188 57.1996C71.1817 57.1139 70.8579 56.9563 70.3473 56.7267C69.8367 56.4971 69.4597 56.2777 69.2164 56.0687C68.7333 55.6575 68.4917 55.1024 68.4917 54.4033C68.4917 53.7008 68.7453 53.1559 69.2524 52.7687C69.7596 52.3815 70.4518 52.1879 71.3291 52.1879C72.107 52.1879 72.9003 52.3678 73.709 52.7276L73.0819 54.2953C72.3862 53.9732 71.7814 53.8122 71.2674 53.8122C71.0138 53.8122 70.8236 53.8567 70.6968 53.9458C70.5735 54.0349 70.5118 54.1514 70.5118 54.2953C70.5118 54.4393 70.5872 54.5729 70.7379 54.6963C70.8716 54.7991 71.2708 55.003 71.9356 55.308C72.6038 55.6095 73.0665 55.9299 73.3235 56.2692C73.5805 56.605 73.709 57.0248 73.709 57.5285C73.709 57.5422 73.709 57.5559 73.709 57.5697C73.709 58.255 73.4434 58.817 72.9123 59.2556C72.3845 59.6943 71.6889 59.9136 70.8253 59.9136C70.8048 59.9136 70.7842 59.9136 70.7636 59.9136C70.2736 59.9136 69.8555 59.8793 69.5094 59.8108C69.1633 59.7388 68.8086 59.6155 68.4454 59.4407V57.6313ZM85.2796 53.9561H83.4497V59.8108H81.4193V53.9561H79.5843V52.2958H85.2796V53.9561ZM96.0792 53.9252H93.6479V55.1075H95.8942V56.7369H93.6479V58.1556H96.0792V59.8108H91.6175V52.2958H96.0792V53.9252ZM102.659 52.2958H105.121C107.163 52.2958 108.184 53.036 108.184 54.5164C108.184 55.3868 107.758 56.0601 106.904 56.5365L109.099 59.8108H106.797L105.203 57.0762H104.689V59.8108H102.659V52.2958ZM104.689 53.8327V55.5496H105.069C105.779 55.5496 106.133 55.236 106.133 54.6089C106.133 54.0914 105.786 53.8327 105.09 53.8327H104.689Z" fill="white"/>
<path d="M30.0449 40.3541V0H36.7341V16.668L46.7129 0H53.5117L58.6656 8.66298L64.0389 0H71.6053L58.6656 21.7123L50.1123 7.45674L30.0449 40.3541Z" fill="white"/>
<path d="M50.4419 18.2032L37.3926 40.1348H45.1783L50.4419 31.2525L56.0344 40.1348H62.3946L72.5928 22.8089V40.1348H79.1723V0L59.3242 33.2264L50.4419 18.2032Z" fill="white"/>
</svg>
