<?xml version="1.0" encoding="UTF-8"?>
<svg version="1.1" xmlns="http://www.w3.org/2000/svg" width="300" height="300">
<path d="M0 0 C99 0 198 0 300 0 C300 99 300 198 300 300 C201 300 102 300 0 300 C0 201 0 102 0 0 Z " fill="#E9EAEC" transform="translate(0,0)"/>
<path d="M0 0 C0.99 0.66 1.98 1.32 3 2 C3 2.66 3 3.32 3 4 C3.515625 4.2475 4.03125 4.495 4.5625 4.75 C6.51250352 5.75000181 8.42085487 6.83106606 10.3125 7.9375 C13.76931949 9.92333247 17.29912106 11.50666289 21 13 C22.7634375 13.7115625 22.7634375 13.7115625 24.5625 14.4375 C26.0410771 14.96000469 27.52031522 15.48064044 29 16 C29.88171875 16.35578125 30.7634375 16.7115625 31.671875 17.078125 C51.16362807 23.96327161 74.53680528 21.4630179 93.16503906 13.01855469 C97.92601184 10.68833666 102.40636499 7.98115874 106.8984375 5.171875 C109 4 109 4 111 4 C111 3.34 111 2.68 111 2 C111.66 2 112.32 2 113 2 C113 1.34 113 0.68 113 0 C116.64511161 -0.95467209 118.55667326 -1.16846416 122.125 0.1875 C125 2 125 2 126.87109375 3.8984375 C129.77977671 6.76976123 133.07299787 8.86161064 136.46484375 11.12109375 C139.26738003 13.19816609 141.5765629 15.49325725 144 18 C145.25490234 19.22009766 145.25490234 19.22009766 146.53515625 20.46484375 C150.90719999 24.74228376 154.82178225 28.73950166 158 34 C159.16004118 35.6505099 160.32741357 37.29587899 161.5 38.9375 C166.33453462 45.87490256 169.43251084 51.92050484 171.99609375 60.0234375 C172.87475318 62.62864563 173.87848849 65.02393029 175.0625 67.5 C180.88067382 80.09840787 181 93.27500817 181 107 C99.16 107 17.32 107 -67 107 C-67 89.2355204 -67 89.2355204 -65.9375 83.1875 C-65.80811035 82.4437915 -65.6787207 81.70008301 -65.54541016 80.93383789 C-61.08698727 57.7884484 -48.17446026 35.02062056 -31 19 C-30.175 18.154375 -29.35 17.30875 -28.5 16.4375 C-19.84615385 8 -19.84615385 8 -17 8 C-17 7.34 -17 6.68 -17 6 C-14.55078125 4.23828125 -14.55078125 4.23828125 -11.3125 2.3125 C-9.72888672 1.34763672 -9.72888672 1.34763672 -8.11328125 0.36328125 C-4.69152395 -1.13507923 -3.4549269 -1.25366172 0 0 Z " fill="#B7B8BC" transform="translate(93,192)"/>
<path d="M0 0 C1.31133911 -0.01389771 1.31133911 -0.01389771 2.64916992 -0.02807617 C16.8016476 0.03957556 28.66452453 4.34016179 40.6875 11.5625 C41.82251953 12.23720337 41.82251953 12.23720337 42.98046875 12.92553711 C48.05325961 16.06427074 52.68146189 19.56394526 56.4375 24.25 C56.4375 24.91 56.4375 25.57 56.4375 26.25 C57.0975 26.25 57.7575 26.25 58.4375 26.25 C61.4375 29.71153846 61.4375 29.71153846 61.4375 32.25 C62.0975 32.25 62.7575 32.25 63.4375 32.25 C64.61743203 34.30585097 65.78128455 36.36836541 66.9375 38.4375 C67.5871875 39.58605469 68.236875 40.73460937 68.90625 41.91796875 C70.36919679 45.10137082 70.79890832 46.82307465 70.4375 50.25 C71.0975 50.25 71.7575 50.25 72.4375 50.25 C78.10757761 70.63527903 77.32528964 92.6408476 67.05786133 111.36108398 C63.81832553 116.95070466 60.08728818 121.75142444 55.4375 126.25 C54.27541016 127.44689453 54.27541016 127.44689453 53.08984375 128.66796875 C45.45580297 136.09963437 37.58068288 141.87495516 27.4375 145.25 C25.705 146.054375 25.705 146.054375 23.9375 146.875 C10.05899171 152.32727112 -9.55754548 152.62913292 -23.375 146.75 C-24.9528125 146.0075 -24.9528125 146.0075 -26.5625 145.25 C-27.490625 144.96125 -28.41875 144.6725 -29.375 144.375 C-33.97834355 142.75029051 -38.23290137 140.49180799 -42.5625 138.25 C-42.5625 137.59 -42.5625 136.93 -42.5625 136.25 C-43.67625 135.9096875 -43.67625 135.9096875 -44.8125 135.5625 C-48.12116205 133.98336584 -49.35714426 132.1445294 -51.5625 129.25 C-52.47 128.528125 -53.3775 127.80625 -54.3125 127.0625 C-55.055 126.464375 -55.7975 125.86625 -56.5625 125.25 C-56.5625 124.59 -56.5625 123.93 -56.5625 123.25 C-57.2225 123.25 -57.8825 123.25 -58.5625 123.25 C-62.5625 116.5 -62.5625 116.5 -62.5625 114.25 C-63.2225 114.25 -63.8825 114.25 -64.5625 114.25 C-75.25027231 96.1490069 -77.82306842 74.00040674 -72.76171875 53.65625 C-70.3712059 46.8662591 -67.00958894 40.55465198 -63.5625 34.25 C-62.9025 34.25 -62.2425 34.25 -61.5625 34.25 C-61.43294922 33.40308594 -61.43294922 33.40308594 -61.30078125 32.5390625 C-57.97270745 22.22027284 -43.55569316 12.05478344 -34.3125 7.3125 C-32.7392753 6.60217279 -31.15643286 5.91255471 -29.5625 5.25 C-28.89863281 4.95609375 -28.23476562 4.6621875 -27.55078125 4.359375 C-18.61110994 0.66020066 -9.57223854 0.06295869 0 0 Z " fill="#B7B8BC" transform="translate(149.5625,47.75)"/>
</svg>
