<?xml version="1.0" standalone="no"?>
<!DOCTYPE svg PUBLIC "-//W3C//DTD SVG 20010904//EN"
 "http://www.w3.org/TR/2001/REC-SVG-20010904/DTD/svg10.dtd">
<svg version="1.0" xmlns="http://www.w3.org/2000/svg"
 width="64.000000pt" height="64.000000pt" viewBox="0 0 64.000000 64.000000"
 preserveAspectRatio="xMidYMid meet">

<g transform="translate(0.000000,64.000000) scale(0.100000,-0.100000)"
fill="#000000" stroke="none">
<path d="M60 460 l0 -120 120 0 120 0 0 120 0 120 -120 0 -120 0 0 -120z m220
0 l0 -100 -100 0 -100 0 0 100 0 100 100 0 100 0 0 -100z"/>
<path d="M190 525 c-15 -18 -10 -45 13 -59 34 -22 73 27 47 59 -16 19 -44 19
-60 0z m46 -16 c10 -17 -13 -36 -27 -22 -12 12 -4 33 11 33 5 0 12 -5 16 -11z"/>
<path d="M116 430 c-14 -22 -26 -42 -26 -45 0 -3 38 -5 85 -5 47 0 85 3 85 8
-1 4 -11 20 -25 36 -20 25 -26 27 -39 17 -12 -10 -17 -9 -26 8 -15 29 -24 26
-54 -19z m52 -10 c11 -18 10 -20 -18 -20 -28 0 -29 2 -18 20 7 11 15 20 18 20
3 0 11 -9 18 -20z m57 -10 c3 -5 -1 -10 -9 -10 -9 0 -16 5 -16 10 0 6 4 10 9
10 6 0 13 -4 16 -10z"/>
<path d="M340 460 l0 -120 120 0 120 0 0 120 0 120 -120 0 -120 0 0 -120z
m220 0 l0 -100 -100 0 -100 0 0 100 0 100 100 0 100 0 0 -100z"/>
<path d="M390 525 c-15 -18 -10 -45 13 -59 34 -22 73 27 47 59 -16 19 -44 19
-60 0z m46 -16 c10 -17 -13 -36 -27 -22 -12 12 -4 33 11 33 5 0 12 -5 16 -11z"/>
<path d="M435 450 c-41 -15 -50 -23 -50 -42 0 -21 5 -23 49 -26 65 -4 93 4
101 28 8 25 -11 60 -33 59 -9 -1 -39 -10 -67 -19z m80 -25 c0 -17 -8 -20 -57
-23 -39 -2 -58 1 -58 9 0 6 6 9 13 7 6 -3 26 3 42 13 37 22 60 20 60 -6z"/>
<path d="M60 180 l0 -120 120 0 120 0 0 120 0 120 -120 0 -120 0 0 -120z m220
0 l0 -100 -100 0 -100 0 0 100 0 100 100 0 100 0 0 -100z"/>
<path d="M133 226 c-18 -18 -33 -39 -33 -46 0 -18 62 -80 80 -80 18 0 80 62
80 80 0 18 -62 80 -80 80 -8 0 -30 -15 -47 -34z m62 4 c3 -5 -3 -10 -15 -10
-12 0 -18 5 -15 10 3 6 10 10 15 10 5 0 12 -4 15 -10z m-55 -52 c0 -16 -3 -19
-11 -11 -6 6 -8 16 -5 22 11 17 16 13 16 -11z m56 11 c10 -17 -13 -36 -27 -22
-12 12 -4 33 11 33 5 0 12 -5 16 -11z m36 -21 c-9 -9 -12 -7 -12 12 0 19 3 21
12 12 9 -9 9 -15 0 -24z m-40 -40 c-9 -9 -15 -9 -24 0 -9 9 -7 12 12 12 19 0
21 -3 12 -12z"/>
<path d="M340 180 l0 -120 120 0 120 0 0 120 0 120 -120 0 -120 0 0 -120z
m220 0 l0 -100 -100 0 -100 0 0 100 0 100 100 0 100 0 0 -100z"/>
<path d="M445 250 c-3 -5 -15 -10 -26 -10 -12 0 -19 -7 -19 -18 0 -10 -5 -23
-12 -30 -9 -9 -9 -15 0 -24 7 -7 12 -20 12 -30 0 -11 7 -18 18 -18 10 0 23 -5
30 -12 9 -9 15 -9 24 0 7 7 20 12 30 12 11 0 18 7 18 18 0 10 5 23 12 30 9 9
9 15 0 24 -7 7 -12 20 -12 30 0 11 -7 18 -19 18 -11 0 -23 5 -26 10 -3 6 -10
10 -15 10 -5 0 -12 -4 -15 -10z m45 -45 l24 -26 -27 -27 -27 -27 -27 27 -27
27 24 26 c13 14 26 25 30 25 4 0 17 -11 30 -25z"/>
</g>
</svg>
