<svg width="549" height="289" viewBox="0 0 549 289" fill="none" xmlns="http://www.w3.org/2000/svg">
<path d="M40.9922 272H30.0469L26.7656 257.07C26.6562 256.664 26.4297 255.547 26.0859 253.719C25.7578 251.875 25.4922 250.203 25.2891 248.703C25.0234 250.859 24.3672 254.281 23.3203 258.969C22.7422 261.562 21.7812 265.906 20.4375 272H9.49219L1.00781 237.734H9.9375L13.6641 254.914C14.5234 258.805 15.1016 261.828 15.3984 263.984C15.6172 262.281 15.9844 260.109 16.5 257.469C17.0156 254.812 17.5 252.555 17.9531 250.695L20.9766 237.734H29.5547L32.4844 250.695C33.0312 252.977 33.5547 255.453 34.0547 258.125C34.5547 260.797 34.8828 262.75 35.0391 263.984C35.2734 262.094 35.8281 259.086 36.7031 254.961L40.5 237.734H49.4297L40.9922 272ZM98.2031 245.164H87.1172V250.555H97.3594V257.984H87.1172V264.453H98.2031V272H77.8594V237.734H98.2031V245.164ZM128.203 237.734H140.156C144.828 237.734 148.289 238.43 150.539 239.82C152.789 241.211 153.914 243.359 153.914 246.266C153.914 248.188 153.422 249.828 152.438 251.188C151.453 252.547 150.156 253.422 148.547 253.812V254.047C150.641 254.609 152.172 255.539 153.141 256.836C154.109 258.133 154.594 259.844 154.594 261.969C154.594 265.062 153.43 267.508 151.102 269.305C148.773 271.102 145.586 272 141.539 272H128.203V237.734ZM137.461 244.742V250.883H140.25C141.594 250.883 142.625 250.609 143.344 250.062C144.062 249.5 144.422 248.688 144.422 247.625C144.422 245.703 142.969 244.742 140.062 244.742H137.461ZM137.461 257.656V264.852H140.719C143.609 264.852 145.055 263.633 145.055 261.195C145.055 260.055 144.664 259.18 143.883 258.57C143.117 257.961 142 257.656 140.531 257.656H137.461Z" fill="#ED303C"/>
<path d="M223.57 272H215.062V256.977C215.062 255.883 215.07 255.023 215.086 254.398C215.102 253.758 215.211 251.414 215.414 247.367H215.203L208.289 272H199.477L192.469 247.32H192.258C192.586 251.523 192.75 254.789 192.75 257.117V272H184.547V237.734H196.875L204 262.062H204.188L211.219 237.734H223.57V272ZM286.102 272H275.977L274.266 265.578H263.156L261.422 272H251.25L262.43 237.594H274.781L286.102 272ZM272.367 257.984L270.891 252.359C269.875 248.781 269.133 245.742 268.664 243.242C268.523 244.039 268.242 245.352 267.82 247.18C267.445 248.945 266.531 252.547 265.078 257.984H272.367ZM312.234 262.062C313.938 262.953 315.758 263.656 317.695 264.172C319.648 264.688 321.352 264.945 322.805 264.945C324.258 264.945 325.312 264.719 325.969 264.266C326.641 263.797 326.977 263.172 326.977 262.391C326.977 261.531 326.43 260.766 325.336 260.094C324.711 259.703 323.234 258.984 320.906 257.938C318.578 256.891 316.859 255.891 315.75 254.938C313.547 253.062 312.445 250.531 312.445 247.344C312.445 244.141 313.602 241.656 315.914 239.891C318.227 238.125 321.383 237.242 325.383 237.242C328.93 237.242 332.547 238.062 336.234 239.703L333.375 246.852C330.203 245.383 327.445 244.648 325.102 244.648C323.945 244.648 323.078 244.852 322.5 245.258C321.938 245.664 321.656 246.195 321.656 246.852C321.656 247.508 322 248.117 322.688 248.68C323.297 249.148 325.117 250.078 328.148 251.469C331.195 252.844 333.305 254.305 334.477 255.852C335.648 257.383 336.234 259.297 336.234 261.594C336.234 261.656 336.234 261.719 336.234 261.781C336.234 264.906 335.023 267.469 332.602 269.469C330.195 271.469 327.023 272.469 323.086 272.469C322.992 272.469 322.898 272.469 322.805 272.469C320.57 272.469 318.664 272.312 317.086 272C315.508 271.672 313.891 271.109 312.234 270.312V262.062ZM388.992 245.305H380.648V272H371.391V245.305H363.023V237.734H388.992V245.305ZM438.234 245.164H427.148V250.555H437.391V257.984H427.148V264.453H438.234V272H417.891V237.734H438.234V245.164ZM468.234 237.734H479.461C488.773 237.734 493.43 241.109 493.43 247.859C493.43 251.828 491.484 254.898 487.594 257.07L497.602 272H487.102L479.836 259.531H477.492V272H468.234V237.734ZM477.492 244.742V252.57H479.227C482.461 252.57 484.078 251.141 484.078 248.281C484.078 245.922 482.492 244.742 479.32 244.742H477.492ZM523.125 262.062C524.828 262.953 526.648 263.656 528.586 264.172C530.539 264.688 532.242 264.945 533.695 264.945C535.148 264.945 536.203 264.719 536.859 264.266C537.531 263.797 537.867 263.172 537.867 262.391C537.867 261.531 537.32 260.766 536.227 260.094C535.602 259.703 534.125 258.984 531.797 257.938C529.469 256.891 527.75 255.891 526.641 254.938C524.438 253.062 523.336 250.531 523.336 247.344C523.336 244.141 524.492 241.656 526.805 239.891C529.117 238.125 532.273 237.242 536.273 237.242C539.82 237.242 543.438 238.062 547.125 239.703L544.266 246.852C541.094 245.383 538.336 244.648 535.992 244.648C534.836 244.648 533.969 244.852 533.391 245.258C532.828 245.664 532.547 246.195 532.547 246.852C532.547 247.508 532.891 248.117 533.578 248.68C534.188 249.148 536.008 250.078 539.039 251.469C542.086 252.844 544.195 254.305 545.367 255.852C546.539 257.383 547.125 259.297 547.125 261.594C547.125 261.656 547.125 261.719 547.125 261.781C547.125 264.906 545.914 267.469 543.492 269.469C541.086 271.469 537.914 272.469 533.977 272.469C533.883 272.469 533.789 272.469 533.695 272.469C531.461 272.469 529.555 272.312 527.977 272C526.398 271.672 524.781 271.109 523.125 270.312V262.062Z" fill="black"/>
<path d="M163 184V0H193.5V76L239 0H270L293.5 39.5L318 0H352.5L293.5 99L254.5 34L163 184Z" fill="#ED303C"/>
<path d="M256 83L196.5 183H232L256 142.5L281.5 183H310.5L357 104V183H387V0L296.5 151.5L256 83Z" fill="black"/>
</svg>
